<svg xmlns="http://www.w3.org/2000/svg" xmlns:xlink="http://www.w3.org/1999/xlink" width="500" zoomAndPan="magnify" viewBox="0 0 375 374.999991" height="500" preserveAspectRatio="xMidYMid meet" version="1.0"><defs><g/><linearGradient x1="0" gradientTransform="matrix(0.75, 0, 0, 0.75, 0.0000045, 0)" y1="0" x2="499.999979" gradientUnits="userSpaceOnUse" y2="0" id="623e202ed9"><stop stop-opacity="1" stop-color="rgb(65.098572%, 65.098572%, 65.098572%)" offset="0"/><stop stop-opacity="1" stop-color="rgb(65.234375%, 65.234375%, 65.234375%)" offset="0.0078125"/><stop stop-opacity="1" stop-color="rgb(65.507507%, 65.507507%, 65.507507%)" offset="0.015625"/><stop stop-opacity="1" stop-color="rgb(65.78064%, 65.78064%, 65.78064%)" offset="0.0234375"/><stop stop-opacity="1" stop-color="rgb(66.052246%, 66.052246%, 66.052246%)" offset="0.03125"/><stop stop-opacity="1" stop-color="rgb(66.325378%, 66.325378%, 66.325378%)" offset="0.0390625"/><stop stop-opacity="1" stop-color="rgb(66.598511%, 66.598511%, 66.598511%)" offset="0.046875"/><stop stop-opacity="1" stop-color="rgb(66.871643%, 66.871643%, 66.871643%)" offset="0.0546875"/><stop stop-opacity="1" stop-color="rgb(67.14325%, 67.14325%, 67.14325%)" offset="0.0625"/><stop stop-opacity="1" stop-color="rgb(67.416382%, 67.416382%, 67.416382%)" offset="0.0703125"/><stop stop-opacity="1" stop-color="rgb(67.689514%, 67.689514%, 67.689514%)" offset="0.078125"/><stop stop-opacity="1" stop-color="rgb(67.961121%, 67.961121%, 67.961121%)" offset="0.0859375"/><stop stop-opacity="1" stop-color="rgb(68.234253%, 68.234253%, 68.234253%)" offset="0.09375"/><stop stop-opacity="1" stop-color="rgb(68.507385%, 68.507385%, 68.507385%)" offset="0.101562"/><stop stop-opacity="1" stop-color="rgb(68.778992%, 68.778992%, 68.778992%)" offset="0.109375"/><stop stop-opacity="1" stop-color="rgb(69.052124%, 69.052124%, 69.052124%)" offset="0.117188"/><stop stop-opacity="1" stop-color="rgb(69.325256%, 69.325256%, 69.325256%)" offset="0.125"/><stop stop-opacity="1" stop-color="rgb(69.596863%, 69.596863%, 69.596863%)" offset="0.132812"/><stop stop-opacity="1" stop-color="rgb(69.869995%, 69.869995%, 69.869995%)" offset="0.140625"/><stop stop-opacity="1" stop-color="rgb(70.143127%, 70.143127%, 70.143127%)" offset="0.148437"/><stop stop-opacity="1" stop-color="rgb(70.41626%, 70.41626%, 70.41626%)" offset="0.15625"/><stop stop-opacity="1" stop-color="rgb(70.687866%, 70.687866%, 70.687866%)" offset="0.164062"/><stop stop-opacity="1" stop-color="rgb(70.960999%, 70.960999%, 70.960999%)" offset="0.171875"/><stop stop-opacity="1" stop-color="rgb(71.234131%, 71.234131%, 71.234131%)" offset="0.179687"/><stop stop-opacity="1" stop-color="rgb(71.505737%, 71.505737%, 71.505737%)" offset="0.1875"/><stop stop-opacity="1" stop-color="rgb(71.77887%, 71.77887%, 71.77887%)" offset="0.195312"/><stop stop-opacity="1" stop-color="rgb(72.052002%, 72.052002%, 72.052002%)" offset="0.203125"/><stop stop-opacity="1" stop-color="rgb(72.323608%, 72.323608%, 72.323608%)" offset="0.210938"/><stop stop-opacity="1" stop-color="rgb(72.596741%, 72.596741%, 72.596741%)" offset="0.21875"/><stop stop-opacity="1" stop-color="rgb(72.869873%, 72.869873%, 72.869873%)" offset="0.226562"/><stop stop-opacity="1" stop-color="rgb(73.141479%, 73.141479%, 73.141479%)" offset="0.234375"/><stop stop-opacity="1" stop-color="rgb(73.414612%, 73.414612%, 73.414612%)" offset="0.242188"/><stop stop-opacity="1" stop-color="rgb(73.687744%, 73.687744%, 73.687744%)" offset="0.25"/><stop stop-opacity="1" stop-color="rgb(73.959351%, 73.959351%, 73.959351%)" offset="0.257812"/><stop stop-opacity="1" stop-color="rgb(74.232483%, 74.232483%, 74.232483%)" offset="0.265625"/><stop stop-opacity="1" stop-color="rgb(74.505615%, 74.505615%, 74.505615%)" offset="0.273437"/><stop stop-opacity="1" stop-color="rgb(74.778748%, 74.778748%, 74.778748%)" offset="0.28125"/><stop stop-opacity="1" stop-color="rgb(75.050354%, 75.050354%, 75.050354%)" offset="0.289062"/><stop stop-opacity="1" stop-color="rgb(75.323486%, 75.323486%, 75.323486%)" offset="0.296875"/><stop stop-opacity="1" stop-color="rgb(75.596619%, 75.596619%, 75.596619%)" offset="0.304687"/><stop stop-opacity="1" stop-color="rgb(75.868225%, 75.868225%, 75.868225%)" offset="0.3125"/><stop stop-opacity="1" stop-color="rgb(76.141357%, 76.141357%, 76.141357%)" offset="0.320312"/><stop stop-opacity="1" stop-color="rgb(76.41449%, 76.41449%, 76.41449%)" offset="0.328125"/><stop stop-opacity="1" stop-color="rgb(76.686096%, 76.686096%, 76.686096%)" offset="0.335937"/><stop stop-opacity="1" stop-color="rgb(76.959229%, 76.959229%, 76.959229%)" offset="0.34375"/><stop stop-opacity="1" stop-color="rgb(77.232361%, 77.232361%, 77.232361%)" offset="0.351562"/><stop stop-opacity="1" stop-color="rgb(77.503967%, 77.503967%, 77.503967%)" offset="0.359375"/><stop stop-opacity="1" stop-color="rgb(77.7771%, 77.7771%, 77.7771%)" offset="0.367187"/><stop stop-opacity="1" stop-color="rgb(78.050232%, 78.050232%, 78.050232%)" offset="0.375"/><stop stop-opacity="1" stop-color="rgb(78.321838%, 78.321838%, 78.321838%)" offset="0.382812"/><stop stop-opacity="1" stop-color="rgb(78.594971%, 78.594971%, 78.594971%)" offset="0.390625"/><stop stop-opacity="1" stop-color="rgb(78.868103%, 78.868103%, 78.868103%)" offset="0.398438"/><stop stop-opacity="1" stop-color="rgb(79.141235%, 79.141235%, 79.141235%)" offset="0.40625"/><stop stop-opacity="1" stop-color="rgb(79.412842%, 79.412842%, 79.412842%)" offset="0.414062"/><stop stop-opacity="1" stop-color="rgb(79.685974%, 79.685974%, 79.685974%)" offset="0.421875"/><stop stop-opacity="1" stop-color="rgb(79.959106%, 79.959106%, 79.959106%)" offset="0.429688"/><stop stop-opacity="1" stop-color="rgb(80.230713%, 80.230713%, 80.230713%)" offset="0.4375"/><stop stop-opacity="1" stop-color="rgb(80.503845%, 80.503845%, 80.503845%)" offset="0.445312"/><stop stop-opacity="1" stop-color="rgb(80.776978%, 80.776978%, 80.776978%)" offset="0.453125"/><stop stop-opacity="1" stop-color="rgb(81.048584%, 81.048584%, 81.048584%)" offset="0.460938"/><stop stop-opacity="1" stop-color="rgb(81.321716%, 81.321716%, 81.321716%)" offset="0.46875"/><stop stop-opacity="1" stop-color="rgb(81.594849%, 81.594849%, 81.594849%)" offset="0.476562"/><stop stop-opacity="1" stop-color="rgb(81.866455%, 81.866455%, 81.866455%)" offset="0.484375"/><stop stop-opacity="1" stop-color="rgb(82.139587%, 82.139587%, 82.139587%)" offset="0.492188"/><stop stop-opacity="1" stop-color="rgb(82.41272%, 82.41272%, 82.41272%)" offset="0.5"/><stop stop-opacity="1" stop-color="rgb(82.684326%, 82.684326%, 82.684326%)" offset="0.507812"/><stop stop-opacity="1" stop-color="rgb(82.957458%, 82.957458%, 82.957458%)" offset="0.515625"/><stop stop-opacity="1" stop-color="rgb(83.230591%, 83.230591%, 83.230591%)" offset="0.523437"/><stop stop-opacity="1" stop-color="rgb(83.503723%, 83.503723%, 83.503723%)" offset="0.53125"/><stop stop-opacity="1" stop-color="rgb(83.77533%, 83.77533%, 83.77533%)" offset="0.539062"/><stop stop-opacity="1" stop-color="rgb(84.048462%, 84.048462%, 84.048462%)" offset="0.546875"/><stop stop-opacity="1" stop-color="rgb(84.321594%, 84.321594%, 84.321594%)" offset="0.554687"/><stop stop-opacity="1" stop-color="rgb(84.593201%, 84.593201%, 84.593201%)" offset="0.5625"/><stop stop-opacity="1" stop-color="rgb(84.866333%, 84.866333%, 84.866333%)" offset="0.570312"/><stop stop-opacity="1" stop-color="rgb(85.139465%, 85.139465%, 85.139465%)" offset="0.578125"/><stop stop-opacity="1" stop-color="rgb(85.411072%, 85.411072%, 85.411072%)" offset="0.585937"/><stop stop-opacity="1" stop-color="rgb(85.684204%, 85.684204%, 85.684204%)" offset="0.59375"/><stop stop-opacity="1" stop-color="rgb(85.957336%, 85.957336%, 85.957336%)" offset="0.601562"/><stop stop-opacity="1" stop-color="rgb(86.228943%, 86.228943%, 86.228943%)" offset="0.609375"/><stop stop-opacity="1" stop-color="rgb(86.502075%, 86.502075%, 86.502075%)" offset="0.617187"/><stop stop-opacity="1" stop-color="rgb(86.775208%, 86.775208%, 86.775208%)" offset="0.625"/><stop stop-opacity="1" stop-color="rgb(87.046814%, 87.046814%, 87.046814%)" offset="0.632812"/><stop stop-opacity="1" stop-color="rgb(87.319946%, 87.319946%, 87.319946%)" offset="0.640625"/><stop stop-opacity="1" stop-color="rgb(87.593079%, 87.593079%, 87.593079%)" offset="0.648437"/><stop stop-opacity="1" stop-color="rgb(87.866211%, 87.866211%, 87.866211%)" offset="0.65625"/><stop stop-opacity="1" stop-color="rgb(88.137817%, 88.137817%, 88.137817%)" offset="0.664062"/><stop stop-opacity="1" stop-color="rgb(88.41095%, 88.41095%, 88.41095%)" offset="0.671875"/><stop stop-opacity="1" stop-color="rgb(88.684082%, 88.684082%, 88.684082%)" offset="0.679687"/><stop stop-opacity="1" stop-color="rgb(88.955688%, 88.955688%, 88.955688%)" offset="0.6875"/><stop stop-opacity="1" stop-color="rgb(89.228821%, 89.228821%, 89.228821%)" offset="0.695312"/><stop stop-opacity="1" stop-color="rgb(89.501953%, 89.501953%, 89.501953%)" offset="0.703125"/><stop stop-opacity="1" stop-color="rgb(89.77356%, 89.77356%, 89.77356%)" offset="0.710937"/><stop stop-opacity="1" stop-color="rgb(90.046692%, 90.046692%, 90.046692%)" offset="0.71875"/><stop stop-opacity="1" stop-color="rgb(90.319824%, 90.319824%, 90.319824%)" offset="0.726562"/><stop stop-opacity="1" stop-color="rgb(90.591431%, 90.591431%, 90.591431%)" offset="0.734375"/><stop stop-opacity="1" stop-color="rgb(90.864563%, 90.864563%, 90.864563%)" offset="0.742187"/><stop stop-opacity="1" stop-color="rgb(91.137695%, 91.137695%, 91.137695%)" offset="0.75"/><stop stop-opacity="1" stop-color="rgb(91.409302%, 91.409302%, 91.409302%)" offset="0.757812"/><stop stop-opacity="1" stop-color="rgb(91.682434%, 91.682434%, 91.682434%)" offset="0.765625"/><stop stop-opacity="1" stop-color="rgb(91.955566%, 91.955566%, 91.955566%)" offset="0.773438"/><stop stop-opacity="1" stop-color="rgb(92.228699%, 92.228699%, 92.228699%)" offset="0.78125"/><stop stop-opacity="1" stop-color="rgb(92.500305%, 92.500305%, 92.500305%)" offset="0.789062"/><stop stop-opacity="1" stop-color="rgb(92.773438%, 92.773438%, 92.773438%)" offset="0.796875"/><stop stop-opacity="1" stop-color="rgb(93.04657%, 93.04657%, 93.04657%)" offset="0.804688"/><stop stop-opacity="1" stop-color="rgb(93.318176%, 93.318176%, 93.318176%)" offset="0.8125"/><stop stop-opacity="1" stop-color="rgb(93.591309%, 93.591309%, 93.591309%)" offset="0.820312"/><stop stop-opacity="1" stop-color="rgb(93.864441%, 93.864441%, 93.864441%)" offset="0.828125"/><stop stop-opacity="1" stop-color="rgb(94.136047%, 94.136047%, 94.136047%)" offset="0.835938"/><stop stop-opacity="1" stop-color="rgb(94.40918%, 94.40918%, 94.40918%)" offset="0.84375"/><stop stop-opacity="1" stop-color="rgb(94.682312%, 94.682312%, 94.682312%)" offset="0.851562"/><stop stop-opacity="1" stop-color="rgb(94.953918%, 94.953918%, 94.953918%)" offset="0.859375"/><stop stop-opacity="1" stop-color="rgb(95.227051%, 95.227051%, 95.227051%)" offset="0.867188"/><stop stop-opacity="1" stop-color="rgb(95.500183%, 95.500183%, 95.500183%)" offset="0.875"/><stop stop-opacity="1" stop-color="rgb(95.77179%, 95.77179%, 95.77179%)" offset="0.882812"/><stop stop-opacity="1" stop-color="rgb(96.044922%, 96.044922%, 96.044922%)" offset="0.890625"/><stop stop-opacity="1" stop-color="rgb(96.318054%, 96.318054%, 96.318054%)" offset="0.898438"/><stop stop-opacity="1" stop-color="rgb(96.591187%, 96.591187%, 96.591187%)" offset="0.90625"/><stop stop-opacity="1" stop-color="rgb(96.862793%, 96.862793%, 96.862793%)" offset="0.914062"/><stop stop-opacity="1" stop-color="rgb(97.135925%, 97.135925%, 97.135925%)" offset="0.921875"/><stop stop-opacity="1" stop-color="rgb(97.409058%, 97.409058%, 97.409058%)" offset="0.929688"/><stop stop-opacity="1" stop-color="rgb(97.680664%, 97.680664%, 97.680664%)" offset="0.9375"/><stop stop-opacity="1" stop-color="rgb(97.953796%, 97.953796%, 97.953796%)" offset="0.945312"/><stop stop-opacity="1" stop-color="rgb(98.226929%, 98.226929%, 98.226929%)" offset="0.953125"/><stop stop-opacity="1" stop-color="rgb(98.498535%, 98.498535%, 98.498535%)" offset="0.960938"/><stop stop-opacity="1" stop-color="rgb(98.771667%, 98.771667%, 98.771667%)" offset="0.96875"/><stop stop-opacity="1" stop-color="rgb(99.0448%, 99.0448%, 99.0448%)" offset="0.976562"/><stop stop-opacity="1" stop-color="rgb(99.316406%, 99.316406%, 99.316406%)" offset="0.984375"/><stop stop-opacity="1" stop-color="rgb(99.589539%, 99.589539%, 99.589539%)" offset="0.992188"/><stop stop-opacity="1" stop-color="rgb(99.862671%, 99.862671%, 99.862671%)" offset="1"/></linearGradient></defs><rect x="-37.5" width="450" fill="#ffffff" y="-37.499999" height="449.999989" fill-opacity="1"/><rect x="-37.5" fill="url(#623e202ed9)" width="450" y="-37.499999" height="449.999989"/><path fill="#000000" d="M 26.585938 258.214844 L 292.089844 46.25 C 296.726562 42.546875 302.644531 40.839844 308.542969 41.5 C 314.441406 42.160156 319.835938 45.136719 323.539062 49.777344 L 351.464844 84.753906 C 355.167969 89.394531 356.875 95.3125 356.214844 101.210938 C 355.554688 107.109375 352.574219 112.503906 347.9375 116.207031 L 82.433594 328.167969 C 72.773438 335.878906 58.695312 334.300781 50.984375 324.644531 L 23.058594 289.664062 C 15.347656 280.007812 16.925781 265.925781 26.585938 258.214844 Z M 26.585938 258.214844 " fill-opacity="1" fill-rule="nonzero"/><g fill="#ffffff" fill-opacity="1"><g transform="translate(66.14986, 315.56855)"><g><path d="M 10.484375 -20.140625 C 7.828125 -19.023438 6.375 -17.25 6.125 -14.8125 C 5.769531 -11.394531 5.023438 -9.46875 3.890625 -9.03125 C 3.296875 -8.78125 2.613281 -8.875 1.84375 -9.3125 C 1.082031 -9.757812 0.316406 -10.425781 -0.453125 -11.3125 C -1.234375 -12.195312 -2 -13.265625 -2.75 -14.515625 C -3.507812 -15.765625 -4.195312 -17.070312 -4.8125 -18.4375 C -5.375 -19.800781 -5.882812 -21.34375 -6.34375 -23.0625 C -6.8125 -24.78125 -7.144531 -26.421875 -7.34375 -27.984375 C -7.550781 -29.554688 -7.609375 -30.921875 -7.515625 -32.078125 C -7.429688 -33.242188 -7.109375 -33.941406 -6.546875 -34.171875 C -5.941406 -34.347656 -5.359375 -34.175781 -4.796875 -33.65625 C -4.234375 -33.132812 -3.671875 -32.5 -3.109375 -31.75 C -2.785156 -31.34375 -2.394531 -30.925781 -1.9375 -30.5 C -1.382812 -30 -0.832031 -29.609375 -0.28125 -29.328125 C 0.257812 -29.054688 0.832031 -28.894531 1.4375 -28.84375 C 2.050781 -28.789062 2.710938 -28.851562 3.421875 -29.03125 C 4.140625 -29.207031 4.921875 -29.519531 5.765625 -29.96875 C 6.203125 -30.207031 6.523438 -30.429688 6.734375 -30.640625 C 6.953125 -30.847656 7.085938 -31.046875 7.140625 -31.234375 C 7.191406 -31.429688 7.1875 -31.632812 7.125 -31.84375 C 7.0625 -32.0625 6.992188 -32.289062 6.921875 -32.53125 C 6.734375 -33.050781 6.488281 -33.609375 6.1875 -34.203125 C 5.894531 -34.804688 5.554688 -35.410156 5.171875 -36.015625 C 4.796875 -36.628906 4.394531 -37.238281 3.96875 -37.84375 C 3.550781 -38.445312 3.125 -39.003906 2.6875 -39.515625 C 2.300781 -39.941406 1.910156 -40.328125 1.515625 -40.671875 C 1.128906 -41.023438 0.703125 -41.3125 0.234375 -41.53125 C -0.222656 -41.757812 -0.734375 -41.9375 -1.296875 -42.0625 C -1.867188 -42.195312 -2.515625 -42.273438 -3.234375 -42.296875 C -3.921875 -42.234375 -4.664062 -42.113281 -5.46875 -41.9375 C -6.269531 -41.757812 -7.085938 -41.535156 -7.921875 -41.265625 C -8.753906 -40.992188 -9.578125 -40.671875 -10.390625 -40.296875 C -11.210938 -39.929688 -11.972656 -39.519531 -12.671875 -39.0625 C -13.578125 -38.457031 -14.421875 -37.632812 -15.203125 -36.59375 C -15.992188 -35.5625 -16.539062 -34.25 -16.84375 -32.65625 C -17.195312 -30.695312 -17.296875 -28.664062 -17.140625 -26.5625 C -16.984375 -24.46875 -16.625 -22.390625 -16.0625 -20.328125 C -15.507812 -18.273438 -14.773438 -16.296875 -13.859375 -14.390625 C -12.953125 -12.484375 -11.925781 -10.738281 -10.78125 -9.15625 C -9.644531 -7.582031 -8.421875 -6.222656 -7.109375 -5.078125 C -5.804688 -3.941406 -4.46875 -3.125 -3.09375 -2.625 C -2.238281 -2.257812 -1.3125 -2.082031 -0.3125 -2.09375 C 0.675781 -2.101562 1.582031 -2.234375 2.40625 -2.484375 C 3.269531 -2.796875 4.238281 -3.164062 5.3125 -3.59375 C 6.382812 -4.03125 7.488281 -4.640625 8.625 -5.421875 C 9.15625 -5.773438 9.671875 -6.191406 10.171875 -6.671875 C 10.671875 -7.148438 11.117188 -7.640625 11.515625 -8.140625 C 11.910156 -8.648438 12.253906 -9.171875 12.546875 -9.703125 C 12.847656 -10.242188 13.082031 -10.742188 13.25 -11.203125 C 13.519531 -12.160156 13.703125 -13.234375 13.796875 -14.421875 C 13.890625 -15.617188 13.8125 -16.789062 13.5625 -17.9375 C 13.394531 -18.957031 13.101562 -19.691406 12.6875 -20.140625 C 12.269531 -20.597656 11.535156 -20.597656 10.484375 -20.140625 Z M 10.484375 -20.140625 "/></g></g></g><g fill="#ffffff" fill-opacity="1"><g transform="translate(88.11583, 298.032081)"><g><path d="M -3.0625 -41.8125 C -4.320312 -41.8125 -5.710938 -41.554688 -7.234375 -41.046875 C -8.765625 -40.535156 -10.257812 -39.863281 -11.71875 -39.03125 C -12.863281 -38.40625 -13.859375 -37.488281 -14.703125 -36.28125 C -15.554688 -35.070312 -16.132812 -33.835938 -16.4375 -32.578125 C -16.8125 -30.609375 -16.929688 -28.617188 -16.796875 -26.609375 C -16.660156 -24.609375 -16.328125 -22.644531 -15.796875 -20.71875 C -15.265625 -18.789062 -14.554688 -16.9375 -13.671875 -15.15625 C -12.785156 -13.382812 -11.769531 -11.757812 -10.625 -10.28125 C -9.476562 -8.800781 -8.238281 -7.507812 -6.90625 -6.40625 C -5.582031 -5.300781 -4.222656 -4.441406 -2.828125 -3.828125 C -1.992188 -3.460938 -1.078125 -3.265625 -0.078125 -3.234375 C 0.921875 -3.210938 1.859375 -3.289062 2.734375 -3.46875 C 3.785156 -3.675781 4.84375 -4.046875 5.90625 -4.578125 C 6.976562 -5.117188 7.984375 -5.6875 8.921875 -6.28125 C 10.335938 -7.1875 11.453125 -8.160156 12.265625 -9.203125 C 13.078125 -10.242188 13.65625 -11.484375 14 -12.921875 C 14.394531 -15.179688 14.375 -17.53125 13.9375 -19.96875 C 13.5 -22.414062 12.773438 -24.816406 11.765625 -27.171875 C 10.765625 -29.535156 9.550781 -31.75 8.125 -33.8125 C 6.707031 -35.875 5.210938 -37.632812 3.640625 -39.09375 C 2.648438 -39.945312 1.640625 -40.609375 0.609375 -41.078125 C -0.410156 -41.546875 -1.632812 -41.789062 -3.0625 -41.8125 Z M -5.84375 -33.984375 C -5.28125 -34.210938 -4.566406 -34.007812 -3.703125 -33.375 C -2.847656 -32.738281 -1.96875 -31.847656 -1.0625 -30.703125 C -0.15625 -29.578125 0.71875 -28.296875 1.5625 -26.859375 C 2.40625 -25.429688 3.109375 -24.066406 3.671875 -22.765625 C 4.367188 -21.191406 4.925781 -19.664062 5.34375 -18.1875 C 5.757812 -16.707031 6.003906 -15.378906 6.078125 -14.203125 C 6.160156 -13.023438 6.082031 -12.046875 5.84375 -11.265625 C 5.613281 -10.492188 5.195312 -9.988281 4.59375 -9.75 C 3.9375 -9.5 3.1875 -9.617188 2.34375 -10.109375 C 1.507812 -10.597656 0.671875 -11.320312 -0.171875 -12.28125 C -1.015625 -13.238281 -1.820312 -14.347656 -2.59375 -15.609375 C -3.375 -16.867188 -4.035156 -18.160156 -4.578125 -19.484375 C -5.128906 -20.835938 -5.613281 -22.304688 -6.03125 -23.890625 C -6.457031 -25.472656 -6.757812 -26.976562 -6.9375 -28.40625 C -7.113281 -29.84375 -7.125 -31.078125 -6.96875 -32.109375 C -6.820312 -33.140625 -6.445312 -33.765625 -5.84375 -33.984375 Z M -5.84375 -33.984375 "/></g></g></g><g fill="#ffffff" fill-opacity="1"><g transform="translate(111.860975, 279.075214)"><g><path d="M -6.953125 -21.84375 C -4.796875 -19.832031 -2.644531 -17.921875 -0.5 -16.109375 C 1.632812 -14.304688 3.582031 -12.765625 5.34375 -11.484375 C 5.757812 -11.191406 6.117188 -10.957031 6.421875 -10.78125 C 6.734375 -10.613281 7.023438 -10.5 7.296875 -10.4375 C 7.566406 -10.375 7.832031 -10.363281 8.09375 -10.40625 C 8.363281 -10.457031 8.65625 -10.535156 8.96875 -10.640625 C 9.84375 -10.960938 10.804688 -11.394531 11.859375 -11.9375 C 12.210938 -12.113281 12.472656 -12.28125 12.640625 -12.4375 C 12.816406 -12.59375 12.9375 -12.75 13 -12.90625 C 13.0625 -13.0625 13.070312 -13.242188 13.03125 -13.453125 C 12.988281 -13.671875 12.925781 -13.953125 12.84375 -14.296875 C 12.570312 -15.378906 12.257812 -16.757812 11.90625 -18.4375 C 11.5625 -20.125 11.207031 -21.925781 10.84375 -23.84375 C 10.488281 -25.769531 10.140625 -27.734375 9.796875 -29.734375 C 9.453125 -31.734375 9.148438 -33.59375 8.890625 -35.3125 C 9.566406 -33.664062 10.3125 -31.992188 11.125 -30.296875 C 11.945312 -28.597656 12.742188 -26.984375 13.515625 -25.453125 C 14.285156 -23.921875 15.003906 -22.523438 15.671875 -21.265625 C 16.335938 -20.015625 16.894531 -19.015625 17.34375 -18.265625 C 17.6875 -17.609375 18.078125 -17.175781 18.515625 -16.96875 C 18.960938 -16.757812 19.554688 -16.738281 20.296875 -16.90625 C 20.878906 -17.007812 21.503906 -17.203125 22.171875 -17.484375 C 22.847656 -17.765625 23.492188 -18.054688 24.109375 -18.359375 C 24.816406 -18.691406 25.195312 -19.03125 25.25 -19.375 C 25.3125 -19.71875 25.257812 -20.164062 25.09375 -20.71875 C 24.632812 -21.65625 24.082031 -22.851562 23.4375 -24.3125 C 22.789062 -25.78125 22.09375 -27.390625 21.34375 -29.140625 C 20.601562 -30.898438 19.828125 -32.742188 19.015625 -34.671875 C 18.203125 -36.597656 17.40625 -38.503906 16.625 -40.390625 C 15.851562 -42.273438 15.128906 -44.085938 14.453125 -45.828125 C 13.773438 -47.566406 13.179688 -49.101562 12.671875 -50.4375 C 12.328125 -51.394531 11.898438 -52.015625 11.390625 -52.296875 C 10.878906 -52.585938 10.160156 -52.628906 9.234375 -52.421875 C 7.867188 -52.066406 6.53125 -51.644531 5.21875 -51.15625 C 3.90625 -50.675781 2.679688 -50.1875 1.546875 -49.6875 C 0.566406 -49.28125 -0.160156 -48.851562 -0.640625 -48.40625 C -1.117188 -47.957031 -1.421875 -47.390625 -1.546875 -46.703125 C -1.679688 -46.023438 -1.671875 -45.191406 -1.515625 -44.203125 C -1.359375 -43.210938 -1.125 -41.988281 -0.8125 -40.53125 C -0.613281 -39.195312 -0.382812 -37.789062 -0.125 -36.3125 C 0.132812 -34.84375 0.414062 -33.382812 0.71875 -31.9375 C 1.019531 -30.5 1.3125 -29.09375 1.59375 -27.71875 C 1.882812 -26.34375 2.179688 -25.097656 2.484375 -23.984375 C 0.234375 -26.046875 -1.523438 -27.664062 -2.796875 -28.84375 C -4.078125 -30.019531 -5.0625 -30.9375 -5.75 -31.59375 C -6.4375 -32.25 -6.910156 -32.707031 -7.171875 -32.96875 C -7.429688 -33.226562 -7.644531 -33.457031 -7.8125 -33.65625 C -8.257812 -34.007812 -8.65625 -34.320312 -9 -34.59375 C -9.34375 -34.875 -9.722656 -35.082031 -10.140625 -35.21875 C -10.554688 -35.363281 -11.019531 -35.425781 -11.53125 -35.40625 C -12.039062 -35.394531 -12.648438 -35.269531 -13.359375 -35.03125 C -14.484375 -34.675781 -15.5625 -34.269531 -16.59375 -33.8125 C -17.632812 -33.363281 -18.84375 -32.734375 -20.21875 -31.921875 C -21.113281 -31.398438 -21.671875 -30.890625 -21.890625 -30.390625 C -22.109375 -29.898438 -22.003906 -29.1875 -21.578125 -28.25 C -20.953125 -27.019531 -20.179688 -25.613281 -19.265625 -24.03125 C -18.359375 -22.457031 -17.382812 -20.796875 -16.34375 -19.046875 C -15.3125 -17.296875 -14.238281 -15.535156 -13.125 -13.765625 C -12.019531 -12.003906 -10.9375 -10.3125 -9.875 -8.6875 C -8.820312 -7.0625 -7.820312 -5.570312 -6.875 -4.21875 C -5.9375 -2.875 -5.113281 -1.757812 -4.40625 -0.875 C -3.96875 -0.238281 -3.515625 0.15625 -3.046875 0.3125 C -2.585938 0.46875 -1.96875 0.453125 -1.1875 0.265625 C -0.550781 0.128906 0.0976562 -0.0664062 0.765625 -0.328125 C 1.441406 -0.585938 2.085938 -0.867188 2.703125 -1.171875 C 3.347656 -1.484375 3.722656 -1.78125 3.828125 -2.0625 C 3.929688 -2.351562 3.863281 -2.742188 3.625 -3.234375 C 2.945312 -4.285156 2.1875 -5.507812 1.34375 -6.90625 C 0.507812 -8.300781 -0.363281 -9.804688 -1.28125 -11.421875 C -2.195312 -13.035156 -3.132812 -14.726562 -4.09375 -16.5 C -5.0625 -18.269531 -6.015625 -20.050781 -6.953125 -21.84375 Z M -6.953125 -21.84375 "/></g></g></g><g fill="#ffffff" fill-opacity="1"><g transform="translate(143.475551, 253.835809)"><g><path d="M -12.828125 -34.25 C -13.765625 -34.164062 -14.789062 -33.976562 -15.90625 -33.6875 C -17.03125 -33.394531 -18.015625 -33.050781 -18.859375 -32.65625 C -19.722656 -32.320312 -20.269531 -31.9375 -20.5 -31.5 C -20.738281 -31.0625 -20.703125 -30.4375 -20.390625 -29.625 C -19.773438 -28.332031 -19.046875 -26.859375 -18.203125 -25.203125 C -17.367188 -23.546875 -16.457031 -21.804688 -15.46875 -19.984375 C -14.488281 -18.160156 -13.46875 -16.304688 -12.40625 -14.421875 C -11.34375 -12.535156 -10.320312 -10.753906 -9.34375 -9.078125 C -8.363281 -7.398438 -7.441406 -5.867188 -6.578125 -4.484375 C -5.710938 -3.097656 -4.984375 -1.984375 -4.390625 -1.140625 C -3.984375 -0.492188 -3.5625 -0.078125 -3.125 0.109375 C -2.6875 0.304688 -2.109375 0.316406 -1.390625 0.140625 C -0.710938 0.0234375 -0.0390625 -0.164062 0.625 -0.4375 C 1.289062 -0.71875 1.984375 -1.007812 2.703125 -1.3125 C 3.410156 -1.65625 3.8125 -1.957031 3.90625 -2.21875 C 4.007812 -2.488281 3.960938 -2.863281 3.765625 -3.34375 C 3.148438 -4.53125 2.460938 -5.890625 1.703125 -7.421875 C 0.941406 -8.960938 0.144531 -10.609375 -0.6875 -12.359375 C -1.519531 -14.109375 -2.367188 -15.898438 -3.234375 -17.734375 C -4.097656 -19.566406 -4.925781 -21.367188 -5.71875 -23.140625 C -6.507812 -24.910156 -7.25 -26.601562 -7.9375 -28.21875 C -8.625 -29.84375 -9.210938 -31.289062 -9.703125 -32.5625 C -10.035156 -33.320312 -10.394531 -33.8125 -10.78125 -34.03125 C -11.164062 -34.25 -11.847656 -34.320312 -12.828125 -34.25 Z M -12.828125 -34.25 "/></g></g></g><g fill="#ffffff" fill-opacity="1"><g transform="translate(154.150606, 245.31341)"><g><path d="M 4.484375 -21.890625 C 3.304688 -22.859375 2.082031 -23.875 0.8125 -24.9375 C -0.445312 -26.007812 -1.664062 -27.050781 -2.84375 -28.0625 C -4.03125 -29.070312 -5.125 -30.019531 -6.125 -30.90625 C -7.132812 -31.789062 -7.960938 -32.515625 -8.609375 -33.078125 C -9.429688 -33.828125 -10.164062 -34.304688 -10.8125 -34.515625 C -11.46875 -34.734375 -12.265625 -34.707031 -13.203125 -34.4375 C -14.398438 -34.144531 -15.5 -33.804688 -16.5 -33.421875 C -17.5 -33.046875 -18.519531 -32.644531 -19.5625 -32.21875 C -20.414062 -31.832031 -20.976562 -31.390625 -21.25 -30.890625 C -21.53125 -30.390625 -21.472656 -29.738281 -21.078125 -28.9375 C -20.390625 -27.5625 -19.5625 -26.003906 -18.59375 -24.265625 C -17.632812 -22.523438 -16.628906 -20.734375 -15.578125 -18.890625 C -14.523438 -17.046875 -13.441406 -15.207031 -12.328125 -13.375 C -11.222656 -11.550781 -10.175781 -9.84375 -9.1875 -8.25 C -8.207031 -6.664062 -7.3125 -5.265625 -6.5 -4.046875 C -5.695312 -2.828125 -5.070312 -1.890625 -4.625 -1.234375 C -4.207031 -0.609375 -3.773438 -0.195312 -3.328125 0 C -2.890625 0.195312 -2.328125 0.21875 -1.640625 0.0625 C -0.859375 -0.03125 -0.128906 -0.226562 0.546875 -0.53125 C 1.234375 -0.832031 1.90625 -1.128906 2.5625 -1.421875 C 3.28125 -1.742188 3.703125 -2.035156 3.828125 -2.296875 C 3.953125 -2.554688 3.898438 -2.914062 3.671875 -3.375 C 3.128906 -4.289062 2.515625 -5.378906 1.828125 -6.640625 C 1.148438 -7.910156 0.414062 -9.285156 -0.375 -10.765625 C -1.164062 -12.242188 -1.992188 -13.789062 -2.859375 -15.40625 C -3.734375 -17.03125 -4.609375 -18.65625 -5.484375 -20.28125 C -4.234375 -19.320312 -2.96875 -18.390625 -1.6875 -17.484375 C -0.40625 -16.585938 0.832031 -15.734375 2.03125 -14.921875 C 3.238281 -14.117188 4.378906 -13.378906 5.453125 -12.703125 C 6.535156 -12.035156 7.515625 -11.476562 8.390625 -11.03125 C 9.597656 -10.363281 10.851562 -10.242188 12.15625 -10.671875 C 13.5625 -11.148438 14.875 -11.703125 16.09375 -12.328125 C 17.539062 -13.046875 17.984375 -13.894531 17.421875 -14.875 C 16.515625 -16.757812 15.476562 -18.957031 14.3125 -21.46875 C 13.144531 -23.988281 11.953125 -26.582031 10.734375 -29.25 C 9.523438 -31.914062 8.347656 -34.546875 7.203125 -37.140625 C 6.066406 -39.734375 5.085938 -42.082031 4.265625 -44.1875 C 3.984375 -44.925781 3.628906 -45.472656 3.203125 -45.828125 C 2.785156 -46.191406 2.085938 -46.316406 1.109375 -46.203125 C 0.503906 -46.140625 -0.00390625 -46.066406 -0.421875 -45.984375 C -0.847656 -45.910156 -1.238281 -45.828125 -1.59375 -45.734375 C -1.945312 -45.640625 -2.285156 -45.519531 -2.609375 -45.375 C -2.929688 -45.226562 -3.300781 -45.0625 -3.71875 -44.875 C -4.59375 -44.46875 -5.15625 -44.035156 -5.40625 -43.578125 C -5.65625 -43.117188 -5.609375 -42.488281 -5.265625 -41.6875 C -3.972656 -38.71875 -2.503906 -35.515625 -0.859375 -32.078125 C 0.773438 -28.640625 2.554688 -25.242188 4.484375 -21.890625 Z M 4.484375 -21.890625 "/></g></g></g><g fill="#ffffff" fill-opacity="1"><g transform="translate(178.169477, 226.138014)"><g><path d="M 7.265625 -32.5625 C 7.078125 -33.019531 6.800781 -33.550781 6.4375 -34.15625 C 6.070312 -34.769531 5.679688 -35.390625 5.265625 -36.015625 C 4.859375 -36.648438 4.421875 -37.269531 3.953125 -37.875 C 3.492188 -38.488281 3.0625 -39.023438 2.65625 -39.484375 C 1.8125 -40.304688 0.9375 -40.953125 0.03125 -41.421875 C -0.863281 -41.898438 -1.945312 -42.132812 -3.21875 -42.125 C -3.894531 -42.144531 -4.601562 -42.09375 -5.34375 -41.96875 C -6.09375 -41.84375 -6.84375 -41.65625 -7.59375 -41.40625 C -8.351562 -41.15625 -9.101562 -40.867188 -9.84375 -40.546875 C -10.59375 -40.222656 -11.289062 -39.851562 -11.9375 -39.4375 C -12.40625 -39.164062 -12.875 -38.84375 -13.34375 -38.46875 C -13.820312 -38.082031 -14.28125 -37.660156 -14.71875 -37.203125 C -15.164062 -36.753906 -15.550781 -36.242188 -15.875 -35.671875 C -16.207031 -35.109375 -16.453125 -34.5 -16.609375 -33.84375 C -17.148438 -31.894531 -17.394531 -29.851562 -17.34375 -27.71875 C -17.300781 -25.59375 -17.039062 -23.472656 -16.5625 -21.359375 C -16.09375 -19.253906 -15.4375 -17.222656 -14.59375 -15.265625 C -13.75 -13.304688 -12.765625 -11.503906 -11.640625 -9.859375 C -10.515625 -8.222656 -9.285156 -6.804688 -7.953125 -5.609375 C -6.628906 -4.410156 -5.257812 -3.535156 -3.84375 -2.984375 C -3.019531 -2.597656 -2.109375 -2.359375 -1.109375 -2.265625 C -0.117188 -2.179688 0.796875 -2.210938 1.640625 -2.359375 C 3.878906 -2.972656 5.972656 -3.863281 7.921875 -5.03125 C 9.035156 -5.695312 9.988281 -6.46875 10.78125 -7.34375 C 11.570312 -8.21875 12.195312 -9.210938 12.65625 -10.328125 C 13.320312 -12.097656 13.648438 -14.117188 13.640625 -16.390625 C 13.628906 -18.660156 13.226562 -21.15625 12.4375 -23.875 C 12.15625 -24.632812 11.847656 -25.210938 11.515625 -25.609375 C 11.179688 -26.003906 10.609375 -26.3125 9.796875 -26.53125 C 9.367188 -26.632812 8.90625 -26.75 8.40625 -26.875 C 7.914062 -27.007812 7.421875 -27.113281 6.921875 -27.1875 C 6.140625 -27.320312 5.457031 -27.257812 4.875 -27 C 4.300781 -26.75 3.671875 -26.253906 2.984375 -25.515625 C 2.410156 -24.867188 1.707031 -24.128906 0.875 -23.296875 C 0.0390625 -22.472656 -0.722656 -21.640625 -1.421875 -20.796875 C -1.816406 -20.347656 -2.171875 -19.953125 -2.484375 -19.609375 C -2.796875 -19.265625 -3.039062 -18.9375 -3.21875 -18.625 C -3.394531 -18.320312 -3.460938 -18.046875 -3.421875 -17.796875 C -3.390625 -17.546875 -3.210938 -17.304688 -2.890625 -17.078125 C -1.410156 -16.128906 -0.0820312 -15.675781 1.09375 -15.71875 C 2.269531 -15.757812 3.507812 -16.363281 4.8125 -17.53125 C 5.0625 -16.488281 5.238281 -15.476562 5.34375 -14.5 C 5.445312 -13.53125 5.460938 -12.640625 5.390625 -11.828125 C 5.328125 -11.015625 5.15625 -10.328125 4.875 -9.765625 C 4.59375 -9.210938 4.195312 -8.847656 3.6875 -8.671875 C 3.082031 -8.429688 2.363281 -8.546875 1.53125 -9.015625 C 0.695312 -9.492188 -0.128906 -10.207031 -0.953125 -11.15625 C -1.785156 -12.101562 -2.578125 -13.21875 -3.328125 -14.5 C -4.078125 -15.789062 -4.691406 -17.144531 -5.171875 -18.5625 C -5.835938 -20.269531 -6.367188 -22 -6.765625 -23.75 C -7.160156 -25.507812 -7.414062 -27.128906 -7.53125 -28.609375 C -7.644531 -30.085938 -7.59375 -31.332031 -7.375 -32.34375 C -7.15625 -33.351562 -6.765625 -33.976562 -6.203125 -34.21875 C -5.921875 -34.320312 -5.617188 -34.257812 -5.296875 -34.03125 C -4.972656 -33.800781 -4.597656 -33.503906 -4.171875 -33.140625 C -3.960938 -32.941406 -3.753906 -32.734375 -3.546875 -32.515625 C -3.347656 -32.304688 -3.144531 -32.078125 -2.9375 -31.828125 C -2.757812 -31.546875 -2.578125 -31.300781 -2.390625 -31.09375 C -2.210938 -30.894531 -2.007812 -30.695312 -1.78125 -30.5 C -0.738281 -29.425781 0.429688 -28.832031 1.734375 -28.71875 C 3.035156 -28.613281 4.582031 -29.078125 6.375 -30.109375 C 6.976562 -30.535156 7.332031 -30.90625 7.4375 -31.21875 C 7.539062 -31.539062 7.484375 -31.988281 7.265625 -32.5625 Z M 7.265625 -32.5625 "/></g></g></g><g fill="#ffffff" fill-opacity="1"><g transform="translate(200.853963, 208.02792)"><g/></g></g><g fill="#ffffff" fill-opacity="1"><g transform="translate(213.205547, 198.167069)"><g><path d="M -8.359375 -4.640625 C -8.648438 -4.023438 -8.609375 -3.523438 -8.234375 -3.140625 C -7.816406 -2.710938 -6.769531 -2.476562 -5.09375 -2.4375 C -1.851562 -2.1875 0.921875 -2.398438 3.234375 -3.078125 C 5.546875 -3.765625 7.601562 -4.867188 9.40625 -6.390625 C 10.757812 -7.515625 11.796875 -8.625 12.515625 -9.71875 C 13.242188 -10.820312 13.757812 -11.882812 14.0625 -12.90625 C 14.363281 -13.9375 14.492188 -14.894531 14.453125 -15.78125 C 14.421875 -16.664062 14.328125 -17.4375 14.171875 -18.09375 C 13.992188 -19.082031 13.601562 -19.820312 13 -20.3125 C 12.40625 -20.800781 11.660156 -21.125 10.765625 -21.28125 C 9.867188 -21.445312 8.851562 -21.5 7.71875 -21.4375 C 6.59375 -21.375 5.414062 -21.28125 4.1875 -21.15625 C 2.957031 -21.03125 1.707031 -20.921875 0.4375 -20.828125 C -0.820312 -20.734375 -2.039062 -20.738281 -3.21875 -20.84375 C -4.113281 -20.90625 -4.867188 -21.1875 -5.484375 -21.6875 C -6.109375 -22.1875 -6.613281 -22.796875 -7 -23.515625 C -7.394531 -24.234375 -7.675781 -25.023438 -7.84375 -25.890625 C -8.019531 -26.765625 -8.109375 -27.640625 -8.109375 -28.515625 C -8.117188 -29.390625 -8.054688 -30.222656 -7.921875 -31.015625 C -7.785156 -31.804688 -7.609375 -32.460938 -7.390625 -32.984375 C -7.222656 -33.640625 -7.015625 -34.019531 -6.765625 -34.125 C -6.523438 -34.226562 -6.273438 -34.148438 -6.015625 -33.890625 C -5.753906 -33.628906 -5.476562 -33.222656 -5.1875 -32.671875 C -4.894531 -32.117188 -4.59375 -31.519531 -4.28125 -30.875 C -3.976562 -30.238281 -3.679688 -29.609375 -3.390625 -28.984375 C -3.097656 -28.359375 -2.8125 -27.828125 -2.53125 -27.390625 C -1.21875 -25.222656 1.421875 -24.863281 5.390625 -26.3125 C 6.148438 -26.507812 6.625 -26.785156 6.8125 -27.140625 C 7 -27.492188 7.046875 -28.003906 6.953125 -28.671875 C 6.816406 -29.359375 6.585938 -30.148438 6.265625 -31.046875 C 5.941406 -31.953125 5.578125 -32.878906 5.171875 -33.828125 C 4.773438 -34.773438 4.359375 -35.6875 3.921875 -36.5625 C 3.484375 -37.445312 3.066406 -38.222656 2.671875 -38.890625 C 2.398438 -39.234375 2.097656 -39.597656 1.765625 -39.984375 C 1.441406 -40.378906 1.0625 -40.738281 0.625 -41.0625 C 0.195312 -41.394531 -0.3125 -41.675781 -0.90625 -41.90625 C -1.507812 -42.132812 -2.210938 -42.285156 -3.015625 -42.359375 C -4.234375 -42.429688 -5.578125 -42.328125 -7.046875 -42.046875 C -8.523438 -41.765625 -9.921875 -41.394531 -11.234375 -40.9375 C -12.078125 -40.601562 -12.832031 -40.195312 -13.5 -39.71875 C -14.164062 -39.238281 -14.738281 -38.734375 -15.21875 -38.203125 C -15.695312 -37.679688 -16.070312 -37.148438 -16.34375 -36.609375 C -16.625 -36.066406 -16.816406 -35.585938 -16.921875 -35.171875 C -17.347656 -33.960938 -17.671875 -32.664062 -17.890625 -31.28125 C -18.109375 -29.894531 -18.210938 -28.503906 -18.203125 -27.109375 C -18.191406 -25.722656 -18.066406 -24.378906 -17.828125 -23.078125 C -17.585938 -21.773438 -17.242188 -20.628906 -16.796875 -19.640625 C -16.347656 -18.472656 -15.773438 -17.472656 -15.078125 -16.640625 C -14.378906 -15.816406 -13.59375 -15.140625 -12.71875 -14.609375 C -11.851562 -14.078125 -10.910156 -13.679688 -9.890625 -13.421875 C -8.878906 -13.160156 -7.859375 -13.035156 -6.828125 -13.046875 C -5.867188 -13.015625 -4.847656 -13.046875 -3.765625 -13.140625 C -2.691406 -13.242188 -1.625 -13.359375 -0.5625 -13.484375 C 0.488281 -13.609375 1.488281 -13.71875 2.4375 -13.8125 C 3.394531 -13.914062 4.21875 -13.960938 4.90625 -13.953125 C 5.601562 -13.941406 6.128906 -13.863281 6.484375 -13.71875 C 6.847656 -13.582031 6.960938 -13.3125 6.828125 -12.90625 C 6.617188 -11.875 5.65625 -10.953125 3.9375 -10.140625 C 2.226562 -9.335938 -0.078125 -8.769531 -2.984375 -8.4375 C -3.503906 -8.394531 -4.023438 -8.265625 -4.546875 -8.046875 C -5.066406 -7.835938 -5.5625 -7.5625 -6.03125 -7.21875 C -6.507812 -6.875 -6.945312 -6.484375 -7.34375 -6.046875 C -7.75 -5.617188 -8.085938 -5.148438 -8.359375 -4.640625 Z M -8.359375 -4.640625 "/></g></g></g><g fill="#ffffff" fill-opacity="1"><g transform="translate(233.768697, 181.750538)"><g><path d="M -3.0625 -41.8125 C -4.320312 -41.8125 -5.710938 -41.554688 -7.234375 -41.046875 C -8.765625 -40.535156 -10.257812 -39.863281 -11.71875 -39.03125 C -12.863281 -38.40625 -13.859375 -37.488281 -14.703125 -36.28125 C -15.554688 -35.070312 -16.132812 -33.835938 -16.4375 -32.578125 C -16.8125 -30.609375 -16.929688 -28.617188 -16.796875 -26.609375 C -16.660156 -24.609375 -16.328125 -22.644531 -15.796875 -20.71875 C -15.265625 -18.789062 -14.554688 -16.9375 -13.671875 -15.15625 C -12.785156 -13.382812 -11.769531 -11.757812 -10.625 -10.28125 C -9.476562 -8.800781 -8.238281 -7.507812 -6.90625 -6.40625 C -5.582031 -5.300781 -4.222656 -4.441406 -2.828125 -3.828125 C -1.992188 -3.460938 -1.078125 -3.265625 -0.078125 -3.234375 C 0.921875 -3.210938 1.859375 -3.289062 2.734375 -3.46875 C 3.785156 -3.675781 4.84375 -4.046875 5.90625 -4.578125 C 6.976562 -5.117188 7.984375 -5.6875 8.921875 -6.28125 C 10.335938 -7.1875 11.453125 -8.160156 12.265625 -9.203125 C 13.078125 -10.242188 13.65625 -11.484375 14 -12.921875 C 14.394531 -15.179688 14.375 -17.53125 13.9375 -19.96875 C 13.5 -22.414062 12.773438 -24.816406 11.765625 -27.171875 C 10.765625 -29.535156 9.550781 -31.75 8.125 -33.8125 C 6.707031 -35.875 5.210938 -37.632812 3.640625 -39.09375 C 2.648438 -39.945312 1.640625 -40.609375 0.609375 -41.078125 C -0.410156 -41.546875 -1.632812 -41.789062 -3.0625 -41.8125 Z M -5.84375 -33.984375 C -5.28125 -34.210938 -4.566406 -34.007812 -3.703125 -33.375 C -2.847656 -32.738281 -1.96875 -31.847656 -1.0625 -30.703125 C -0.15625 -29.578125 0.71875 -28.296875 1.5625 -26.859375 C 2.40625 -25.429688 3.109375 -24.066406 3.671875 -22.765625 C 4.367188 -21.191406 4.925781 -19.664062 5.34375 -18.1875 C 5.757812 -16.707031 6.003906 -15.378906 6.078125 -14.203125 C 6.160156 -13.023438 6.082031 -12.046875 5.84375 -11.265625 C 5.613281 -10.492188 5.195312 -9.988281 4.59375 -9.75 C 3.9375 -9.5 3.1875 -9.617188 2.34375 -10.109375 C 1.507812 -10.597656 0.671875 -11.320312 -0.171875 -12.28125 C -1.015625 -13.238281 -1.820312 -14.347656 -2.59375 -15.609375 C -3.375 -16.867188 -4.035156 -18.160156 -4.578125 -19.484375 C -5.128906 -20.835938 -5.613281 -22.304688 -6.03125 -23.890625 C -6.457031 -25.472656 -6.757812 -26.976562 -6.9375 -28.40625 C -7.113281 -29.84375 -7.125 -31.078125 -6.96875 -32.109375 C -6.820312 -33.140625 -6.445312 -33.765625 -5.84375 -33.984375 Z M -5.84375 -33.984375 "/></g></g></g><g fill="#ffffff" fill-opacity="1"><g transform="translate(257.513833, 162.793678)"><g><path d="M -3.0625 -41.8125 C -4.320312 -41.8125 -5.710938 -41.554688 -7.234375 -41.046875 C -8.765625 -40.535156 -10.257812 -39.863281 -11.71875 -39.03125 C -12.863281 -38.40625 -13.859375 -37.488281 -14.703125 -36.28125 C -15.554688 -35.070312 -16.132812 -33.835938 -16.4375 -32.578125 C -16.8125 -30.609375 -16.929688 -28.617188 -16.796875 -26.609375 C -16.660156 -24.609375 -16.328125 -22.644531 -15.796875 -20.71875 C -15.265625 -18.789062 -14.554688 -16.9375 -13.671875 -15.15625 C -12.785156 -13.382812 -11.769531 -11.757812 -10.625 -10.28125 C -9.476562 -8.800781 -8.238281 -7.507812 -6.90625 -6.40625 C -5.582031 -5.300781 -4.222656 -4.441406 -2.828125 -3.828125 C -1.992188 -3.460938 -1.078125 -3.265625 -0.078125 -3.234375 C 0.921875 -3.210938 1.859375 -3.289062 2.734375 -3.46875 C 3.785156 -3.675781 4.84375 -4.046875 5.90625 -4.578125 C 6.976562 -5.117188 7.984375 -5.6875 8.921875 -6.28125 C 10.335938 -7.1875 11.453125 -8.160156 12.265625 -9.203125 C 13.078125 -10.242188 13.65625 -11.484375 14 -12.921875 C 14.394531 -15.179688 14.375 -17.53125 13.9375 -19.96875 C 13.5 -22.414062 12.773438 -24.816406 11.765625 -27.171875 C 10.765625 -29.535156 9.550781 -31.75 8.125 -33.8125 C 6.707031 -35.875 5.210938 -37.632812 3.640625 -39.09375 C 2.648438 -39.945312 1.640625 -40.609375 0.609375 -41.078125 C -0.410156 -41.546875 -1.632812 -41.789062 -3.0625 -41.8125 Z M -5.84375 -33.984375 C -5.28125 -34.210938 -4.566406 -34.007812 -3.703125 -33.375 C -2.847656 -32.738281 -1.96875 -31.847656 -1.0625 -30.703125 C -0.15625 -29.578125 0.71875 -28.296875 1.5625 -26.859375 C 2.40625 -25.429688 3.109375 -24.066406 3.671875 -22.765625 C 4.367188 -21.191406 4.925781 -19.664062 5.34375 -18.1875 C 5.757812 -16.707031 6.003906 -15.378906 6.078125 -14.203125 C 6.160156 -13.023438 6.082031 -12.046875 5.84375 -11.265625 C 5.613281 -10.492188 5.195312 -9.988281 4.59375 -9.75 C 3.9375 -9.5 3.1875 -9.617188 2.34375 -10.109375 C 1.507812 -10.597656 0.671875 -11.320312 -0.171875 -12.28125 C -1.015625 -13.238281 -1.820312 -14.347656 -2.59375 -15.609375 C -3.375 -16.867188 -4.035156 -18.160156 -4.578125 -19.484375 C -5.128906 -20.835938 -5.613281 -22.304688 -6.03125 -23.890625 C -6.457031 -25.472656 -6.757812 -26.976562 -6.9375 -28.40625 C -7.113281 -29.84375 -7.125 -31.078125 -6.96875 -32.109375 C -6.820312 -33.140625 -6.445312 -33.765625 -5.84375 -33.984375 Z M -5.84375 -33.984375 "/></g></g></g><g fill="#ffffff" fill-opacity="1"><g transform="translate(281.258969, 143.836817)"><g><path d="M 4.484375 -21.890625 C 3.304688 -22.859375 2.082031 -23.875 0.8125 -24.9375 C -0.445312 -26.007812 -1.664062 -27.050781 -2.84375 -28.0625 C -4.03125 -29.070312 -5.125 -30.019531 -6.125 -30.90625 C -7.132812 -31.789062 -7.960938 -32.515625 -8.609375 -33.078125 C -9.429688 -33.828125 -10.164062 -34.304688 -10.8125 -34.515625 C -11.46875 -34.734375 -12.265625 -34.707031 -13.203125 -34.4375 C -14.398438 -34.144531 -15.5 -33.804688 -16.5 -33.421875 C -17.5 -33.046875 -18.519531 -32.644531 -19.5625 -32.21875 C -20.414062 -31.832031 -20.976562 -31.390625 -21.25 -30.890625 C -21.53125 -30.390625 -21.472656 -29.738281 -21.078125 -28.9375 C -20.390625 -27.5625 -19.5625 -26.003906 -18.59375 -24.265625 C -17.632812 -22.523438 -16.628906 -20.734375 -15.578125 -18.890625 C -14.523438 -17.046875 -13.441406 -15.207031 -12.328125 -13.375 C -11.222656 -11.550781 -10.175781 -9.84375 -9.1875 -8.25 C -8.207031 -6.664062 -7.3125 -5.265625 -6.5 -4.046875 C -5.695312 -2.828125 -5.070312 -1.890625 -4.625 -1.234375 C -4.207031 -0.609375 -3.773438 -0.195312 -3.328125 0 C -2.890625 0.195312 -2.328125 0.21875 -1.640625 0.0625 C -0.859375 -0.03125 -0.128906 -0.226562 0.546875 -0.53125 C 1.234375 -0.832031 1.90625 -1.128906 2.5625 -1.421875 C 3.28125 -1.742188 3.703125 -2.035156 3.828125 -2.296875 C 3.953125 -2.554688 3.898438 -2.914062 3.671875 -3.375 C 3.128906 -4.289062 2.515625 -5.378906 1.828125 -6.640625 C 1.148438 -7.910156 0.414062 -9.285156 -0.375 -10.765625 C -1.164062 -12.242188 -1.992188 -13.789062 -2.859375 -15.40625 C -3.734375 -17.03125 -4.609375 -18.65625 -5.484375 -20.28125 C -4.234375 -19.320312 -2.96875 -18.390625 -1.6875 -17.484375 C -0.40625 -16.585938 0.832031 -15.734375 2.03125 -14.921875 C 3.238281 -14.117188 4.378906 -13.378906 5.453125 -12.703125 C 6.535156 -12.035156 7.515625 -11.476562 8.390625 -11.03125 C 9.597656 -10.363281 10.851562 -10.242188 12.15625 -10.671875 C 13.5625 -11.148438 14.875 -11.703125 16.09375 -12.328125 C 17.539062 -13.046875 17.984375 -13.894531 17.421875 -14.875 C 16.515625 -16.757812 15.476562 -18.957031 14.3125 -21.46875 C 13.144531 -23.988281 11.953125 -26.582031 10.734375 -29.25 C 9.523438 -31.914062 8.347656 -34.546875 7.203125 -37.140625 C 6.066406 -39.734375 5.085938 -42.082031 4.265625 -44.1875 C 3.984375 -44.925781 3.628906 -45.472656 3.203125 -45.828125 C 2.785156 -46.191406 2.085938 -46.316406 1.109375 -46.203125 C 0.503906 -46.140625 -0.00390625 -46.066406 -0.421875 -45.984375 C -0.847656 -45.910156 -1.238281 -45.828125 -1.59375 -45.734375 C -1.945312 -45.640625 -2.285156 -45.519531 -2.609375 -45.375 C -2.929688 -45.226562 -3.300781 -45.0625 -3.71875 -44.875 C -4.59375 -44.46875 -5.15625 -44.035156 -5.40625 -43.578125 C -5.65625 -43.117188 -5.609375 -42.488281 -5.265625 -41.6875 C -3.972656 -38.71875 -2.503906 -35.515625 -0.859375 -32.078125 C 0.773438 -28.640625 2.554688 -25.242188 4.484375 -21.890625 Z M 4.484375 -21.890625 "/></g></g></g><g fill="#ffffff" fill-opacity="1"><g transform="translate(305.27785, 124.661414)"><g><path d="M -3.03125 -1.6875 C -2.625 -1.132812 -2.160156 -0.71875 -1.640625 -0.4375 C -1.117188 -0.164062 -0.570312 -0.0195312 0 0 C 0.5625 0.0078125 1.140625 -0.09375 1.734375 -0.3125 C 2.335938 -0.53125 2.890625 -0.859375 3.390625 -1.296875 C 3.890625 -1.703125 4.273438 -2.15625 4.546875 -2.65625 C 4.816406 -3.15625 5.003906 -3.640625 5.109375 -4.109375 C 5.222656 -4.585938 5.257812 -5.035156 5.21875 -5.453125 C 5.1875 -5.878906 5.125 -6.21875 5.03125 -6.46875 C 4.875 -6.90625 4.664062 -7.285156 4.40625 -7.609375 C 4.007812 -8.148438 3.382812 -8.519531 2.53125 -8.71875 C 1.6875 -8.914062 0.675781 -8.789062 -0.5 -8.34375 C -1.351562 -7.957031 -2.03125 -7.492188 -2.53125 -6.953125 C -3.03125 -6.410156 -3.367188 -5.832031 -3.546875 -5.21875 C -3.734375 -4.601562 -3.78125 -3.984375 -3.6875 -3.359375 C -3.59375 -2.734375 -3.375 -2.175781 -3.03125 -1.6875 Z M -3.03125 -1.6875 "/></g></g></g><g fill="#ffffff" fill-opacity="1"><g transform="translate(316.602984, 115.620026)"><g><path d="M -3.03125 -1.6875 C -2.625 -1.132812 -2.160156 -0.71875 -1.640625 -0.4375 C -1.117188 -0.164062 -0.570312 -0.0195312 0 0 C 0.5625 0.0078125 1.140625 -0.09375 1.734375 -0.3125 C 2.335938 -0.53125 2.890625 -0.859375 3.390625 -1.296875 C 3.890625 -1.703125 4.273438 -2.15625 4.546875 -2.65625 C 4.816406 -3.15625 5.003906 -3.640625 5.109375 -4.109375 C 5.222656 -4.585938 5.257812 -5.035156 5.21875 -5.453125 C 5.1875 -5.878906 5.125 -6.21875 5.03125 -6.46875 C 4.875 -6.90625 4.664062 -7.285156 4.40625 -7.609375 C 4.007812 -8.148438 3.382812 -8.519531 2.53125 -8.71875 C 1.6875 -8.914062 0.675781 -8.789062 -0.5 -8.34375 C -1.351562 -7.957031 -2.03125 -7.492188 -2.53125 -6.953125 C -3.03125 -6.410156 -3.367188 -5.832031 -3.546875 -5.21875 C -3.734375 -4.601562 -3.78125 -3.984375 -3.6875 -3.359375 C -3.59375 -2.734375 -3.375 -2.175781 -3.03125 -1.6875 Z M -3.03125 -1.6875 "/></g></g></g><g fill="#ffffff" fill-opacity="1"><g transform="translate(327.928118, 106.578638)"><g><path d="M -3.03125 -1.6875 C -2.625 -1.132812 -2.160156 -0.71875 -1.640625 -0.4375 C -1.117188 -0.164062 -0.570312 -0.0195312 0 0 C 0.5625 0.0078125 1.140625 -0.09375 1.734375 -0.3125 C 2.335938 -0.53125 2.890625 -0.859375 3.390625 -1.296875 C 3.890625 -1.703125 4.273438 -2.15625 4.546875 -2.65625 C 4.816406 -3.15625 5.003906 -3.640625 5.109375 -4.109375 C 5.222656 -4.585938 5.257812 -5.035156 5.21875 -5.453125 C 5.1875 -5.878906 5.125 -6.21875 5.03125 -6.46875 C 4.875 -6.90625 4.664062 -7.285156 4.40625 -7.609375 C 4.007812 -8.148438 3.382812 -8.519531 2.53125 -8.71875 C 1.6875 -8.914062 0.675781 -8.789062 -0.5 -8.34375 C -1.351562 -7.957031 -2.03125 -7.492188 -2.53125 -6.953125 C -3.03125 -6.410156 -3.367188 -5.832031 -3.546875 -5.21875 C -3.734375 -4.601562 -3.78125 -3.984375 -3.6875 -3.359375 C -3.59375 -2.734375 -3.375 -2.175781 -3.03125 -1.6875 Z M -3.03125 -1.6875 "/></g></g></g></svg>