<svg xmlns="http://www.w3.org/2000/svg" xmlns:xlink="http://www.w3.org/1999/xlink" width="500" zoomAndPan="magnify" viewBox="0 0 375 374.999991" height="500" preserveAspectRatio="xMidYMid meet" version="1.0"><defs><clipPath id="7eebcf6453"><path d="M 3.75 188 L 43 188 L 43 243 L 3.75 243 Z M 3.75 188 " clip-rule="nonzero"/></clipPath><clipPath id="f38736df2a"><path d="M 88 11.332031 L 130 11.332031 L 130 63 L 88 63 Z M 88 11.332031 " clip-rule="nonzero"/></clipPath><clipPath id="d75d80167f"><path d="M 29 44 L 215 44 L 215 363.832031 L 29 363.832031 Z M 29 44 " clip-rule="nonzero"/></clipPath><clipPath id="056f6905d2"><path d="M 332 188 L 371.25 188 L 371.25 243 L 332 243 Z M 332 188 " clip-rule="nonzero"/></clipPath><clipPath id="c6662b0bd8"><path d="M 245 11.332031 L 287 11.332031 L 287 63 L 245 63 Z M 245 11.332031 " clip-rule="nonzero"/></clipPath><clipPath id="e786e57503"><path d="M 160 44 L 346 44 L 346 363.832031 L 160 363.832031 Z M 160 44 " clip-rule="nonzero"/></clipPath></defs><path fill="#cb6ce6" d="M 121.375 326.203125 C 119.960938 326.488281 118.527344 326.753906 117.070312 326.996094 C 116.335938 327.113281 115.601562 327.230469 114.871094 327.347656 C 114.128906 327.460938 113.386719 327.5625 112.65625 327.628906 C 111.183594 327.785156 109.695312 327.914062 108.1875 328.027344 C 107.429688 328.078125 106.671875 328.128906 105.917969 328.179688 C 105.152344 328.226562 104.386719 328.273438 103.636719 328.277344 C 100.976562 328.328125 98.230469 328.339844 95.421875 328.277344 C 92.667969 328.132812 89.847656 327.90625 86.988281 327.566406 C 84.15625 327.179688 81.335938 326.609375 78.476562 325.921875 C 78.117188 325.832031 77.761719 325.742188 77.40625 325.652344 C 77.058594 325.546875 76.707031 325.445312 76.359375 325.339844 C 75.660156 325.125 74.964844 324.902344 74.265625 324.667969 C 72.875 324.195312 71.480469 323.683594 70.09375 323.125 C 69.160156 322.765625 68.273438 322.328125 67.378906 321.878906 C 65.800781 321.074219 63.738281 319.964844 62.050781 318.558594 C 60.40625 317.109375 59.160156 315.351562 59.152344 313.402344 C 59.136719 310.914062 60.109375 309.578125 61.597656 308.96875 C 63.089844 308.359375 65.101562 308.476562 67.234375 308.933594 C 68.300781 309.15625 69.382812 309.492188 70.484375 309.828125 C 71.589844 310.15625 72.679688 310.53125 73.710938 310.90625 C 74.738281 311.28125 75.703125 311.660156 76.558594 312.003906 C 77.414062 312.351562 78.160156 312.660156 78.777344 312.867188 C 87.941406 316.335938 97.039062 319.664062 106.109375 322.308594 L 107.488281 322.726562 C 107.945312 322.867188 108.421875 322.976562 108.886719 323.105469 C 109.816406 323.351562 110.742188 323.59375 111.671875 323.839844 C 112.59375 324.085938 113.511719 324.332031 114.433594 324.578125 C 114.886719 324.707031 115.351562 324.820312 115.820312 324.921875 L 117.214844 325.238281 C 118.238281 325.46875 120.359375 326.40625 121.375 326.203125 " fill-opacity="1" fill-rule="nonzero"/><path fill="#cb6ce6" d="M 121.375 326.203125 C 120.46875 323.457031 119.570312 320.730469 118.679688 318.019531 C 117.847656 315.265625 117.050781 312.550781 116.292969 309.898438 C 115.949219 308.746094 115.667969 307.515625 115.371094 306.320312 C 115.082031 305.128906 114.796875 303.9375 114.507812 302.742188 L 114.085938 300.972656 C 113.945312 300.386719 113.808594 299.800781 113.683594 299.191406 C 113.425781 298 113.167969 296.8125 112.910156 295.632812 C 112.375 293.292969 111.847656 290.980469 111.332031 288.722656 C 110.796875 286.449219 110.171875 284.324219 109.566406 282.152344 C 109.359375 281.441406 109.132812 280.742188 108.890625 280.054688 C 108.675781 279.449219 108.421875 278.757812 108.109375 278.074219 C 107.8125 277.375 107.480469 276.65625 107.0625 276.039062 C 106.238281 274.796875 105.085938 273.941406 103.46875 274.054688 C 101.421875 274.171875 100.019531 275.007812 99.132812 276.296875 C 98.683594 276.945312 98.367188 277.703125 98.152344 278.535156 C 97.941406 279.367188 97.8125 280.300781 97.816406 281.21875 C 97.796875 283.070312 98.113281 285.074219 98.515625 286.890625 C 98.898438 288.734375 99.476562 290.265625 99.800781 291.328125 C 102.355469 299.34375 106.503906 307.121094 111.683594 314.367188 C 112.191406 315.136719 112.75 315.847656 113.300781 316.578125 C 113.859375 317.304688 114.421875 318.03125 114.984375 318.757812 C 115.5625 319.488281 116.136719 320.21875 116.710938 320.949219 C 117.300781 321.671875 117.921875 322.347656 118.535156 323.050781 C 119.214844 323.820312 121.042969 325.199219 121.375 326.203125 " fill-opacity="1" fill-rule="nonzero"/><path fill="#cb6ce6" d="M 161.480469 339.84375 C 160.195312 340.503906 158.882812 341.144531 157.542969 341.769531 C 156.867188 342.078125 156.191406 342.386719 155.519531 342.695312 C 154.835938 343.003906 154.148438 343.300781 153.464844 343.5625 C 152.089844 344.105469 150.6875 344.632812 149.265625 345.144531 C 148.550781 345.398438 147.835938 345.652344 147.121094 345.902344 C 146.398438 346.152344 145.671875 346.40625 144.949219 346.609375 C 142.398438 347.375 139.761719 348.121094 137.039062 348.8125 C 134.34375 349.417969 131.566406 349.953125 128.71875 350.394531 C 125.886719 350.785156 123.019531 350.992188 120.078125 351.097656 C 119.710938 351.105469 119.34375 351.113281 118.976562 351.125 C 118.609375 351.117188 118.246094 351.113281 117.886719 351.105469 C 117.15625 351.085938 116.421875 351.054688 115.6875 351.015625 C 114.21875 350.941406 112.742188 350.820312 111.253906 350.65625 C 110.257812 350.558594 109.289062 350.375 108.304688 350.179688 C 106.570312 349.832031 104.285156 349.316406 102.28125 348.414062 C 100.308594 347.464844 98.636719 346.101562 98.101562 344.226562 C 97.421875 341.832031 98 340.285156 99.269531 339.296875 C 100.542969 338.3125 102.511719 337.882812 104.6875 337.753906 C 105.777344 337.679688 106.90625 337.710938 108.058594 337.742188 C 109.214844 337.761719 110.367188 337.824219 111.457031 337.910156 C 112.546875 337.996094 113.578125 338.105469 114.496094 338.207031 C 115.410156 338.308594 116.214844 338.40625 116.863281 338.441406 C 126.625 339.320312 136.28125 340.082031 145.730469 340.195312 L 147.167969 340.230469 C 147.648438 340.242188 148.136719 340.21875 148.613281 340.214844 C 149.578125 340.203125 150.539062 340.191406 151.496094 340.179688 C 152.449219 340.167969 153.402344 340.15625 154.355469 340.148438 C 154.828125 340.148438 155.304688 340.132812 155.785156 340.101562 L 157.214844 340.03125 C 158.261719 339.984375 160.554688 340.316406 161.480469 339.84375 " fill-opacity="1" fill-rule="nonzero"/><path fill="#cb6ce6" d="M 161.480469 339.84375 C 159.871094 337.445312 158.273438 335.0625 156.683594 332.6875 C 155.144531 330.257812 153.644531 327.859375 152.207031 325.503906 C 151.566406 324.488281 150.960938 323.378906 150.355469 322.308594 C 149.757812 321.238281 149.160156 320.164062 148.5625 319.09375 L 147.683594 317.5 C 147.390625 316.976562 147.097656 316.449219 146.816406 315.894531 C 146.246094 314.816406 145.679688 313.742188 145.117188 312.671875 C 143.972656 310.5625 142.84375 308.480469 141.738281 306.445312 C 140.613281 304.398438 139.4375 302.515625 138.277344 300.585938 C 137.882812 299.957031 137.476562 299.339844 137.0625 298.746094 C 136.691406 298.222656 136.261719 297.625 135.777344 297.046875 C 135.304688 296.457031 134.789062 295.851562 134.222656 295.371094 C 133.09375 294.394531 131.753906 293.878906 130.226562 294.421875 C 128.285156 295.085938 127.160156 296.269531 126.648438 297.75 C 126.394531 298.492188 126.292969 299.304688 126.308594 300.167969 C 126.328125 301.023438 126.457031 301.957031 126.703125 302.839844 C 127.183594 304.632812 128.027344 306.476562 128.902344 308.121094 C 129.765625 309.792969 130.730469 311.113281 131.332031 312.046875 C 135.941406 319.082031 142.03125 325.460938 148.964844 331.046875 C 149.664062 331.65625 150.386719 332.191406 151.117188 332.742188 C 151.851562 333.292969 152.585938 333.84375 153.324219 334.390625 C 154.074219 334.941406 154.824219 335.488281 155.578125 336.039062 C 156.339844 336.578125 157.117188 337.0625 157.898438 337.574219 C 158.757812 338.132812 160.890625 338.96875 161.480469 339.84375 " fill-opacity="1" fill-rule="nonzero"/><path fill="#cb6ce6" d="M 89.261719 305.667969 C 87.808594 305.617188 86.34375 305.542969 84.859375 305.441406 C 83.382812 305.335938 81.941406 305.144531 80.460938 304.960938 C 78.988281 304.769531 77.5 304.554688 76 304.316406 C 74.503906 304.078125 73.054688 303.75 71.558594 303.441406 C 68.949219 302.875 66.234375 302.285156 63.601562 301.488281 C 62.273438 301.105469 60.929688 300.695312 59.582031 300.261719 C 58.910156 300.042969 58.226562 299.824219 57.558594 299.585938 C 56.898438 299.335938 56.238281 299.082031 55.578125 298.820312 C 50.253906 296.761719 45.023438 294.070312 40.230469 290.558594 C 39.441406 289.972656 38.65625 289.355469 37.886719 288.714844 C 37.203125 288.148438 36.421875 287.476562 35.644531 286.730469 C 34.863281 285.988281 34.148438 285.125 33.507812 284.238281 C 32.242188 282.449219 31.410156 280.472656 31.847656 278.582031 C 32.457031 276.140625 33.71875 275.066406 35.296875 274.828125 C 36.089844 274.710938 36.953125 274.804688 37.871094 275.046875 C 38.804688 275.273438 39.785156 275.648438 40.777344 276.113281 C 41.769531 276.578125 42.773438 277.136719 43.75 277.730469 C 44.238281 278.027344 44.71875 278.332031 45.191406 278.644531 C 45.660156 278.953125 46.121094 279.265625 46.589844 279.5625 C 48.433594 280.757812 50.03125 281.902344 51.082031 282.632812 C 59.203125 288.121094 67.207031 293.519531 75.378906 298.242188 L 77.875 299.683594 C 78.289062 299.921875 78.695312 300.167969 79.117188 300.398438 L 80.390625 301.074219 C 82.074219 301.976562 83.75 302.875 85.425781 303.769531 C 86.363281 304.238281 88.21875 305.632812 89.261719 305.667969 " fill-opacity="1" fill-rule="nonzero"/><path fill="#cb6ce6" d="M 89.261719 305.667969 C 89.023438 302.769531 88.757812 299.957031 88.621094 297.070312 C 88.542969 295.648438 88.464844 294.234375 88.386719 292.824219 C 88.351562 292.128906 88.316406 291.433594 88.28125 290.738281 C 88.257812 290.039062 88.246094 289.324219 88.230469 288.625 C 88.179688 286.152344 88.167969 283.699219 88.164062 281.273438 C 88.21875 278.792969 88.277344 276.347656 88.300781 273.964844 C 88.421875 269.132812 88.457031 264.488281 88.226562 260.035156 C 88.183594 259.296875 88.117188 258.570312 88.03125 257.851562 C 87.925781 256.546875 87.757812 254.875 87.21875 253.492188 C 86.957031 252.792969 86.558594 252.191406 86.097656 251.683594 C 85.625 251.183594 85.011719 250.828125 84.210938 250.691406 C 80.117188 249.976562 77.984375 252.671875 77.027344 256.335938 C 76.792969 257.242188 76.59375 258.226562 76.507812 259.179688 C 76.417969 260.136719 76.378906 261.101562 76.375 262.027344 C 76.367188 263.867188 76.464844 265.570312 76.550781 266.664062 C 77.148438 275.074219 79.425781 283.546875 82.691406 291.855469 C 83.03125 292.707031 83.371094 293.558594 83.710938 294.414062 L 83.972656 295.054688 L 84.253906 295.679688 L 84.828125 296.929688 C 85.601562 298.597656 86.398438 300.28125 87.230469 301.96875 C 87.710938 302.867188 89.171875 304.625 89.261719 305.667969 " fill-opacity="1" fill-rule="nonzero"/><path fill="#cb6ce6" d="M 62.570312 277.628906 L 61.507812 277.335938 L 60.472656 277.011719 C 59.777344 276.785156 59.085938 276.558594 58.390625 276.332031 C 57 275.863281 55.601562 275.367188 54.199219 274.839844 C 52.773438 274.332031 51.441406 273.726562 50.058594 273.128906 C 48.683594 272.527344 47.300781 271.898438 45.914062 271.246094 C 44.675781 270.683594 43.515625 270.050781 42.300781 269.421875 C 41.097656 268.785156 39.882812 268.132812 38.664062 267.449219 C 38.054688 267.109375 37.441406 266.765625 36.832031 266.410156 C 36.242188 266.039062 35.648438 265.667969 35.058594 265.296875 C 33.875 264.542969 32.691406 263.757812 31.511719 262.945312 C 30.921875 262.535156 30.332031 262.121094 29.746094 261.699219 C 29.15625 261.277344 28.613281 260.828125 28.046875 260.378906 C 26.925781 259.480469 25.816406 258.542969 24.722656 257.578125 C 22.488281 255.65625 20.511719 253.507812 18.574219 251.238281 C 17.933594 250.476562 17.292969 249.699219 16.699219 248.890625 C 15.675781 247.445312 14.375 245.5 13.539062 243.464844 C 12.667969 241.445312 12.433594 239.28125 13.320312 237.546875 C 14.46875 235.320312 15.949219 234.585938 17.546875 234.734375 C 19.148438 234.886719 20.871094 235.925781 22.535156 237.320312 C 23.351562 238.027344 24.222656 238.800781 25.046875 239.605469 C 25.867188 240.414062 26.660156 241.25 27.390625 242.0625 C 28.125 242.871094 28.796875 243.65625 29.398438 244.359375 C 30.023438 245.046875 30.570312 245.652344 31.003906 246.132812 C 37.5625 253.421875 44.046875 260.578125 50.847656 267.117188 C 53.703125 269.742188 56.433594 272.378906 59.347656 274.835938 C 59.742188 275.183594 60.289062 275.808594 60.867188 276.390625 C 61.15625 276.679688 61.449219 276.960938 61.734375 277.183594 C 62.03125 277.398438 62.316406 277.558594 62.570312 277.628906 " fill-opacity="1" fill-rule="nonzero"/><path fill="#cb6ce6" d="M 62.570312 277.628906 C 63.515625 271.878906 64.453125 266.285156 65.660156 260.8125 C 65.921875 259.613281 66.164062 258.433594 66.457031 257.234375 C 66.761719 256.039062 67.066406 254.839844 67.371094 253.640625 C 67.984375 251.261719 68.554688 248.9375 69.222656 246.589844 C 69.539062 245.421875 69.847656 244.269531 70.132812 243.128906 C 70.273438 242.558594 70.414062 241.992188 70.554688 241.425781 C 70.683594 240.863281 70.851562 240.285156 70.992188 239.722656 C 71.28125 238.585938 71.550781 237.46875 71.789062 236.359375 C 71.910156 235.808594 72.023438 235.257812 72.128906 234.710938 C 72.175781 234.4375 72.226562 234.167969 72.277344 233.894531 C 72.335938 233.617188 72.394531 233.34375 72.449219 233.070312 C 72.597656 232.335938 72.726562 231.609375 72.835938 230.890625 C 72.929688 230.25 73.027344 229.515625 73.074219 228.761719 C 73.117188 228.011719 73.105469 227.238281 73.046875 226.492188 C 72.894531 225.007812 72.308594 223.707031 70.800781 223.070312 C 70.320312 222.867188 69.847656 222.722656 69.410156 222.628906 C 68.972656 222.527344 68.554688 222.488281 68.148438 222.492188 C 67.335938 222.503906 66.585938 222.710938 65.890625 223.078125 C 65.199219 223.441406 64.554688 223.972656 63.984375 224.609375 C 63.425781 225.246094 62.929688 225.996094 62.488281 226.816406 C 61.605469 228.457031 60.945312 230.382812 60.449219 232.1875 C 60.023438 233.964844 59.765625 235.617188 59.570312 236.707031 C 58.140625 245 58.300781 253.792969 59.484375 262.648438 C 59.753906 264.4375 60.046875 266.25 60.363281 268.078125 C 60.445312 268.535156 60.519531 268.996094 60.609375 269.449219 L 60.90625 270.800781 C 61.113281 271.707031 61.324219 272.613281 61.527344 273.519531 C 61.773438 274.511719 62.695312 276.625 62.570312 277.628906 " fill-opacity="1" fill-rule="nonzero"/><g clip-path="url(#7eebcf6453)"><path fill="#cb6ce6" d="M 42.65625 242.292969 C 41.40625 241.558594 40.113281 240.8125 38.890625 240.003906 C 37.675781 239.199219 36.460938 238.359375 35.25 237.492188 C 34.042969 236.625 32.796875 235.742188 31.625 234.808594 C 30.460938 233.871094 29.296875 232.90625 28.132812 231.921875 C 27.113281 231.050781 26.070312 230.167969 25.042969 229.25 C 24.050781 228.328125 23.054688 227.378906 22.0625 226.402344 C 21.066406 225.429688 20.074219 224.429688 19.085938 223.402344 C 18.105469 222.375 17.203125 221.300781 16.277344 220.207031 C 15.355469 219.113281 14.449219 217.988281 13.558594 216.835938 L 12.894531 215.960938 L 12.277344 215.070312 C 11.867188 214.472656 11.464844 213.867188 11.066406 213.253906 C 9.480469 210.800781 7.9375 208.234375 6.742188 205.511719 C 6.328125 204.605469 5.933594 203.683594 5.558594 202.742188 C 5.234375 201.910156 4.847656 200.941406 4.546875 199.902344 C 4.257812 198.863281 4.015625 197.753906 3.886719 196.65625 C 3.761719 195.558594 3.75 194.46875 3.9375 193.476562 C 4.121094 192.480469 4.484375 191.582031 5.167969 190.851562 C 6.882812 188.992188 8.507812 188.664062 10.003906 189.226562 C 11.507812 189.792969 12.84375 191.25 14.164062 193.035156 C 15.460938 194.820312 16.621094 196.941406 17.585938 198.894531 C 18.628906 200.84375 19.492188 202.625 20.070312 203.773438 C 24.554688 212.53125 29.015625 221.113281 33.957031 229.164062 C 34.992188 230.800781 35.972656 232.4375 37.011719 234.042969 C 38.078125 235.632812 39.140625 237.214844 40.199219 238.796875 C 40.742188 239.675781 41.757812 241.765625 42.65625 242.292969 " fill-opacity="1" fill-rule="nonzero"/></g><path fill="#cb6ce6" d="M 42.65625 242.292969 C 43.230469 240.972656 43.800781 239.652344 44.371094 238.339844 C 44.972656 237.03125 45.578125 235.722656 46.179688 234.417969 C 46.777344 233.136719 47.375 231.855469 47.96875 230.578125 C 48.257812 229.953125 48.574219 229.316406 48.894531 228.683594 C 49.214844 228.054688 49.535156 227.429688 49.851562 226.800781 C 50.410156 225.71875 50.976562 224.628906 51.542969 223.539062 C 52.113281 222.457031 52.671875 221.386719 53.296875 220.308594 C 54.515625 218.160156 55.71875 216.050781 56.863281 213.972656 C 58.097656 211.882812 59.277344 209.824219 60.355469 207.800781 C 60.871094 206.792969 61.472656 205.777344 61.992188 204.773438 C 62.519531 203.765625 63.023438 202.769531 63.484375 201.777344 C 63.789062 201.105469 64.085938 200.445312 64.386719 199.789062 C 64.917969 198.601562 65.566406 197.074219 65.75 195.621094 C 65.796875 195.257812 65.8125 194.898438 65.792969 194.546875 C 65.789062 194.195312 65.753906 193.851562 65.664062 193.523438 C 65.488281 192.867188 65.117188 192.269531 64.484375 191.769531 C 61.230469 189.203125 58.070312 190.507812 55.46875 193.234375 C 54.820312 193.910156 54.203125 194.667969 53.628906 195.460938 C 53.070312 196.25 52.59375 197.070312 52.144531 197.871094 C 51.25 199.472656 50.546875 201 50.066406 202.003906 C 46.582031 209.628906 44.507812 218.160156 43.433594 227.015625 C 43.332031 227.929688 43.230469 228.835938 43.128906 229.746094 C 43.035156 230.664062 42.925781 231.589844 42.890625 232.5 C 42.785156 234.335938 42.703125 236.1875 42.640625 238.066406 C 42.632812 238.324219 42.648438 238.660156 42.671875 239.035156 C 42.707031 239.402344 42.746094 239.804688 42.785156 240.210938 C 42.847656 241.015625 42.863281 241.8125 42.65625 242.292969 " fill-opacity="1" fill-rule="nonzero"/><path fill="#cb6ce6" d="M 32.503906 204.773438 C 30.480469 202.730469 28.480469 200.5625 26.507812 198.285156 C 24.636719 196 22.808594 193.597656 21 191.105469 C 19.488281 188.90625 17.992188 186.617188 16.511719 184.226562 C 15.746094 183.03125 15.105469 181.8125 14.429688 180.570312 C 13.761719 179.324219 13.109375 178.054688 12.472656 176.757812 C 12.15625 176.109375 11.84375 175.457031 11.535156 174.792969 C 11.257812 174.136719 10.984375 173.46875 10.714844 172.800781 C 10.179688 171.457031 9.667969 170.089844 9.191406 168.695312 C 8.179688 165.90625 7.535156 163.046875 6.964844 160.09375 C 6.78125 159.109375 6.617188 158.117188 6.484375 157.109375 C 6.304688 155.347656 6.128906 153.019531 6.402344 150.839844 C 6.527344 149.746094 6.816406 148.703125 7.261719 147.796875 C 7.707031 146.886719 8.316406 146.117188 9.132812 145.582031 C 11.21875 144.214844 12.867188 144.304688 14.1875 145.222656 C 15.507812 146.140625 16.503906 147.894531 17.273438 149.933594 C 17.464844 150.441406 17.644531 150.972656 17.8125 151.507812 C 17.980469 152.046875 18.160156 152.601562 18.316406 153.152344 C 18.636719 154.261719 18.910156 155.378906 19.148438 156.445312 C 19.394531 157.511719 19.574219 158.519531 19.773438 159.433594 C 19.976562 160.34375 20.15625 161.144531 20.296875 161.777344 C 22.414062 171.390625 24.519531 180.839844 27.34375 189.882812 C 27.589844 190.808594 27.9375 191.722656 28.230469 192.636719 C 28.53125 193.550781 28.835938 194.460938 29.136719 195.371094 C 29.441406 196.28125 29.726562 197.183594 30.039062 198.085938 C 30.371094 198.980469 30.703125 199.875 31.039062 200.769531 C 31.402344 201.75 31.777344 204.039062 32.503906 204.773438 " fill-opacity="1" fill-rule="nonzero"/><path fill="#cb6ce6" d="M 32.503906 204.773438 C 34.308594 202.503906 36.097656 200.25 37.875 198.007812 C 38.734375 196.90625 39.699219 195.8125 40.605469 194.734375 C 41.515625 193.667969 42.425781 192.605469 43.335938 191.546875 C 44.890625 189.707031 46.65625 187.898438 48.320312 186.128906 C 49.152344 185.25 49.988281 184.371094 50.816406 183.496094 C 51.65625 182.625 52.539062 181.765625 53.375 180.90625 C 54.21875 180.050781 55.046875 179.199219 55.851562 178.355469 C 56.253906 177.929688 56.648438 177.507812 57.046875 177.085938 C 57.457031 176.664062 57.867188 176.246094 58.277344 175.828125 C 59.085938 174.988281 59.863281 174.152344 60.613281 173.316406 C 60.988281 172.898438 61.355469 172.480469 61.710938 172.058594 L 62.246094 171.429688 C 62.429688 171.222656 62.617188 171.011719 62.800781 170.800781 C 63.292969 170.242188 63.761719 169.683594 64.207031 169.113281 C 64.605469 168.609375 65.050781 168.023438 65.464844 167.398438 C 65.882812 166.773438 66.226562 166.109375 66.546875 165.421875 C 67.144531 164.054688 67.273438 162.632812 66.273438 161.332031 C 65.027344 159.675781 63.589844 158.964844 62.015625 158.917969 C 60.449219 158.871094 58.753906 159.492188 57.199219 160.492188 C 55.625 161.484375 54.089844 162.835938 52.789062 164.164062 C 51.546875 165.492188 50.503906 166.792969 49.800781 167.644531 C 44.480469 174.128906 40.300781 181.847656 37.035156 190.160156 C 36.410156 191.855469 35.800781 193.582031 35.199219 195.335938 C 34.914062 196.210938 34.582031 197.097656 34.335938 197.984375 C 34.085938 198.878906 33.835938 199.773438 33.585938 200.664062 C 33.316406 201.65625 33.160156 203.945312 32.503906 204.773438 " fill-opacity="1" fill-rule="nonzero"/><path fill="#cb6ce6" d="M 32.363281 163.917969 C 31.632812 162.664062 30.875 161.371094 30.214844 160.066406 C 29.554688 158.761719 28.910156 157.433594 28.28125 156.078125 C 26.980469 153.367188 25.921875 150.589844 24.84375 147.71875 C 24.613281 147.089844 24.367188 146.449219 24.148438 145.8125 C 23.941406 145.171875 23.730469 144.527344 23.515625 143.882812 C 23.097656 142.585938 22.6875 141.265625 22.289062 139.925781 C 21.875 138.578125 21.546875 137.230469 21.222656 135.859375 C 20.898438 134.484375 20.597656 133.09375 20.316406 131.679688 C 20.167969 130.972656 20.054688 130.265625 19.953125 129.558594 C 19.847656 128.847656 19.75 128.136719 19.65625 127.417969 C 19.476562 125.984375 19.324219 124.53125 19.210938 123.0625 C 19.136719 121.609375 19.097656 120.144531 19.101562 118.664062 C 19.117188 117.1875 19.125 115.683594 19.28125 114.210938 C 19.371094 113.222656 19.484375 112.226562 19.632812 111.230469 C 19.757812 110.347656 19.921875 109.324219 20.152344 108.265625 C 20.402344 107.21875 20.738281 106.136719 21.167969 105.121094 C 22.023438 103.089844 23.253906 101.320312 25.148438 100.726562 C 27.539062 99.949219 29.113281 100.464844 30.144531 101.691406 C 30.660156 102.304688 31.039062 103.097656 31.316406 104.007812 C 31.59375 104.921875 31.75 105.9375 31.886719 107.039062 C 32.140625 109.230469 32.09375 111.640625 31.996094 113.820312 C 31.945312 116.027344 31.800781 117.996094 31.730469 119.273438 C 31.308594 129.09375 30.921875 138.753906 31.261719 148.203125 C 31.351562 150.125 31.441406 152.042969 31.527344 153.957031 C 31.667969 155.863281 31.808594 157.761719 31.949219 159.664062 C 31.984375 160.695312 31.839844 163.019531 32.363281 163.917969 " fill-opacity="1" fill-rule="nonzero"/><path fill="#cb6ce6" d="M 32.363281 163.917969 C 33.511719 163.054688 34.65625 162.191406 35.800781 161.332031 C 36.972656 160.488281 38.140625 159.648438 39.304688 158.816406 C 40.457031 157.996094 41.605469 157.179688 42.753906 156.363281 C 43.925781 155.578125 45.097656 154.792969 46.265625 154.011719 C 47.28125 153.34375 48.304688 152.675781 49.332031 152.003906 C 50.378906 151.363281 51.433594 150.71875 52.484375 150.074219 C 53.527344 149.441406 54.566406 148.808594 55.601562 148.179688 C 56.628906 147.550781 57.707031 146.949219 58.734375 146.332031 C 59.773438 145.71875 60.789062 145.109375 61.789062 144.496094 C 62.804688 143.886719 63.808594 143.28125 64.804688 142.679688 C 65.792969 142.074219 66.753906 141.457031 67.6875 140.835938 C 68.636719 140.222656 69.59375 139.609375 70.496094 138.976562 C 71.101562 138.554688 71.691406 138.125 72.257812 137.683594 C 72.746094 137.285156 73.363281 136.84375 73.933594 136.351562 C 74.511719 135.855469 75.066406 135.308594 75.507812 134.722656 C 76.371094 133.535156 76.925781 132.230469 76.300781 130.726562 C 74.734375 126.878906 71.339844 126.464844 67.738281 127.5625 C 66.839844 127.832031 65.921875 128.1875 65.042969 128.601562 C 64.183594 129.023438 63.34375 129.492188 62.554688 129.96875 C 60.988281 130.925781 59.578125 131.890625 58.722656 132.546875 C 51.890625 137.453125 45.875 143.851562 40.566406 151.019531 C 39.503906 152.492188 38.433594 153.988281 37.386719 155.519531 C 36.394531 157.0625 35.410156 158.636719 34.429688 160.238281 C 34.292969 160.457031 34.144531 160.757812 33.980469 161.09375 C 33.832031 161.429688 33.664062 161.800781 33.5 162.171875 C 33.160156 162.902344 32.777344 163.605469 32.363281 163.917969 " fill-opacity="1" fill-rule="nonzero"/><path fill="#cb6ce6" d="M 42.1875 126.050781 C 41.753906 124.640625 41.429688 123.238281 41.09375 121.804688 C 40.765625 120.371094 40.457031 118.917969 40.167969 117.441406 C 39.90625 115.980469 39.691406 114.507812 39.476562 113.011719 C 39.375 112.261719 39.277344 111.507812 39.175781 110.757812 L 39.039062 109.621094 L 38.933594 108.492188 C 38.433594 103.164062 38.160156 97.535156 38.558594 91.824219 C 38.664062 90.402344 38.792969 88.964844 38.957031 87.515625 C 39.121094 86.066406 39.382812 84.65625 39.648438 83.210938 C 39.925781 81.78125 40.21875 80.324219 40.601562 78.898438 C 40.992188 77.484375 41.425781 76.0625 41.902344 74.648438 C 42.230469 73.710938 42.554688 72.75 42.960938 71.835938 C 43.667969 70.207031 44.652344 68.078125 45.957031 66.300781 C 47.304688 64.5625 48.976562 63.195312 50.921875 63.054688 C 53.402344 62.871094 54.816406 63.777344 55.5 65.214844 C 56.203125 66.667969 56.214844 68.691406 55.894531 70.851562 C 55.734375 71.9375 55.480469 73.046875 55.207031 74.160156 C 54.941406 75.289062 54.636719 76.402344 54.324219 77.449219 C 54.011719 78.5 53.691406 79.488281 53.402344 80.363281 C 53.121094 81.246094 52.886719 82.035156 52.699219 82.652344 C 49.855469 92.054688 47.09375 101.332031 45.050781 110.558594 C 44.597656 112.421875 44.261719 114.335938 43.886719 116.207031 C 43.703125 117.148438 43.5 118.074219 43.335938 119.015625 C 43.179688 119.957031 43.023438 120.894531 42.867188 121.835938 C 42.699219 122.867188 41.859375 125.03125 42.1875 126.050781 " fill-opacity="1" fill-rule="nonzero"/><path fill="#cb6ce6" d="M 42.1875 126.050781 C 43.5 125.484375 44.863281 124.945312 46.199219 124.410156 C 47.53125 123.878906 48.859375 123.351562 50.183594 122.824219 C 51.484375 122.292969 52.847656 121.808594 54.167969 121.320312 C 55.484375 120.84375 56.800781 120.371094 58.113281 119.894531 C 60.421875 119.085938 62.808594 118.363281 65.117188 117.632812 C 66.261719 117.261719 67.464844 116.933594 68.632812 116.589844 C 69.792969 116.25 70.949219 115.90625 72.101562 115.570312 C 73.226562 115.21875 74.40625 114.90625 75.535156 114.570312 C 76.671875 114.238281 77.789062 113.898438 78.882812 113.542969 C 81.09375 112.855469 83.28125 112.167969 85.308594 111.367188 C 86.011719 111.117188 86.703125 110.855469 87.371094 110.578125 C 87.96875 110.328125 88.644531 110.035156 89.316406 109.691406 C 89.648438 109.519531 89.980469 109.328125 90.300781 109.128906 C 90.632812 108.9375 90.953125 108.730469 91.246094 108.503906 C 92.433594 107.609375 93.210938 106.417969 93 104.816406 C 92.742188 102.78125 91.816406 101.4375 90.476562 100.628906 C 89.140625 99.824219 87.359375 99.535156 85.492188 99.621094 C 83.640625 99.71875 81.660156 100.152344 79.871094 100.664062 C 78.105469 101.199219 76.574219 101.839844 75.535156 102.230469 C 67.699219 105.28125 60.277344 109.96875 53.351562 115.59375 C 52.992188 115.878906 52.625 116.160156 52.28125 116.457031 L 51.246094 117.351562 C 50.554688 117.960938 49.863281 118.566406 49.175781 119.171875 C 47.765625 120.390625 46.460938 121.6875 45.136719 123.007812 C 44.40625 123.730469 43.117188 125.632812 42.1875 126.050781 " fill-opacity="1" fill-rule="nonzero"/><path fill="#cb6ce6" d="M 60.453125 92.742188 C 60.417969 91.296875 60.410156 89.835938 60.425781 88.355469 C 60.4375 87.613281 60.453125 86.871094 60.464844 86.128906 C 60.511719 85.390625 60.554688 84.652344 60.597656 83.917969 C 60.699219 82.4375 60.820312 80.9375 60.96875 79.429688 C 61.113281 77.917969 61.339844 76.441406 61.554688 74.929688 C 61.75 73.605469 61.949219 72.25 62.1875 70.902344 C 62.441406 69.566406 62.714844 68.21875 63.007812 66.855469 C 63.570312 64.105469 64.328125 61.40625 65.183594 58.667969 C 65.402344 57.980469 65.621094 57.292969 65.855469 56.609375 C 66.097656 55.9375 66.351562 55.265625 66.613281 54.59375 C 67.136719 53.25 67.695312 51.902344 68.296875 50.5625 C 68.886719 49.214844 69.578125 47.941406 70.273438 46.636719 C 70.984375 45.347656 71.71875 44.039062 72.53125 42.800781 C 73.082031 41.976562 73.652344 41.15625 74.25 40.351562 C 74.78125 39.636719 75.40625 38.8125 76.113281 37.992188 C 76.816406 37.175781 77.632812 36.398438 78.484375 35.703125 C 80.199219 34.328125 82.109375 33.347656 84.0625 33.722656 C 86.535156 34.171875 87.675781 35.371094 88.003906 36.9375 C 88.171875 37.722656 88.128906 38.601562 87.941406 39.53125 C 87.753906 40.460938 87.417969 41.441406 87.019531 42.472656 C 86.210938 44.523438 85.019531 46.605469 83.914062 48.496094 C 82.824219 50.40625 81.761719 52.066406 81.097656 53.160156 C 76.0625 61.578125 71.179688 69.945312 66.980469 78.40625 C 65.25 81.851562 63.660156 85.339844 62.128906 88.8125 C 61.722656 89.777344 60.429688 91.699219 60.453125 92.742188 " fill-opacity="1" fill-rule="nonzero"/><path fill="#cb6ce6" d="M 60.453125 92.742188 C 61.890625 92.535156 63.324219 92.328125 64.753906 92.121094 C 66.175781 91.921875 67.5625 91.707031 69 91.546875 C 70.414062 91.378906 71.820312 91.210938 73.226562 91.046875 C 73.921875 90.96875 74.617188 90.890625 75.308594 90.8125 C 76.003906 90.742188 76.714844 90.683594 77.410156 90.621094 C 78.625 90.527344 79.851562 90.429688 81.082031 90.335938 L 82.90625 90.203125 C 83.511719 90.164062 84.140625 90.140625 84.75 90.113281 C 85.972656 90.054688 87.195312 90 88.410156 89.941406 C 89.011719 89.910156 89.613281 89.882812 90.210938 89.851562 C 90.820312 89.832031 91.425781 89.808594 92.03125 89.789062 C 93.238281 89.746094 94.429688 89.695312 95.601562 89.636719 C 96.1875 89.601562 96.769531 89.566406 97.351562 89.535156 C 97.941406 89.507812 98.527344 89.480469 99.109375 89.453125 C 101.441406 89.328125 103.660156 89.109375 105.890625 88.886719 C 106.625 88.804688 107.351562 88.707031 108.0625 88.585938 C 108.378906 88.535156 108.71875 88.472656 109.066406 88.402344 C 109.421875 88.339844 109.796875 88.277344 110.167969 88.195312 C 110.914062 88.03125 111.660156 87.816406 112.335938 87.507812 C 113.667969 86.875 114.761719 85.96875 114.933594 84.355469 C 115.386719 80.222656 112.585938 78.253906 108.886719 77.515625 C 107.96875 77.332031 106.980469 77.199219 106.023438 77.164062 C 105.0625 77.125 104.097656 77.140625 103.175781 77.183594 C 102.253906 77.230469 101.371094 77.304688 100.585938 77.382812 C 99.792969 77.460938 99.125 77.578125 98.578125 77.648438 C 90.234375 78.738281 81.902344 81.511719 73.828125 85.300781 C 72.996094 85.695312 72.171875 86.089844 71.34375 86.484375 C 70.503906 86.878906 69.722656 87.328125 68.902344 87.757812 C 68.089844 88.203125 67.277344 88.648438 66.460938 89.089844 L 65.238281 89.773438 L 64.046875 90.496094 C 63.175781 91.027344 61.496094 92.589844 60.453125 92.742188 " fill-opacity="1" fill-rule="nonzero"/><g clip-path="url(#f38736df2a)"><path fill="#cb6ce6" d="M 88.585938 62.835938 C 89.929688 57.210938 91.8125 51.484375 94.25 45.921875 C 94.78125 44.695312 95.332031 43.449219 95.902344 42.195312 C 96.492188 40.972656 97.101562 39.742188 97.742188 38.503906 C 98.382812 37.273438 99.027344 36 99.738281 34.789062 C 100.449219 33.578125 101.1875 32.363281 101.953125 31.152344 C 102.339844 30.546875 102.730469 29.945312 103.132812 29.339844 C 103.535156 28.738281 103.957031 28.167969 104.382812 27.582031 C 105.238281 26.421875 106.128906 25.269531 107.050781 24.128906 C 107.964844 22.96875 108.964844 21.917969 109.976562 20.839844 C 110.996094 19.777344 112.046875 18.71875 113.152344 17.710938 C 113.894531 17.058594 114.660156 16.414062 115.445312 15.792969 C 116.84375 14.691406 118.714844 13.253906 120.742188 12.394531 C 121.75 11.949219 122.785156 11.625 123.785156 11.507812 C 124.285156 11.449219 124.777344 11.441406 125.257812 11.503906 C 125.734375 11.570312 126.207031 11.707031 126.652344 11.917969 C 128.925781 12.996094 129.71875 14.449219 129.628906 16.046875 C 129.542969 17.65625 128.550781 19.359375 127.242188 21.144531 C 126.582031 22.023438 125.835938 22.898438 125.050781 23.734375 C 124.273438 24.578125 123.453125 25.367188 122.683594 26.160156 C 121.132812 27.722656 119.675781 29.050781 118.746094 29.933594 C 111.714844 36.78125 104.839844 43.597656 98.597656 50.6875 C 97.332031 52.144531 96.046875 53.554688 94.84375 55.058594 L 93.015625 57.261719 L 92.105469 58.355469 L 91.226562 59.484375 C 90.582031 60.308594 88.832031 61.828125 88.585938 62.835938 " fill-opacity="1" fill-rule="nonzero"/></g><path fill="#cb6ce6" d="M 102.050781 53.148438 C 102.539062 52.597656 103.050781 52.082031 103.570312 51.5625 L 105.136719 50.011719 L 106.726562 48.464844 C 107.261719 47.953125 107.824219 47.476562 108.378906 46.984375 C 109.492188 46.007812 110.613281 45.023438 111.761719 44.066406 C 112.925781 43.144531 114.105469 42.226562 115.292969 41.308594 C 116.332031 40.484375 117.417969 39.730469 118.511719 38.960938 C 119.605469 38.191406 120.703125 37.402344 121.835938 36.660156 C 122.976562 35.9375 124.132812 35.21875 125.296875 34.511719 C 125.886719 34.160156 126.464844 33.792969 127.066406 33.464844 L 128.875 32.496094 C 130.089844 31.867188 131.3125 31.230469 132.554688 30.652344 C 133.808594 30.097656 135.078125 29.566406 136.351562 29.066406 C 136.992188 28.820312 137.628906 28.566406 138.277344 28.339844 C 138.925781 28.128906 139.582031 27.921875 140.234375 27.726562 C 141.546875 27.335938 142.863281 26.96875 144.1875 26.65625 C 145.078125 26.476562 145.972656 26.316406 146.871094 26.179688 C 150.042969 25.636719 155.25 25.332031 156.925781 28.503906 C 158.007812 30.539062 157.863281 32.195312 157.03125 33.542969 C 156.191406 34.890625 154.652344 35.917969 152.84375 36.726562 C 151.058594 37.609375 148.992188 38.238281 147.09375 38.765625 C 145.207031 39.332031 143.476562 39.742188 142.347656 40.03125 C 133.769531 42.363281 125.09375 44.710938 116.488281 47.65625 L 113.84375 48.558594 L 111.230469 49.539062 L 108.59375 50.507812 C 107.722656 50.847656 106.859375 51.207031 105.988281 51.554688 C 105.507812 51.746094 104.707031 51.949219 103.925781 52.203125 C 103.539062 52.324219 103.15625 52.460938 102.828125 52.613281 C 102.496094 52.773438 102.226562 52.957031 102.050781 53.148438 " fill-opacity="1" fill-rule="nonzero"/><path fill="#cb6ce6" d="M 88.585938 62.835938 C 91.492188 63.195312 94.328125 63.511719 97.148438 63.894531 C 98.558594 64.101562 99.964844 64.308594 101.367188 64.511719 C 102.761719 64.722656 104.121094 64.917969 105.511719 65.175781 C 106.714844 65.402344 107.925781 65.625 109.140625 65.851562 C 110.34375 66.085938 111.527344 66.300781 112.742188 66.578125 C 113.9375 66.839844 115.132812 67.101562 116.324219 67.363281 C 117.507812 67.621094 118.671875 67.855469 119.855469 68.144531 C 124.558594 69.207031 129.09375 70.1875 133.480469 70.851562 C 134.210938 70.964844 134.9375 71.058594 135.65625 71.128906 C 136.921875 71.222656 138.605469 71.4375 140.058594 71.191406 C 140.789062 71.078125 141.464844 70.832031 142.039062 70.460938 C 142.617188 70.101562 143.085938 69.570312 143.375 68.816406 C 144.882812 64.953125 142.683594 62.320312 139.300781 60.640625 C 137.609375 59.773438 135.683594 59.242188 133.875 58.851562 C 132.972656 58.652344 132.101562 58.496094 131.320312 58.367188 C 130.542969 58.253906 129.863281 58.179688 129.316406 58.113281 C 120.976562 57.007812 112.210938 57.535156 103.429688 59.113281 C 102.527344 59.277344 101.625 59.445312 100.722656 59.613281 C 99.820312 59.792969 98.9375 60.011719 98.039062 60.21875 C 96.25 60.648438 94.410156 61.0625 92.640625 61.605469 C 91.660156 61.894531 89.628906 62.960938 88.585938 62.835938 " fill-opacity="1" fill-rule="nonzero"/><g clip-path="url(#d75d80167f)"><path fill="#cb6ce6" d="M 116.75 44.605469 C 116.648438 44.410156 116.574219 44.214844 116.515625 44.019531 C 108.074219 48.289062 100 53.285156 92.425781 58.96875 C 84.878906 64.683594 77.832031 71.0625 71.390625 78.011719 C 70.5625 78.863281 69.800781 79.769531 69.015625 80.65625 L 66.675781 83.328125 L 64.433594 86.089844 C 63.691406 87.015625 62.921875 87.917969 62.226562 88.878906 C 60.816406 90.78125 59.34375 92.644531 58.027344 94.617188 L 56.003906 97.542969 C 55.347656 98.53125 54.722656 99.539062 54.082031 100.539062 C 49.007812 108.546875 44.609375 117.007812 41.089844 125.832031 C 34.019531 143.457031 30.039062 162.339844 29.6875 181.394531 C 29.304688 200.4375 32.515625 219.535156 38.972656 237.457031 C 45.417969 255.390625 55.074219 272.15625 67.320312 286.78125 C 79.558594 301.410156 94.40625 313.902344 111.03125 323.375 C 119.34375 328.117188 128.09375 332.101562 137.136719 335.257812 C 141.664062 336.863281 146.242188 338.164062 150.925781 339.394531 C 155.609375 340.519531 160.132812 341.417969 164.609375 342.390625 C 173.539062 344.308594 182.3125 346.386719 190.441406 349.441406 C 192.480469 350.191406 194.429688 351.046875 196.34375 351.941406 C 198.238281 352.847656 200.039062 353.84375 201.738281 354.914062 C 205.078125 357.085938 207.941406 359.628906 209.566406 362.476562 C 209.703125 362.722656 209.945312 362.902344 210.167969 363.058594 C 210.398438 363.214844 210.683594 363.324219 211.003906 363.386719 C 211.640625 363.507812 212.425781 363.460938 213.164062 363.152344 C 213.898438 362.84375 214.441406 362.308594 214.699219 361.640625 C 214.828125 361.304688 214.886719 360.941406 214.867188 360.570312 C 214.863281 360.195312 214.707031 359.851562 214.511719 359.511719 C 213.332031 357.582031 211.875 355.8125 210.1875 354.289062 C 208.511719 352.753906 206.675781 351.390625 204.746094 350.171875 C 202.800781 348.976562 200.785156 347.894531 198.707031 346.925781 C 196.621094 345.980469 194.507812 345.085938 192.347656 344.316406 C 183.710938 341.183594 174.703125 339.171875 165.675781 337.328125 C 161.160156 336.402344 156.625 335.550781 152.097656 334.511719 C 147.597656 333.378906 143.121094 332.160156 138.726562 330.648438 C 129.933594 327.6875 121.40625 323.910156 113.289062 319.394531 C 97.050781 310.367188 82.464844 298.367188 70.375 284.226562 C 58.277344 270.085938 48.660156 253.800781 42.167969 236.320312 C 35.660156 218.847656 32.308594 200.167969 32.480469 181.472656 C 32.625 162.765625 36.34375 144.132812 43.121094 126.683594 C 46.5 117.949219 50.742188 109.554688 55.675781 101.589844 C 56.296875 100.597656 56.90625 99.597656 57.539062 98.609375 L 59.507812 95.699219 C 60.785156 93.734375 62.21875 91.878906 63.597656 89.980469 C 64.273438 89.023438 65.023438 88.121094 65.75 87.203125 L 67.933594 84.449219 L 70.222656 81.777344 C 70.992188 80.890625 71.734375 79.984375 72.542969 79.136719 C 78.84375 72.191406 85.757812 65.792969 93.179688 60.046875 C 100.625 54.324219 108.589844 49.28125 116.925781 44.953125 L 116.75 44.605469 " fill-opacity="1" fill-rule="nonzero"/></g><path fill="#cb6ce6" d="M 253.613281 326.203125 C 255.027344 326.488281 256.464844 326.753906 257.921875 326.996094 C 258.65625 327.113281 259.390625 327.230469 260.121094 327.347656 C 260.859375 327.460938 261.601562 327.5625 262.332031 327.628906 C 263.804688 327.785156 265.292969 327.914062 266.800781 328.027344 C 267.558594 328.078125 268.316406 328.128906 269.074219 328.179688 C 269.835938 328.226562 270.605469 328.273438 271.351562 328.277344 C 274.011719 328.328125 276.757812 328.339844 279.566406 328.277344 C 282.324219 328.132812 285.140625 327.90625 288.003906 327.566406 C 290.835938 327.179688 293.652344 326.609375 296.515625 325.921875 C 296.871094 325.832031 297.226562 325.742188 297.585938 325.652344 C 297.933594 325.546875 298.285156 325.445312 298.628906 325.339844 C 299.328125 325.125 300.023438 324.902344 300.722656 324.667969 C 302.117188 324.195312 303.507812 323.683594 304.894531 323.125 C 305.832031 322.765625 306.71875 322.328125 307.609375 321.878906 C 309.1875 321.074219 311.25 319.964844 312.9375 318.558594 C 314.585938 317.109375 315.828125 315.351562 315.839844 313.402344 C 315.851562 310.914062 314.878906 309.578125 313.390625 308.96875 C 311.898438 308.359375 309.886719 308.476562 307.757812 308.933594 C 306.6875 309.15625 305.609375 309.492188 304.507812 309.828125 C 303.398438 310.15625 302.308594 310.53125 301.28125 310.90625 C 300.25 311.28125 299.285156 311.660156 298.429688 312.003906 C 297.578125 312.351562 296.828125 312.660156 296.214844 312.867188 C 287.050781 316.335938 277.949219 319.664062 268.878906 322.308594 L 267.503906 322.726562 C 267.046875 322.867188 266.570312 322.976562 266.105469 323.105469 C 265.175781 323.351562 264.246094 323.59375 263.316406 323.839844 C 262.398438 324.085938 261.476562 324.332031 260.554688 324.578125 C 260.101562 324.707031 259.636719 324.820312 259.167969 324.921875 L 257.773438 325.238281 C 256.75 325.46875 254.632812 326.40625 253.613281 326.203125 " fill-opacity="1" fill-rule="nonzero"/><path fill="#cb6ce6" d="M 253.613281 326.203125 C 254.519531 323.457031 255.417969 320.730469 256.308594 318.019531 C 257.140625 315.265625 257.941406 312.550781 258.695312 309.898438 C 259.039062 308.746094 259.324219 307.515625 259.621094 306.320312 C 259.90625 305.128906 260.195312 303.9375 260.480469 302.742188 L 260.902344 300.972656 C 261.042969 300.386719 261.183594 299.800781 261.308594 299.191406 C 261.566406 298 261.820312 296.8125 262.078125 295.632812 C 262.613281 293.292969 263.144531 290.980469 263.660156 288.722656 C 264.191406 286.449219 264.820312 284.324219 265.421875 282.152344 C 265.632812 281.441406 265.855469 280.742188 266.097656 280.054688 C 266.3125 279.449219 266.566406 278.757812 266.878906 278.074219 C 267.175781 277.375 267.507812 276.65625 267.925781 276.039062 C 268.753906 274.796875 269.902344 273.941406 271.519531 274.054688 C 273.570312 274.171875 274.96875 275.007812 275.859375 276.296875 C 276.304688 276.945312 276.625 277.703125 276.839844 278.535156 C 277.046875 279.367188 277.175781 280.300781 277.175781 281.21875 C 277.191406 283.070312 276.875 285.074219 276.472656 286.890625 C 276.089844 288.734375 275.515625 290.265625 275.191406 291.328125 C 272.636719 299.34375 268.488281 307.121094 263.308594 314.367188 C 262.796875 315.136719 262.242188 315.847656 261.691406 316.578125 C 261.128906 317.304688 260.566406 318.03125 260.007812 318.757812 C 259.429688 319.488281 258.855469 320.21875 258.277344 320.949219 C 257.691406 321.671875 257.066406 322.347656 256.453125 323.050781 C 255.777344 323.820312 253.949219 325.199219 253.613281 326.203125 " fill-opacity="1" fill-rule="nonzero"/><path fill="#cb6ce6" d="M 213.511719 339.84375 C 214.796875 340.503906 216.105469 341.144531 217.445312 341.769531 C 218.121094 342.078125 218.796875 342.386719 219.472656 342.695312 C 220.152344 343.003906 220.839844 343.300781 221.527344 343.5625 C 222.902344 344.105469 224.300781 344.632812 225.722656 345.144531 C 226.441406 345.398438 227.15625 345.652344 227.871094 345.902344 C 228.59375 346.152344 229.320312 346.40625 230.042969 346.609375 C 232.589844 347.375 235.230469 348.121094 237.953125 348.8125 C 240.644531 349.417969 243.421875 349.953125 246.269531 350.394531 C 249.101562 350.785156 251.96875 350.992188 254.910156 351.097656 C 255.28125 351.105469 255.648438 351.113281 256.011719 351.125 C 256.378906 351.117188 256.742188 351.113281 257.105469 351.105469 C 257.835938 351.085938 258.566406 351.054688 259.300781 351.015625 C 260.769531 350.941406 262.25 350.820312 263.734375 350.65625 C 264.730469 350.558594 265.703125 350.375 266.683594 350.179688 C 268.421875 349.832031 270.703125 349.316406 272.707031 348.414062 C 274.683594 347.464844 276.355469 346.101562 276.886719 344.226562 C 277.566406 341.832031 276.992188 340.285156 275.71875 339.296875 C 274.445312 338.3125 272.476562 337.882812 270.300781 337.753906 C 269.210938 337.679688 268.082031 337.710938 266.929688 337.742188 C 265.777344 337.761719 264.625 337.824219 263.535156 337.910156 C 262.441406 337.996094 261.410156 338.105469 260.492188 338.207031 C 259.578125 338.308594 258.773438 338.40625 258.125 338.441406 C 248.367188 339.320312 238.707031 340.082031 229.261719 340.195312 L 227.820312 340.230469 C 227.34375 340.242188 226.855469 340.21875 226.375 340.214844 C 225.414062 340.203125 224.453125 340.191406 223.492188 340.179688 C 222.539062 340.167969 221.585938 340.15625 220.632812 340.148438 C 220.160156 340.148438 219.683594 340.132812 219.203125 340.101562 L 217.777344 340.03125 C 216.730469 339.984375 214.4375 340.316406 213.511719 339.84375 " fill-opacity="1" fill-rule="nonzero"/><path fill="#cb6ce6" d="M 213.511719 339.84375 C 215.121094 337.445312 216.714844 335.0625 218.304688 332.6875 C 219.84375 330.257812 221.34375 327.859375 222.785156 325.503906 C 223.421875 324.488281 224.027344 323.378906 224.632812 322.308594 C 225.230469 321.238281 225.828125 320.164062 226.425781 319.09375 L 227.308594 317.5 C 227.601562 316.976562 227.894531 316.449219 228.175781 315.894531 C 228.742188 314.816406 229.308594 313.742188 229.875 312.671875 C 231.019531 310.5625 232.148438 308.480469 233.253906 306.445312 C 234.375 304.398438 235.550781 302.515625 236.714844 300.585938 C 237.109375 299.957031 237.511719 299.339844 237.929688 298.746094 C 238.300781 298.222656 238.730469 297.625 239.214844 297.046875 C 239.6875 296.457031 240.199219 295.851562 240.765625 295.371094 C 241.898438 294.394531 243.234375 293.878906 244.765625 294.421875 C 246.703125 295.085938 247.828125 296.269531 248.339844 297.75 C 248.59375 298.492188 248.699219 299.304688 248.679688 300.167969 C 248.660156 301.023438 248.535156 301.957031 248.285156 302.839844 C 247.804688 304.632812 246.964844 306.476562 246.085938 308.121094 C 245.222656 309.792969 244.257812 311.113281 243.660156 312.046875 C 239.046875 319.082031 232.960938 325.460938 226.027344 331.046875 C 225.328125 331.65625 224.601562 332.191406 223.875 332.742188 C 223.136719 333.292969 222.402344 333.84375 221.667969 334.390625 C 220.914062 334.941406 220.164062 335.488281 219.414062 336.039062 C 218.652344 336.578125 217.871094 337.0625 217.09375 337.574219 C 216.234375 338.132812 214.097656 338.96875 213.511719 339.84375 " fill-opacity="1" fill-rule="nonzero"/><path fill="#cb6ce6" d="M 285.730469 305.667969 C 287.179688 305.617188 288.648438 305.542969 290.128906 305.441406 C 291.605469 305.335938 293.046875 305.144531 294.527344 304.960938 C 296.003906 304.769531 297.488281 304.554688 298.988281 304.316406 C 300.488281 304.078125 301.9375 303.75 303.429688 303.441406 C 306.042969 302.875 308.753906 302.285156 311.386719 301.488281 C 312.71875 301.105469 314.058594 300.695312 315.410156 300.261719 C 316.078125 300.042969 316.765625 299.824219 317.429688 299.585938 C 318.089844 299.335938 318.75 299.082031 319.410156 298.820312 C 324.738281 296.761719 329.964844 294.070312 334.757812 290.558594 C 335.550781 289.972656 336.332031 289.355469 337.101562 288.714844 C 337.785156 288.148438 338.566406 287.476562 339.34375 286.730469 C 340.125 285.988281 340.839844 285.125 341.480469 284.238281 C 342.746094 282.449219 343.582031 280.472656 343.144531 278.582031 C 342.535156 276.140625 341.269531 275.066406 339.691406 274.828125 C 338.902344 274.710938 338.035156 274.804688 337.121094 275.046875 C 336.183594 275.273438 335.203125 275.648438 334.210938 276.113281 C 333.21875 276.578125 332.214844 277.136719 331.238281 277.730469 C 330.75 278.027344 330.269531 278.332031 329.800781 278.644531 C 329.332031 278.953125 328.867188 279.265625 328.402344 279.5625 C 326.554688 280.757812 324.960938 281.902344 323.90625 282.632812 C 315.785156 288.121094 307.78125 293.519531 299.609375 298.242188 L 297.117188 299.683594 C 296.699219 299.921875 296.292969 300.167969 295.871094 300.398438 L 294.597656 301.074219 C 292.917969 301.976562 291.242188 302.875 289.566406 303.769531 C 288.628906 304.238281 286.773438 305.632812 285.730469 305.667969 " fill-opacity="1" fill-rule="nonzero"/><path fill="#cb6ce6" d="M 285.730469 305.667969 C 285.964844 302.769531 286.230469 299.957031 286.371094 297.070312 C 286.445312 295.648438 286.523438 294.234375 286.601562 292.824219 C 286.636719 292.128906 286.671875 291.433594 286.707031 290.738281 C 286.734375 290.039062 286.742188 289.324219 286.761719 288.625 C 286.808594 286.152344 286.824219 283.699219 286.824219 281.273438 C 286.769531 278.792969 286.714844 276.347656 286.6875 273.964844 C 286.570312 269.132812 286.53125 264.488281 286.761719 260.035156 C 286.808594 259.296875 286.871094 258.570312 286.957031 257.851562 C 287.066406 256.546875 287.230469 254.875 287.773438 253.492188 C 288.035156 252.792969 288.429688 252.191406 288.890625 251.683594 C 289.367188 251.183594 289.980469 250.828125 290.777344 250.691406 C 294.875 249.976562 297.003906 252.671875 297.964844 256.335938 C 298.199219 257.242188 298.398438 258.226562 298.484375 259.179688 C 298.570312 260.136719 298.609375 261.101562 298.617188 262.027344 C 298.621094 263.867188 298.523438 265.570312 298.441406 266.664062 C 297.839844 275.074219 295.5625 283.546875 292.296875 291.855469 C 291.957031 292.707031 291.617188 293.558594 291.277344 294.414062 L 291.019531 295.054688 L 290.734375 295.679688 L 290.160156 296.929688 C 289.390625 298.597656 288.589844 300.28125 287.761719 301.96875 C 287.277344 302.867188 285.816406 304.625 285.730469 305.667969 " fill-opacity="1" fill-rule="nonzero"/><path fill="#cb6ce6" d="M 312.417969 277.628906 L 313.480469 277.335938 L 314.519531 277.011719 C 315.214844 276.785156 315.90625 276.558594 316.597656 276.332031 C 317.988281 275.863281 319.386719 275.367188 320.792969 274.839844 C 322.21875 274.332031 323.546875 273.726562 324.933594 273.128906 C 326.308594 272.527344 327.6875 271.898438 329.074219 271.246094 C 330.3125 270.683594 331.476562 270.050781 332.6875 269.421875 C 333.894531 268.785156 335.105469 268.132812 336.324219 267.449219 C 336.933594 267.109375 337.546875 266.765625 338.15625 266.410156 C 338.75 266.039062 339.339844 265.667969 339.929688 265.296875 C 341.113281 264.542969 342.296875 263.757812 343.476562 262.945312 C 344.066406 262.535156 344.65625 262.121094 345.242188 261.699219 C 345.835938 261.277344 346.375 260.828125 346.945312 260.378906 C 348.0625 259.480469 349.175781 258.542969 350.269531 257.578125 C 352.503906 255.65625 354.476562 253.507812 356.417969 251.238281 C 357.054688 250.476562 357.695312 249.699219 358.289062 248.890625 C 359.3125 247.445312 360.613281 245.5 361.449219 243.464844 C 362.320312 241.445312 362.554688 239.28125 361.667969 237.546875 C 360.519531 235.320312 359.039062 234.585938 357.441406 234.734375 C 355.839844 234.886719 354.121094 235.925781 352.453125 237.320312 C 351.636719 238.027344 350.765625 238.800781 349.945312 239.605469 C 349.121094 240.414062 348.332031 241.25 347.597656 242.0625 C 346.863281 242.871094 346.195312 243.65625 345.59375 244.359375 C 344.96875 245.046875 344.421875 245.652344 343.984375 246.132812 C 337.425781 253.421875 330.945312 260.578125 324.140625 267.117188 C 321.285156 269.742188 318.558594 272.378906 315.644531 274.835938 C 315.25 275.183594 314.699219 275.808594 314.121094 276.390625 C 313.832031 276.679688 313.542969 276.960938 313.257812 277.183594 C 312.957031 277.398438 312.675781 277.558594 312.417969 277.628906 " fill-opacity="1" fill-rule="nonzero"/><path fill="#cb6ce6" d="M 312.417969 277.628906 C 311.476562 271.878906 310.535156 266.285156 309.328125 260.8125 C 309.066406 259.613281 308.824219 258.433594 308.53125 257.234375 C 308.226562 256.039062 307.921875 254.839844 307.617188 253.640625 C 307.003906 251.261719 306.433594 248.9375 305.765625 246.589844 C 305.449219 245.421875 305.144531 244.269531 304.855469 243.128906 C 304.714844 242.558594 304.574219 241.992188 304.4375 241.425781 C 304.304688 240.863281 304.136719 240.285156 303.996094 239.722656 C 303.707031 238.585938 303.441406 237.46875 303.199219 236.359375 C 303.082031 235.808594 302.96875 235.257812 302.863281 234.710938 C 302.8125 234.4375 302.761719 234.167969 302.710938 233.894531 C 302.652344 233.617188 302.597656 233.34375 302.539062 233.070312 C 302.390625 232.335938 302.261719 231.609375 302.15625 230.890625 C 302.058594 230.25 301.964844 229.515625 301.917969 228.761719 C 301.871094 228.011719 301.882812 227.238281 301.941406 226.492188 C 302.09375 225.007812 302.679688 223.707031 304.191406 223.070312 C 304.671875 222.867188 305.140625 222.722656 305.582031 222.628906 C 306.015625 222.527344 306.4375 222.488281 306.84375 222.492188 C 307.652344 222.503906 308.40625 222.710938 309.097656 223.078125 C 309.789062 223.441406 310.433594 223.972656 311.003906 224.609375 C 311.5625 225.246094 312.0625 225.996094 312.5 226.816406 C 313.386719 228.457031 314.042969 230.382812 314.539062 232.1875 C 314.96875 233.964844 315.226562 235.617188 315.417969 236.707031 C 316.847656 245 316.691406 253.792969 315.507812 262.648438 C 315.238281 264.4375 314.945312 266.25 314.625 268.078125 C 314.546875 268.535156 314.472656 268.996094 314.382812 269.449219 L 314.085938 270.800781 C 313.875 271.707031 313.667969 272.613281 313.460938 273.519531 C 313.214844 274.511719 312.296875 276.625 312.417969 277.628906 " fill-opacity="1" fill-rule="nonzero"/><g clip-path="url(#056f6905d2)"><path fill="#cb6ce6" d="M 332.332031 242.292969 C 333.585938 241.558594 334.878906 240.8125 336.097656 240.003906 C 337.3125 239.199219 338.527344 238.359375 339.742188 237.492188 C 340.949219 236.625 342.191406 235.742188 343.367188 234.808594 C 344.53125 233.871094 345.695312 232.90625 346.859375 231.921875 C 347.878906 231.050781 348.917969 230.167969 349.945312 229.25 C 350.9375 228.328125 351.933594 227.378906 352.925781 226.402344 C 353.921875 225.429688 354.917969 224.429688 355.902344 223.402344 C 356.882812 222.375 357.785156 221.300781 358.714844 220.207031 C 359.632812 219.113281 360.539062 217.988281 361.433594 216.835938 L 362.09375 215.960938 L 362.714844 215.070312 C 363.121094 214.472656 363.527344 213.867188 363.925781 213.253906 C 365.507812 210.800781 367.054688 208.234375 368.25 205.511719 C 368.660156 204.605469 369.058594 203.683594 369.429688 202.742188 C 369.753906 201.910156 370.140625 200.941406 370.445312 199.902344 C 370.730469 198.863281 370.976562 197.753906 371.101562 196.65625 C 371.230469 195.558594 371.238281 194.46875 371.054688 193.476562 C 370.867188 192.480469 370.507812 191.582031 369.820312 190.851562 C 368.105469 188.992188 366.484375 188.664062 364.988281 189.226562 C 363.484375 189.792969 362.148438 191.25 360.824219 193.035156 C 359.53125 194.820312 358.371094 196.941406 357.402344 198.894531 C 356.363281 200.84375 355.5 202.625 354.921875 203.773438 C 350.4375 212.53125 345.976562 221.113281 341.035156 229.164062 C 340 230.800781 339.015625 232.4375 337.976562 234.042969 C 336.914062 235.632812 335.851562 237.214844 334.789062 238.796875 C 334.25 239.675781 333.234375 241.765625 332.332031 242.292969 " fill-opacity="1" fill-rule="nonzero"/></g><path fill="#cb6ce6" d="M 332.332031 242.292969 C 331.761719 240.972656 331.1875 239.652344 330.621094 238.339844 C 330.015625 237.03125 329.414062 235.722656 328.808594 234.417969 C 328.214844 233.136719 327.617188 231.855469 327.019531 230.578125 C 326.734375 229.953125 326.417969 229.316406 326.09375 228.683594 C 325.773438 228.054688 325.457031 227.429688 325.140625 226.800781 C 324.578125 225.71875 324.011719 224.628906 323.445312 223.539062 C 322.878906 222.457031 322.316406 221.386719 321.691406 220.308594 C 320.472656 218.160156 319.273438 216.050781 318.125 213.972656 C 316.894531 211.882812 315.710938 209.824219 314.636719 207.800781 C 314.121094 206.792969 313.519531 205.777344 313 204.773438 C 312.46875 203.765625 311.96875 202.769531 311.503906 201.777344 C 311.203125 201.105469 310.902344 200.445312 310.605469 199.789062 C 310.074219 198.601562 309.421875 197.074219 309.238281 195.621094 C 309.191406 195.257812 309.179688 194.898438 309.199219 194.546875 C 309.199219 194.195312 309.238281 193.851562 309.328125 193.523438 C 309.503906 192.867188 309.871094 192.269531 310.507812 191.769531 C 313.761719 189.203125 316.921875 190.507812 319.519531 193.234375 C 320.167969 193.910156 320.785156 194.667969 321.363281 195.460938 C 321.921875 196.25 322.394531 197.070312 322.847656 197.871094 C 323.738281 199.472656 324.441406 201 324.921875 202.003906 C 328.410156 209.628906 330.484375 218.160156 331.558594 227.015625 C 331.660156 227.929688 331.761719 228.835938 331.863281 229.746094 C 331.957031 230.664062 332.066406 231.589844 332.101562 232.5 C 332.203125 234.335938 332.285156 236.1875 332.347656 238.066406 C 332.359375 238.324219 332.34375 238.660156 332.320312 239.035156 C 332.28125 239.402344 332.242188 239.804688 332.207031 240.210938 C 332.140625 241.015625 332.125 241.8125 332.332031 242.292969 " fill-opacity="1" fill-rule="nonzero"/><path fill="#cb6ce6" d="M 342.484375 204.773438 C 344.511719 202.730469 346.507812 200.5625 348.480469 198.285156 C 350.351562 196 352.179688 193.597656 353.992188 191.105469 C 355.5 188.90625 356.996094 186.617188 358.480469 184.226562 C 359.242188 183.03125 359.886719 181.8125 360.5625 180.570312 C 361.230469 179.324219 361.882812 178.054688 362.515625 176.757812 C 362.832031 176.109375 363.144531 175.457031 363.453125 174.792969 C 363.734375 174.136719 364.007812 173.46875 364.273438 172.800781 C 364.8125 171.457031 365.320312 170.089844 365.800781 168.695312 C 366.8125 165.90625 367.457031 163.046875 368.027344 160.09375 C 368.210938 159.109375 368.371094 158.117188 368.507812 157.109375 C 368.6875 155.347656 368.859375 153.019531 368.585938 150.839844 C 368.464844 149.746094 368.175781 148.703125 367.726562 147.796875 C 367.28125 146.886719 366.675781 146.117188 365.859375 145.582031 C 363.769531 144.214844 362.121094 144.304688 360.800781 145.222656 C 359.480469 146.140625 358.484375 147.894531 357.714844 149.933594 C 357.523438 150.441406 357.34375 150.972656 357.179688 151.507812 C 357.007812 152.046875 356.828125 152.601562 356.671875 153.152344 C 356.351562 154.261719 356.078125 155.378906 355.839844 156.445312 C 355.597656 157.511719 355.414062 158.519531 355.214844 159.433594 C 355.011719 160.34375 354.832031 161.144531 354.695312 161.777344 C 352.578125 171.390625 350.472656 180.839844 347.648438 189.882812 C 347.402344 190.808594 347.050781 191.722656 346.761719 192.636719 C 346.457031 193.550781 346.15625 194.460938 345.851562 195.371094 C 345.550781 196.28125 345.265625 197.183594 344.953125 198.085938 C 344.617188 198.980469 344.285156 199.875 343.949219 200.769531 C 343.585938 201.75 343.210938 204.039062 342.484375 204.773438 " fill-opacity="1" fill-rule="nonzero"/><path fill="#cb6ce6" d="M 342.484375 204.773438 C 340.679688 202.503906 338.894531 200.25 337.113281 198.007812 C 336.257812 196.90625 335.292969 195.8125 334.386719 194.734375 C 333.472656 193.667969 332.5625 192.605469 331.652344 191.546875 C 330.101562 189.707031 328.335938 187.898438 326.667969 186.128906 C 325.835938 185.25 325 184.371094 324.171875 183.496094 C 323.332031 182.625 322.449219 181.765625 321.613281 180.90625 C 320.773438 180.050781 319.945312 179.199219 319.136719 178.355469 C 318.738281 177.929688 318.339844 177.507812 317.945312 177.085938 C 317.53125 176.664062 317.121094 176.246094 316.714844 175.828125 C 315.90625 174.988281 315.125 174.152344 314.375 173.316406 C 314 172.898438 313.636719 172.480469 313.277344 172.058594 L 312.746094 171.429688 C 312.558594 171.222656 312.375 171.011719 312.1875 170.800781 C 311.699219 170.242188 311.226562 169.683594 310.78125 169.113281 C 310.382812 168.609375 309.9375 168.023438 309.527344 167.398438 C 309.109375 166.773438 308.761719 166.109375 308.445312 165.421875 C 307.84375 164.054688 307.71875 162.632812 308.714844 161.332031 C 309.960938 159.675781 311.398438 158.964844 312.972656 158.917969 C 314.539062 158.871094 316.234375 159.492188 317.792969 160.492188 C 319.367188 161.484375 320.898438 162.835938 322.203125 164.164062 C 323.445312 165.492188 324.484375 166.792969 325.1875 167.644531 C 330.507812 174.128906 334.6875 181.847656 337.953125 190.160156 C 338.582031 191.855469 339.1875 193.582031 339.789062 195.335938 C 340.078125 196.210938 340.410156 197.097656 340.652344 197.984375 C 340.902344 198.878906 341.152344 199.773438 341.402344 200.664062 C 341.671875 201.65625 341.828125 203.945312 342.484375 204.773438 " fill-opacity="1" fill-rule="nonzero"/><path fill="#cb6ce6" d="M 342.628906 163.917969 C 343.355469 162.664062 344.113281 161.371094 344.773438 160.066406 C 345.433594 158.761719 346.078125 157.433594 346.710938 156.078125 C 348.011719 153.367188 349.066406 150.589844 350.148438 147.71875 C 350.375 147.089844 350.621094 146.449219 350.839844 145.8125 C 351.050781 145.171875 351.261719 144.527344 351.472656 143.882812 C 351.890625 142.585938 352.304688 141.265625 352.699219 139.925781 C 353.113281 138.578125 353.441406 137.230469 353.769531 135.859375 C 354.089844 134.484375 354.394531 133.09375 354.675781 131.679688 C 354.820312 130.972656 354.9375 130.265625 355.039062 129.558594 C 355.144531 128.847656 355.242188 128.136719 355.332031 127.417969 C 355.515625 125.984375 355.664062 124.53125 355.78125 123.0625 C 355.855469 121.609375 355.890625 120.144531 355.886719 118.664062 C 355.871094 117.1875 355.863281 115.683594 355.707031 114.210938 C 355.617188 113.222656 355.503906 112.226562 355.359375 111.230469 C 355.230469 110.347656 355.070312 109.324219 354.839844 108.265625 C 354.585938 107.21875 354.25 106.136719 353.824219 105.121094 C 352.96875 103.089844 351.738281 101.320312 349.839844 100.726562 C 347.449219 99.949219 345.875 100.464844 344.84375 101.691406 C 344.328125 102.304688 343.949219 103.097656 343.675781 104.007812 C 343.394531 104.921875 343.242188 105.9375 343.101562 107.039062 C 342.847656 109.230469 342.894531 111.640625 342.992188 113.820312 C 343.046875 116.027344 343.191406 117.996094 343.257812 119.273438 C 343.679688 129.09375 344.066406 138.753906 343.726562 148.203125 C 343.636719 150.125 343.550781 152.042969 343.460938 153.957031 C 343.324219 155.863281 343.183594 157.761719 343.042969 159.664062 C 343.003906 160.695312 343.152344 163.019531 342.628906 163.917969 " fill-opacity="1" fill-rule="nonzero"/><path fill="#cb6ce6" d="M 342.628906 163.917969 C 341.476562 163.054688 340.332031 162.191406 339.191406 161.332031 C 338.019531 160.488281 336.851562 159.648438 335.683594 158.816406 C 334.535156 157.996094 333.382812 157.179688 332.234375 156.363281 C 331.0625 155.578125 329.890625 154.792969 328.726562 154.011719 C 327.707031 153.34375 326.683594 152.675781 325.65625 152.003906 C 324.609375 151.363281 323.554688 150.71875 322.503906 150.074219 C 321.464844 149.441406 320.425781 148.808594 319.390625 148.179688 C 318.363281 147.550781 317.28125 146.949219 316.253906 146.332031 C 315.21875 145.71875 314.199219 145.109375 313.203125 144.496094 C 312.1875 143.886719 311.179688 143.28125 310.183594 142.679688 C 309.199219 142.074219 308.234375 141.457031 307.304688 140.835938 C 306.351562 140.222656 305.394531 139.609375 304.492188 138.976562 C 303.886719 138.554688 303.300781 138.125 302.730469 137.683594 C 302.242188 137.285156 301.628906 136.84375 301.054688 136.351562 C 300.480469 135.855469 299.925781 135.308594 299.480469 134.722656 C 298.621094 133.535156 298.066406 132.230469 298.691406 130.726562 C 300.253906 126.878906 303.648438 126.464844 307.253906 127.5625 C 308.148438 127.832031 309.066406 128.1875 309.945312 128.601562 C 310.808594 129.023438 311.644531 129.492188 312.433594 129.96875 C 314 130.925781 315.410156 131.890625 316.269531 132.546875 C 323.097656 137.453125 329.117188 143.851562 334.421875 151.019531 C 335.488281 152.492188 336.554688 153.988281 337.601562 155.519531 C 338.59375 157.0625 339.582031 158.636719 340.5625 160.238281 C 340.695312 160.457031 340.847656 160.757812 341.007812 161.09375 C 341.160156 161.429688 341.324219 161.800781 341.488281 162.171875 C 341.832031 162.902344 342.214844 163.605469 342.628906 163.917969 " fill-opacity="1" fill-rule="nonzero"/><path fill="#cb6ce6" d="M 332.804688 126.050781 C 333.234375 124.640625 333.558594 123.238281 333.894531 121.804688 C 334.222656 120.371094 334.53125 118.917969 334.820312 117.441406 C 335.082031 115.980469 335.300781 114.507812 335.511719 113.011719 C 335.613281 112.261719 335.710938 111.507812 335.8125 110.757812 L 335.953125 109.621094 L 336.054688 108.492188 C 336.554688 103.164062 336.828125 97.535156 336.429688 91.824219 C 336.328125 90.402344 336.195312 88.964844 336.03125 87.515625 C 335.871094 86.066406 335.605469 84.65625 335.34375 83.210938 C 335.0625 81.78125 334.769531 80.324219 334.390625 78.898438 C 334 77.484375 333.566406 76.0625 333.085938 74.648438 C 332.757812 73.710938 332.433594 72.75 332.03125 71.835938 C 331.324219 70.207031 330.335938 68.078125 329.03125 66.300781 C 327.683594 64.5625 326.011719 63.195312 324.066406 63.054688 C 321.589844 62.871094 320.171875 63.777344 319.488281 65.214844 C 318.789062 66.667969 318.773438 68.691406 319.097656 70.851562 C 319.253906 71.9375 319.507812 73.046875 319.785156 74.160156 C 320.046875 75.289062 320.351562 76.402344 320.664062 77.449219 C 320.976562 78.5 321.296875 79.488281 321.589844 80.363281 C 321.871094 81.246094 322.101562 82.035156 322.289062 82.652344 C 325.136719 92.054688 327.898438 101.332031 329.9375 110.558594 C 330.394531 112.421875 330.726562 114.335938 331.105469 116.207031 C 331.285156 117.148438 331.488281 118.074219 331.652344 119.015625 C 331.808594 119.957031 331.964844 120.894531 332.121094 121.835938 C 332.292969 122.867188 333.128906 125.03125 332.804688 126.050781 " fill-opacity="1" fill-rule="nonzero"/><path fill="#cb6ce6" d="M 332.804688 126.050781 C 331.492188 125.484375 330.128906 124.945312 328.789062 124.410156 C 327.457031 123.878906 326.128906 123.351562 324.804688 122.824219 C 323.507812 122.292969 322.144531 121.808594 320.824219 121.320312 C 319.503906 120.84375 318.191406 120.371094 316.878906 119.894531 C 314.570312 119.085938 312.179688 118.363281 309.875 117.632812 C 308.726562 117.261719 307.523438 116.933594 306.359375 116.589844 C 305.195312 116.25 304.039062 115.90625 302.890625 115.570312 C 301.765625 115.21875 300.585938 114.90625 299.453125 114.570312 C 298.316406 114.238281 297.199219 113.898438 296.109375 113.542969 C 293.898438 112.855469 291.707031 112.167969 289.679688 111.367188 C 288.976562 111.117188 288.289062 110.855469 287.617188 110.578125 C 287.019531 110.328125 286.34375 110.035156 285.675781 109.691406 C 285.339844 109.519531 285.011719 109.328125 284.691406 109.128906 C 284.355469 108.9375 284.039062 108.730469 283.742188 108.503906 C 282.554688 107.609375 281.777344 106.417969 281.988281 104.816406 C 282.25 102.78125 283.175781 101.4375 284.515625 100.628906 C 285.847656 99.824219 287.628906 99.535156 289.496094 99.621094 C 291.351562 99.71875 293.332031 100.152344 295.121094 100.664062 C 296.882812 101.199219 298.417969 101.839844 299.453125 102.230469 C 307.289062 105.28125 314.714844 109.96875 321.640625 115.59375 C 321.996094 115.878906 322.363281 116.160156 322.710938 116.457031 L 323.742188 117.351562 C 324.433594 117.960938 325.125 118.566406 325.816406 119.171875 C 327.222656 120.390625 328.53125 121.6875 329.855469 123.007812 C 330.582031 123.730469 331.875 125.632812 332.804688 126.050781 " fill-opacity="1" fill-rule="nonzero"/><path fill="#cb6ce6" d="M 314.535156 92.742188 C 314.570312 91.296875 314.582031 89.835938 314.566406 88.355469 C 314.550781 87.613281 314.539062 86.871094 314.523438 86.128906 C 314.476562 85.390625 314.433594 84.652344 314.390625 83.917969 C 314.292969 82.4375 314.167969 80.9375 314.023438 79.429688 C 313.878906 77.917969 313.652344 76.441406 313.4375 74.929688 C 313.238281 73.605469 313.039062 72.25 312.800781 70.902344 C 312.546875 69.566406 312.273438 68.21875 311.980469 66.855469 C 311.417969 64.105469 310.664062 61.40625 309.804688 58.667969 C 309.589844 57.980469 309.367188 57.292969 309.136719 56.609375 C 308.890625 55.9375 308.636719 55.265625 308.375 54.59375 C 307.851562 53.25 307.292969 51.902344 306.695312 50.5625 C 306.105469 49.214844 305.414062 47.941406 304.714844 46.636719 C 304.003906 45.347656 303.273438 44.039062 302.457031 42.800781 C 301.910156 41.976562 301.339844 41.15625 300.742188 40.351562 C 300.207031 39.636719 299.582031 38.8125 298.878906 37.992188 C 298.175781 37.175781 297.359375 36.398438 296.507812 35.703125 C 294.789062 34.328125 292.878906 33.347656 290.925781 33.722656 C 288.457031 34.171875 287.3125 35.371094 286.984375 36.9375 C 286.820312 37.722656 286.863281 38.601562 287.046875 39.53125 C 287.234375 40.460938 287.570312 41.441406 287.972656 42.472656 C 288.78125 44.523438 289.96875 46.605469 291.074219 48.496094 C 292.167969 50.40625 293.226562 52.066406 293.894531 53.160156 C 298.925781 61.578125 303.808594 69.945312 308.007812 78.40625 C 309.738281 81.851562 311.332031 85.339844 312.859375 88.8125 C 313.265625 89.777344 314.5625 91.699219 314.535156 92.742188 " fill-opacity="1" fill-rule="nonzero"/><path fill="#cb6ce6" d="M 314.535156 92.742188 C 313.097656 92.535156 311.664062 92.328125 310.238281 92.121094 C 308.8125 91.921875 307.429688 91.707031 305.992188 91.546875 C 304.578125 91.378906 303.167969 91.210938 301.761719 91.046875 C 301.066406 90.96875 300.375 90.890625 299.683594 90.8125 C 298.988281 90.742188 298.277344 90.683594 297.582031 90.621094 C 296.363281 90.527344 295.136719 90.429688 293.90625 90.335938 L 292.085938 90.203125 C 291.476562 90.164062 290.851562 90.140625 290.238281 90.113281 C 289.019531 90.054688 287.796875 90 286.578125 89.941406 C 285.976562 89.910156 285.375 89.882812 284.777344 89.851562 C 284.171875 89.832031 283.5625 89.808594 282.960938 89.789062 C 281.753906 89.746094 280.5625 89.695312 279.386719 89.636719 C 278.800781 89.601562 278.21875 89.566406 277.636719 89.535156 C 277.046875 89.507812 276.460938 89.480469 275.878906 89.453125 C 273.550781 89.328125 271.328125 89.109375 269.097656 88.886719 C 268.363281 88.804688 267.640625 88.707031 266.925781 88.585938 C 266.609375 88.535156 266.273438 88.472656 265.921875 88.402344 C 265.566406 88.339844 265.191406 88.277344 264.820312 88.195312 C 264.078125 88.03125 263.328125 87.816406 262.65625 87.507812 C 261.324219 86.875 260.230469 85.96875 260.054688 84.355469 C 259.601562 80.222656 262.40625 78.253906 266.105469 77.515625 C 267.023438 77.332031 268.007812 77.199219 268.96875 77.164062 C 269.925781 77.125 270.890625 77.140625 271.8125 77.183594 C 272.738281 77.230469 273.617188 77.304688 274.40625 77.382812 C 275.195312 77.460938 275.867188 77.578125 276.414062 77.648438 C 284.757812 78.738281 293.089844 81.511719 301.164062 85.300781 C 301.992188 85.695312 302.816406 86.089844 303.644531 86.484375 C 304.484375 86.878906 305.269531 87.328125 306.085938 87.757812 C 306.902344 88.203125 307.714844 88.648438 308.527344 89.089844 L 309.75 89.773438 L 310.941406 90.496094 C 311.816406 91.027344 313.496094 92.589844 314.535156 92.742188 " fill-opacity="1" fill-rule="nonzero"/><g clip-path="url(#c6662b0bd8)"><path fill="#cb6ce6" d="M 286.40625 62.835938 C 285.0625 57.210938 283.175781 51.484375 280.738281 45.921875 C 280.207031 44.695312 279.65625 43.449219 279.089844 42.195312 C 278.5 40.972656 277.886719 39.742188 277.25 38.503906 C 276.609375 37.273438 275.964844 36 275.253906 34.789062 C 274.542969 33.578125 273.804688 32.363281 273.035156 31.152344 C 272.648438 30.546875 272.257812 29.945312 271.855469 29.339844 C 271.457031 28.738281 271.03125 28.167969 270.605469 27.582031 C 269.75 26.421875 268.863281 25.269531 267.9375 24.128906 C 267.023438 22.96875 266.027344 21.917969 265.011719 20.839844 C 263.992188 19.777344 262.941406 18.71875 261.839844 17.710938 C 261.09375 17.058594 260.332031 16.414062 259.542969 15.792969 C 258.144531 14.691406 256.277344 13.253906 254.246094 12.394531 C 253.238281 11.949219 252.207031 11.625 251.207031 11.507812 C 250.703125 11.449219 250.210938 11.441406 249.734375 11.503906 C 249.253906 11.570312 248.785156 11.707031 248.339844 11.917969 C 246.066406 12.996094 245.269531 14.449219 245.359375 16.046875 C 245.445312 17.65625 246.441406 19.359375 247.75 21.144531 C 248.40625 22.023438 249.15625 22.898438 249.9375 23.734375 C 250.71875 24.578125 251.539062 25.367188 252.308594 26.160156 C 253.859375 27.722656 255.3125 29.050781 256.242188 29.933594 C 263.277344 36.78125 270.152344 43.597656 276.390625 50.6875 C 277.660156 52.144531 278.945312 53.554688 280.148438 55.058594 L 281.976562 57.261719 L 282.886719 58.355469 L 283.765625 59.484375 C 284.410156 60.308594 286.160156 61.828125 286.40625 62.835938 " fill-opacity="1" fill-rule="nonzero"/></g><path fill="#cb6ce6" d="M 272.941406 53.148438 C 272.453125 52.597656 271.9375 52.082031 271.417969 51.5625 L 269.851562 50.011719 L 268.261719 48.464844 C 267.726562 47.953125 267.164062 47.476562 266.613281 46.984375 C 265.496094 46.007812 264.375 45.023438 263.230469 44.066406 C 262.0625 43.144531 260.886719 42.226562 259.695312 41.308594 C 258.660156 40.484375 257.570312 39.730469 256.480469 38.960938 C 255.382812 38.191406 254.285156 37.402344 253.152344 36.660156 C 252.011719 35.9375 250.859375 35.21875 249.691406 34.511719 C 249.105469 34.160156 248.523438 33.792969 247.925781 33.464844 L 246.117188 32.496094 C 244.902344 31.867188 243.679688 31.230469 242.433594 30.652344 C 241.179688 30.097656 239.914062 29.566406 238.636719 29.066406 C 238 28.820312 237.359375 28.566406 236.714844 28.339844 C 236.0625 28.128906 235.410156 27.921875 234.753906 27.726562 C 233.445312 27.335938 232.128906 26.96875 230.804688 26.65625 C 229.914062 26.476562 229.019531 26.316406 228.121094 26.179688 C 224.949219 25.636719 219.738281 25.332031 218.0625 28.503906 C 216.984375 30.539062 217.125 32.195312 217.960938 33.542969 C 218.796875 34.890625 220.339844 35.917969 222.144531 36.726562 C 223.933594 37.609375 225.996094 38.238281 227.894531 38.765625 C 229.78125 39.332031 231.511719 39.742188 232.644531 40.03125 C 241.222656 42.363281 249.894531 44.710938 258.5 47.65625 L 261.144531 48.558594 L 263.757812 49.539062 L 266.394531 50.507812 C 267.265625 50.847656 268.128906 51.207031 269 51.554688 C 269.480469 51.746094 270.285156 51.949219 271.0625 52.203125 C 271.453125 52.324219 271.832031 52.460938 272.164062 52.613281 C 272.492188 52.773438 272.761719 52.957031 272.941406 53.148438 " fill-opacity="1" fill-rule="nonzero"/><path fill="#cb6ce6" d="M 286.40625 62.835938 C 283.496094 63.195312 280.664062 63.511719 277.839844 63.894531 C 276.429688 64.101562 275.023438 64.308594 273.625 64.511719 C 272.230469 64.722656 270.867188 64.917969 269.476562 65.175781 C 268.273438 65.402344 267.0625 65.625 265.851562 65.851562 C 264.644531 66.085938 263.464844 66.300781 262.25 66.578125 C 261.054688 66.839844 259.859375 67.101562 258.667969 67.363281 C 257.480469 67.621094 256.320312 67.855469 255.132812 68.144531 C 250.433594 69.207031 245.898438 70.1875 241.507812 70.851562 C 240.777344 70.964844 240.050781 71.058594 239.332031 71.128906 C 238.066406 71.222656 236.386719 71.4375 234.933594 71.191406 C 234.199219 71.078125 233.527344 70.832031 232.949219 70.460938 C 232.371094 70.101562 231.902344 69.570312 231.613281 68.816406 C 230.109375 64.953125 232.304688 62.320312 235.6875 60.640625 C 237.378906 59.773438 239.304688 59.242188 241.113281 58.851562 C 242.015625 58.652344 242.886719 58.496094 243.671875 58.367188 C 244.445312 58.253906 245.128906 58.179688 245.671875 58.113281 C 254.011719 57.007812 262.777344 57.535156 271.558594 59.113281 C 272.464844 59.277344 273.367188 59.445312 274.265625 59.613281 C 275.167969 59.792969 276.050781 60.011719 276.953125 60.21875 C 278.738281 60.648438 280.578125 61.0625 282.347656 61.605469 C 283.332031 61.894531 285.359375 62.960938 286.40625 62.835938 " fill-opacity="1" fill-rule="nonzero"/><g clip-path="url(#e786e57503)"><path fill="#cb6ce6" d="M 258.242188 44.605469 C 258.339844 44.410156 258.414062 44.214844 258.476562 44.019531 C 266.914062 48.289062 274.992188 53.285156 282.5625 58.96875 C 290.109375 64.683594 297.15625 71.0625 303.601562 78.011719 C 304.429688 78.863281 305.191406 79.769531 305.972656 80.65625 L 308.316406 83.328125 L 310.558594 86.089844 C 311.296875 87.015625 312.066406 87.917969 312.765625 88.878906 C 314.175781 90.78125 315.648438 92.644531 316.964844 94.617188 L 318.988281 97.542969 C 319.640625 98.53125 320.265625 99.539062 320.90625 100.539062 C 325.984375 108.546875 330.378906 117.007812 333.898438 125.832031 C 340.96875 143.457031 344.949219 162.339844 345.304688 181.394531 C 345.683594 200.4375 342.472656 219.535156 336.015625 237.457031 C 329.574219 255.390625 319.914062 272.15625 307.667969 286.78125 C 295.429688 301.410156 280.585938 313.902344 263.957031 323.375 C 255.648438 328.117188 246.898438 332.101562 237.851562 335.257812 C 233.324219 336.863281 228.746094 338.164062 224.0625 339.394531 C 219.378906 340.519531 214.859375 341.417969 210.378906 342.390625 C 201.449219 344.308594 192.675781 346.386719 184.550781 349.441406 C 182.511719 350.191406 180.558594 351.046875 178.648438 351.941406 C 176.753906 352.847656 174.953125 353.84375 173.253906 354.914062 C 169.914062 357.085938 167.050781 359.628906 165.421875 362.476562 C 165.285156 362.722656 165.042969 362.902344 164.824219 363.058594 C 164.59375 363.214844 164.308594 363.324219 163.988281 363.386719 C 163.347656 363.507812 162.5625 363.460938 161.828125 363.152344 C 161.089844 362.84375 160.550781 362.308594 160.292969 361.640625 C 160.164062 361.304688 160.105469 360.941406 160.121094 360.570312 C 160.128906 360.195312 160.28125 359.851562 160.480469 359.511719 C 161.65625 357.582031 163.113281 355.8125 164.800781 354.289062 C 166.480469 352.753906 168.3125 351.390625 170.242188 350.171875 C 172.191406 348.976562 174.207031 347.894531 176.285156 346.925781 C 178.367188 345.980469 180.480469 345.085938 182.640625 344.316406 C 191.277344 341.183594 200.289062 339.171875 209.316406 337.328125 C 213.828125 336.402344 218.363281 335.550781 222.890625 334.511719 C 227.394531 333.378906 231.871094 332.160156 236.261719 330.648438 C 245.058594 327.6875 253.582031 323.910156 261.699219 319.394531 C 277.9375 310.367188 292.523438 298.367188 304.613281 284.226562 C 316.710938 270.085938 326.328125 253.800781 332.824219 236.320312 C 339.332031 218.847656 342.679688 200.167969 342.507812 181.472656 C 342.363281 162.765625 338.648438 144.132812 331.867188 126.683594 C 328.492188 117.949219 324.246094 109.554688 319.316406 101.589844 C 318.695312 100.597656 318.085938 99.597656 317.453125 98.609375 L 315.484375 95.699219 C 314.203125 93.734375 312.769531 91.878906 311.394531 89.980469 C 310.714844 89.023438 309.964844 88.121094 309.242188 87.203125 L 307.054688 84.449219 L 304.765625 81.777344 C 303.996094 80.890625 303.253906 79.984375 302.445312 79.136719 C 296.144531 72.191406 289.230469 65.792969 281.8125 60.046875 C 274.367188 54.324219 266.402344 49.28125 258.0625 44.953125 L 258.242188 44.605469 " fill-opacity="1" fill-rule="nonzero"/></g></svg>