<svg xmlns="http://www.w3.org/2000/svg" xmlns:xlink="http://www.w3.org/1999/xlink" width="500" zoomAndPan="magnify" viewBox="0 0 375 374.999991" height="500" preserveAspectRatio="xMidYMid meet" version="1.0"><defs><clipPath id="1fdbbd361c"><path d="M 54.421875 247.757812 L 85 247.757812 L 85 363.339844 L 54.421875 363.339844 Z M 54.421875 247.757812 " clip-rule="nonzero"/></clipPath><clipPath id="c98cae2c2e"><path d="M 296.773438 190 L 326.105469 190 L 326.105469 240 L 296.773438 240 Z M 296.773438 190 " clip-rule="nonzero"/></clipPath><clipPath id="f9d79fce71"><path d="M 48.605469 91 L 69 91 L 69 123 L 48.605469 123 Z M 48.605469 91 " clip-rule="nonzero"/></clipPath></defs><path fill="#ffffff" d="M 79.296875 280.785156 C 79.882812 282.253906 80.867188 282.261719 82.003906 281.808594 C 82.726562 281.519531 83.578125 281.050781 84.449219 280.578125 C 85.921875 279.765625 87.433594 278.929688 89.003906 278.609375 C 90.246094 278.367188 91.765625 278.3125 93.367188 278.261719 C 95.484375 278.195312 97.765625 278.117188 99.386719 277.5625 C 100.976562 277.015625 101.871094 275.785156 100.914062 272.996094 C 100.058594 270.519531 98.332031 270.550781 96.414062 271.214844 C 95.511719 271.523438 94.644531 271.910156 93.785156 272.289062 C 92.363281 272.917969 90.964844 273.542969 89.628906 273.808594 L 89.628906 273.816406 C 88.152344 274.113281 86.472656 274.011719 84.78125 273.902344 C 81.945312 273.730469 79.085938 273.558594 78.65625 275.769531 C 78.402344 277.058594 78.75 279.410156 79.296875 280.785156 " fill-opacity="1" fill-rule="nonzero"/><path fill="#ffffff" d="M 234.476562 199.367188 C 239.757812 201.0625 243.789062 205.113281 248.070312 209.417969 C 248.613281 209.957031 249.160156 210.507812 249.71875 211.058594 L 249.722656 211.058594 L 249.75 211.085938 L 249.746094 211.085938 C 252.660156 213.96875 255.769531 216.835938 259.484375 218.953125 C 263.152344 221.035156 267.453125 222.410156 272.832031 222.390625 C 276.800781 222.378906 281.152344 221.074219 282.847656 217.113281 C 283.226562 216.234375 283.445312 215.292969 283.503906 214.335938 C 283.621094 212.371094 283.101562 210.324219 282.015625 208.5625 C 281.316406 207.429688 280.386719 206.417969 279.253906 205.617188 C 279.0625 206.394531 278.757812 207.089844 278.367188 207.703125 C 277.53125 209.011719 276.3125 209.9375 274.882812 210.546875 C 267.148438 213.851562 260.078125 208.976562 253.1875 204.226562 C 246.710938 199.765625 240.417969 195.425781 234.476562 199.367188 " fill-opacity="1" fill-rule="nonzero"/><path fill="#ffffff" d="M 215.6875 235.652344 C 212.628906 236.902344 209.515625 237.339844 206.640625 237.066406 C 205.792969 243.902344 208.625 248.78125 213.152344 251.558594 C 216.890625 253.851562 221.792969 254.761719 226.785156 254.199219 C 231.808594 253.636719 236.90625 251.574219 241.003906 247.941406 C 248.324219 241.449219 252.457031 229.851562 247.332031 212.585938 C 246.917969 212.179688 246.515625 211.773438 246.109375 211.367188 C 241.882812 207.117188 237.910156 203.132812 232.890625 201.792969 C 232.953125 208.6875 231.847656 216.292969 228.800781 222.699219 C 226.105469 228.375 221.910156 233.113281 215.6875 235.652344 " fill-opacity="1" fill-rule="nonzero"/><path fill="#ffffff" d="M 207.726562 208.121094 C 210.292969 211.507812 211.0625 214.574219 210.722656 217.085938 C 210.425781 219.242188 209.339844 220.984375 207.839844 222.207031 C 206.371094 223.40625 204.492188 224.09375 202.605469 224.15625 C 200.535156 224.226562 198.441406 223.566406 196.828125 222.023438 C 196.476562 224.265625 196.714844 226.257812 197.402344 227.941406 C 197.957031 229.296875 198.800781 230.46875 199.863281 231.417969 C 200.933594 232.378906 202.242188 233.125 203.707031 233.628906 C 206.90625 234.730469 210.816406 234.644531 214.644531 233.082031 C 220.148438 230.835938 223.882812 226.601562 226.296875 221.519531 C 228.960938 215.917969 230.035156 209.289062 230.117188 203.113281 C 229.414062 203.6875 228.6875 204.234375 227.941406 204.738281 C 223.851562 207.519531 219.644531 208.859375 215.464844 209.054688 C 212.851562 209.175781 210.257812 208.839844 207.726562 208.121094 " fill-opacity="1" fill-rule="nonzero"/><path fill="#ffffff" d="M 97.535156 243.855469 C 95.789062 244.574219 93.824219 244.640625 91.832031 244.476562 C 86.972656 256.976562 93.65625 260.90625 100.050781 264.664062 C 102.113281 265.882812 104.148438 267.074219 105.867188 268.511719 C 105.09375 264.207031 104.066406 259.582031 101.664062 254.785156 C 103.546875 253.757812 104.765625 254.757812 105.460938 256.476562 C 107.464844 261.410156 108.253906 266.03125 108.984375 270.304688 C 110.726562 280.515625 112.109375 288.617188 130.785156 293.289062 C 134.21875 294.148438 136.105469 296.566406 138.097656 299.105469 C 141.316406 303.230469 144.84375 307.738281 157.332031 303.839844 C 166.832031 300.871094 172.957031 304.425781 178.339844 309.324219 C 191.363281 318.746094 200.785156 313.792969 210.652344 308.300781 C 215.769531 305.171875 218.675781 300.734375 219.71875 295.972656 C 220.476562 292.496094 220.25 288.835938 219.171875 285.378906 C 218.089844 281.90625 216.144531 278.644531 213.488281 275.980469 C 210.050781 272.539062 205.386719 270.09375 199.808594 269.484375 C 200.546875 270.054688 201.210938 270.675781 201.800781 271.335938 C 203.402344 273.128906 204.433594 275.203125 204.910156 277.320312 C 205.394531 279.457031 205.308594 281.644531 204.675781 283.640625 C 204.089844 285.492188 203.03125 287.183594 201.515625 288.535156 L 201.511719 288.535156 C 192.503906 296.570312 184.234375 288.550781 177.457031 281.972656 C 174.960938 279.554688 172.6875 277.347656 170.847656 276.460938 C 169.320312 275.71875 167.4375 275.035156 165.046875 274.46875 C 162.621094 273.890625 159.695312 273.433594 156.128906 273.175781 C 146.316406 272.453125 141.402344 266.410156 137.34375 261.417969 C 135.515625 259.171875 133.875 257.15625 132.136719 256.148438 C 130.734375 255.335938 128.535156 255.15625 126.292969 254.972656 C 124.71875 254.839844 123.117188 254.707031 121.566406 254.339844 C 120.652344 254.117188 119.765625 253.863281 118.902344 253.578125 C 119.320312 254.371094 119.640625 255.148438 119.949219 255.921875 C 120.46875 257.199219 120.976562 258.460938 122.027344 259.691406 C 123.054688 260.890625 124.335938 261.625 125.585938 262.335938 C 128.066406 263.765625 130.445312 265.136719 131.546875 269.351562 C 132.167969 271.707031 131.902344 273.875 131.625 276.195312 C 131.511719 277.136719 131.394531 278.09375 131.34375 279.03125 C 131.261719 280.449219 131.414062 281.738281 131.757812 282.914062 C 132.695312 286.097656 135.113281 288.480469 138.214844 290.125 C 141.453125 291.84375 145.425781 292.765625 149.300781 292.992188 C 152.625 293.175781 155.859375 292.859375 158.492188 292.085938 C 171.964844 288.117188 177.746094 293.625 183.09375 298.71875 C 188.199219 303.582031 192.847656 308.023438 205.160156 300.925781 C 206.15625 302.703125 204.96875 304.222656 203.574219 304.902344 C 191.648438 310.695312 186.636719 305.917969 181.183594 300.726562 C 176.394531 296.160156 171.214844 291.21875 159.273438 294.734375 C 156.339844 295.601562 152.777344 295.960938 149.15625 295.753906 C 144.898438 295.507812 140.527344 294.484375 136.925781 292.574219 C 133.199219 290.597656 130.273438 287.675781 129.101562 283.695312 C 128.667969 282.226562 128.476562 280.621094 128.578125 278.878906 C 128.640625 277.785156 128.757812 276.8125 128.871094 275.867188 C 129.121094 273.804688 129.351562 271.886719 128.871094 270.042969 C 128.0625 266.949219 126.175781 265.871094 124.210938 264.734375 C 122.75 263.894531 121.257812 263.035156 119.929688 261.488281 C 118.574219 259.90625 117.984375 258.445312 117.378906 256.964844 C 116.652344 255.160156 115.90625 253.3125 113.429688 251.273438 C 111.550781 250.320312 109.789062 249.292969 108.101562 248.3125 C 104.363281 246.125 100.980469 244.148438 97.535156 243.855469 " fill-opacity="1" fill-rule="nonzero"/><g clip-path="url(#1fdbbd361c)"><path fill="#ffffff" d="M 74.761719 247.777344 C 74.664062 247.820312 74.570312 247.855469 74.46875 247.898438 C 71.183594 251.226562 67.773438 255.757812 66.039062 261.3125 C 64.714844 265.539062 64.351562 270.382812 65.738281 275.765625 L 65.667969 276.660156 C 60.808594 287.703125 61.804688 291.894531 65.777344 308.617188 C 66.28125 310.722656 66.832031 313.039062 67.566406 316.210938 C 67.785156 317.160156 67.988281 318.011719 68.21875 318.945312 C 69.386719 323.769531 71.046875 330.589844 71.609375 337.085938 C 72.265625 344.660156 70.488281 349.007812 67.851562 351.046875 C 66.371094 352.191406 64.648438 352.621094 62.917969 352.480469 C 61.261719 352.34375 59.609375 351.6875 58.171875 350.648438 L 58.167969 350.648438 C 56.890625 349.730469 55.785156 348.488281 55.015625 347.058594 C 54.113281 352.191406 55.40625 356.191406 57.882812 358.929688 C 60.238281 361.546875 63.671875 363.046875 67.292969 363.296875 C 70.941406 363.558594 74.757812 362.550781 77.847656 360.152344 L 77.855469 360.152344 C 81.421875 357.378906 84.03125 352.71875 84.328125 345.960938 C 84.652344 338.597656 81.402344 335.460938 80.871094 329.683594 C 80.667969 327.476562 80.84375 325.433594 81.011719 323.4375 C 81.289062 320.09375 81.5625 316.898438 79.847656 313.921875 C 76.421875 307.953125 76.722656 301.191406 77.027344 294.375 C 77.230469 289.851562 77.429688 285.3125 76.484375 281.136719 C 76.433594 280.957031 76.371094 280.753906 76.3125 280.515625 C 76.253906 280.304688 76.203125 280.085938 76.15625 279.855469 C 75.40625 277.363281 74.21875 275.644531 73.109375 274.050781 L 73.109375 274.046875 C 71.25 271.363281 69.578125 268.957031 69.878906 264.011719 C 70.214844 258.355469 72.890625 252.140625 74.574219 248.222656 L 74.761719 247.777344 " fill-opacity="1" fill-rule="nonzero"/></g><path fill="#ffffff" d="M 78.867188 245.785156 L 78.429688 246.023438 C 78.195312 246.8125 77.71875 247.921875 77.121094 249.316406 C 75.507812 253.066406 72.945312 259.015625 72.640625 264.171875 C 72.398438 268.171875 73.8125 270.207031 75.382812 272.46875 L 75.386719 272.464844 C 75.703125 272.921875 76.027344 273.386719 76.347656 273.882812 C 77.734375 270.699219 81.351562 270.921875 84.945312 271.140625 C 86.445312 271.234375 87.941406 271.320312 89.082031 271.097656 L 89.082031 271.101562 C 90.128906 270.890625 91.390625 270.332031 92.671875 269.761719 C 93.640625 269.328125 94.625 268.894531 95.515625 268.589844 C 98.871094 267.4375 101.9375 267.4375 103.542969 272.089844 C 105.195312 276.910156 103.386719 279.117188 100.285156 280.179688 C 98.296875 280.867188 95.78125 280.949219 93.453125 281.023438 C 91.964844 281.074219 90.550781 281.121094 89.542969 281.328125 C 88.417969 281.550781 87.078125 282.285156 85.777344 283 C 84.863281 283.507812 83.960938 284.007812 83.027344 284.382812 C 81.878906 284.832031 80.804688 285.078125 79.832031 284.910156 C 80.078125 288.070312 79.933594 291.285156 79.792969 294.488281 C 79.507812 300.910156 79.21875 307.285156 82.246094 312.542969 C 84.394531 316.289062 84.085938 319.890625 83.773438 323.664062 C 83.613281 325.566406 83.445312 327.515625 83.621094 329.433594 C 83.933594 332.828125 85.839844 336.308594 88.464844 339.296875 C 91.425781 342.667969 95.269531 345.367188 98.808594 346.59375 C 106.226562 349.15625 110.652344 346.996094 115.746094 344.519531 C 117.40625 343.703125 119.140625 342.859375 121.175781 342.078125 C 127.578125 339.617188 132.554688 342.242188 137.761719 344.984375 C 141.941406 347.1875 146.292969 349.476562 151.511719 348.804688 C 155.949219 348.230469 158.0625 346.023438 160.019531 343.984375 C 161.609375 342.328125 163.105469 340.761719 165.5625 339.9375 C 170.570312 338.269531 175.089844 340.132812 180.070312 342.179688 C 185.710938 344.503906 191.992188 347.09375 199.960938 344.292969 C 207.910156 341.503906 211.492188 336.328125 214.617188 331.792969 C 217.019531 328.320312 219.175781 325.195312 222.792969 323.472656 C 229.609375 320.226562 235.433594 324.875 241.476562 329.699219 C 242.335938 330.382812 243.199219 331.070312 243.960938 331.65625 C 246.875 333.902344 250.429688 335.558594 254.015625 336.386719 C 256.945312 337.050781 259.878906 337.164062 262.476562 336.566406 C 264.992188 335.992188 267.191406 334.753906 268.753906 332.722656 C 269.273438 332.046875 269.730469 331.277344 270.105469 330.40625 C 258.839844 333.074219 254.042969 325.023438 249.125 316.765625 C 244.875 309.621094 240.523438 302.304688 231.363281 303.148438 C 224.433594 303.785156 218.394531 307.152344 212.527344 310.417969 L 212.003906 310.714844 C 211.410156 311.074219 210.789062 311.417969 210.144531 311.742188 C 202.386719 315.996094 194.742188 319.464844 185.351562 316.21875 C 191.644531 322.226562 198.648438 326.542969 211.527344 318.464844 L 213.625 317.148438 L 213.644531 319.625 C 213.679688 323.789062 212.53125 327.539062 210.546875 330.640625 C 208.757812 333.445312 206.285156 335.722656 203.382812 337.296875 C 200.496094 338.871094 197.175781 339.757812 193.683594 339.789062 C 189.503906 339.824219 185.082031 338.632812 180.851562 335.925781 L 180.847656 335.925781 L 179.988281 335.375 C 174.089844 331.582031 167.269531 327.199219 161.722656 333.082031 C 155.132812 340.078125 148.132812 336.242188 141.03125 332.351562 C 137.621094 330.488281 134.191406 328.609375 130.949219 328.144531 C 128.070312 327.730469 122.445312 329.503906 116.847656 331.269531 C 112.53125 332.628906 108.230469 333.984375 104.921875 334.402344 C 101.90625 334.789062 99.113281 334.667969 96.628906 334.101562 C 93.398438 333.355469 90.675781 331.847656 88.644531 329.671875 C 86.613281 327.496094 85.292969 324.660156 84.863281 321.273438 C 84.554688 318.84375 84.703125 316.152344 85.375 313.222656 C 86.265625 309.367188 85.363281 307.128906 84.261719 304.378906 C 83.597656 302.707031 82.859375 300.867188 82.332031 298.425781 C 81.648438 295.207031 81.796875 291.90625 82.96875 289.070312 C 84.042969 286.445312 85.96875 284.230469 88.859375 282.835938 C 91.332031 281.644531 94.796875 281.144531 97.9375 281.625 C 99.535156 281.867188 101.066406 282.367188 102.386719 283.15625 C 103.761719 283.976562 104.898438 285.109375 105.613281 286.59375 C 106.324219 288.082031 106.613281 289.894531 106.28125 292.054688 C 106.039062 293.621094 105.472656 295.042969 104.917969 296.449219 C 104.140625 298.410156 103.382812 300.320312 103.878906 302.238281 C 104.257812 303.683594 105.328125 305.433594 107.492188 306.683594 C 109.214844 307.683594 111.617188 308.367188 114.902344 308.367188 C 116.671875 308.367188 118.476562 308.199219 120.308594 308.027344 C 125.414062 307.558594 130.726562 307.066406 135.304688 309.726562 C 137.773438 311.164062 139.441406 313.183594 141.105469 315.191406 C 143.832031 318.492188 146.539062 321.765625 153.039062 321.273438 C 156.761719 320.992188 159.558594 319.96875 162.054688 319.054688 C 168.351562 316.753906 172.917969 315.089844 184.234375 324.796875 C 186.90625 327.09375 185.464844 328.304688 184.644531 328.867188 C 172.867188 318.054688 168.777344 319.546875 163 321.660156 C 160.332031 322.636719 157.335938 323.726562 153.25 324.039062 C 145.320312 324.640625 142.152344 320.816406 138.964844 316.957031 C 137.464844 315.136719 135.953125 313.308594 133.914062 312.125 C 130.09375 309.898438 125.230469 310.351562 120.554688 310.785156 C 118.601562 310.964844 116.683594 311.144531 114.902344 311.144531 C 111.082031 311.144531 108.210938 310.304688 106.105469 309.082031 C 103.191406 307.394531 101.726562 304.96875 101.199219 302.933594 C 100.476562 300.144531 101.398438 297.816406 102.34375 295.425781 C 102.839844 294.1875 103.339844 292.933594 103.539062 291.640625 C 103.78125 290.066406 103.597656 288.796875 103.117188 287.792969 C 102.652344 286.828125 101.898438 286.082031 100.96875 285.53125 C 99.980469 284.941406 98.789062 284.5625 97.53125 284.367188 C 94.90625 283.96875 92.0625 284.367188 90.0625 285.328125 C 87.832031 286.410156 86.351562 288.113281 85.523438 290.121094 C 84.582031 292.425781 84.464844 295.152344 85.046875 297.851562 C 85.519531 300.070312 86.207031 301.789062 86.832031 303.351562 C 88.113281 306.539062 89.15625 309.140625 88.082031 313.835938 C 87.476562 316.457031 87.339844 318.828125 87.601562 320.921875 C 87.957031 323.707031 89.03125 326.023438 90.671875 327.789062 C 92.320312 329.550781 94.5625 330.78125 97.246094 331.402344 C 99.429688 331.902344 101.894531 332 104.574219 331.660156 C 107.605469 331.277344 111.804688 329.953125 116.019531 328.621094 C 121.917969 326.761719 127.839844 324.894531 131.339844 325.402344 C 135.066406 325.941406 138.722656 327.941406 142.351562 329.929688 C 148.515625 333.300781 154.582031 336.621094 159.710938 331.183594 C 166.839844 323.621094 174.691406 328.671875 181.480469 333.046875 L 182.339844 333.597656 L 182.335938 333.601562 C 186.089844 335.996094 189.992188 337.054688 193.664062 337.027344 C 196.6875 337 199.5625 336.234375 202.0625 334.871094 C 204.554688 333.511719 206.679688 331.558594 208.214844 329.160156 C 209.515625 327.121094 210.402344 324.757812 210.738281 322.148438 C 195.570312 330.558594 188.101562 323.003906 180.558594 315.355469 C 174.597656 309.324219 168.578125 303.230469 158.152344 306.480469 C 143.847656 310.953125 139.695312 305.652344 135.914062 300.8125 C 134.230469 298.65625 132.632812 296.609375 130.113281 295.984375 C 111.640625 291.351562 108.628906 283.644531 106.808594 273.929688 C 105.371094 271.003906 102.054688 269.054688 98.652344 267.046875 C 91.359375 262.761719 83.742188 258.277344 89.003906 244.125 C 88.734375 244.089844 88.46875 244.042969 88.207031 244.007812 C 87.054688 243.832031 85.941406 243.660156 84.976562 243.597656 C 83.230469 243.484375 81.144531 244.585938 78.867188 245.785156 " fill-opacity="1" fill-rule="nonzero"/><path fill="#ffffff" d="M 67.121094 134.476562 C 67.175781 134.316406 67.242188 134.152344 67.304688 133.996094 C 67.628906 130.484375 66.789062 126.429688 65.152344 123.128906 C 63.679688 120.140625 61.589844 117.820312 59.199219 117.207031 C 57.554688 116.785156 55.941406 117.140625 54.582031 118.011719 C 53.769531 118.535156 53.054688 119.238281 52.46875 120.066406 C 51.875 120.910156 51.421875 121.878906 51.152344 122.9375 C 50.863281 124.054688 50.789062 125.265625 50.980469 126.507812 C 51.257812 125.953125 51.585938 125.4375 51.941406 124.96875 C 52.652344 124.054688 53.515625 123.300781 54.476562 122.78125 C 55.460938 122.234375 56.554688 121.941406 57.683594 121.945312 C 59.074219 121.953125 60.5 122.421875 61.847656 123.464844 C 63.394531 124.660156 64.835938 126.75 65.953125 130.054688 C 66.382812 131.328125 66.78125 132.792969 67.121094 134.476562 " fill-opacity="1" fill-rule="nonzero"/><path fill="#ffffff" d="M 65.253906 141.230469 L 65.269531 141.140625 C 64.859375 136.777344 64.179688 133.449219 63.332031 130.941406 C 62.398438 128.199219 61.296875 126.535156 60.15625 125.652344 C 59.324219 125.003906 58.46875 124.71875 57.671875 124.707031 C 57.019531 124.707031 56.386719 124.886719 55.796875 125.203125 C 55.179688 125.542969 54.609375 126.042969 54.132812 126.65625 C 53.75 127.152344 53.429688 127.722656 53.183594 128.335938 C 53.953125 128.207031 54.726562 128.292969 55.457031 128.546875 C 56.234375 128.808594 56.945312 129.257812 57.550781 129.828125 C 58.144531 130.390625 58.625 131.074219 58.957031 131.8125 C 59.351562 132.695312 59.535156 133.660156 59.421875 134.59375 C 59.28125 135.8125 57.304688 136.671875 56.078125 135.398438 C 56.785156 134.71875 56.796875 133.769531 56.429688 132.945312 C 56.25 132.53125 55.976562 132.152344 55.644531 131.835938 C 55.324219 131.527344 54.960938 131.296875 54.570312 131.167969 C 53.84375 130.917969 52.988281 131.09375 52.238281 132 C 51.414062 132.988281 51.109375 134.230469 51.191406 135.441406 C 51.238281 136.160156 51.425781 136.875 51.726562 137.503906 C 52.019531 138.121094 52.40625 138.648438 52.867188 139.023438 C 53.292969 139.382812 53.792969 139.609375 54.332031 139.652344 C 54.382812 139.628906 54.429688 139.59375 54.476562 139.558594 C 55.996094 138.535156 57.546875 138.089844 59.027344 138.089844 C 60.398438 138.089844 61.703125 138.472656 62.851562 139.140625 C 63.769531 139.675781 64.585938 140.386719 65.253906 141.230469 " fill-opacity="1" fill-rule="nonzero"/><g clip-path="url(#c98cae2c2e)"><path fill="#ffffff" d="M 318.316406 199.023438 C 314.777344 195.667969 310.214844 192.730469 304.972656 190.039062 C 302.292969 192.820312 299.589844 194.863281 296.878906 196.316406 C 299.847656 197.542969 302.003906 199.320312 303.464844 201.464844 C 305.835938 204.9375 306.351562 209.292969 305.605469 213.773438 C 305.246094 215.921875 304.167969 218.691406 302.992188 221.691406 C 301.875 224.5625 300.660156 227.664062 299.984375 230.507812 C 299 234.640625 299.78125 237.375 301.328125 238.785156 C 302.070312 239.460938 303.003906 239.835938 304 239.914062 C 305.046875 239.996094 306.160156 239.757812 307.199219 239.203125 C 309.695312 237.871094 311.621094 234.109375 311.917969 229.035156 C 314.652344 229.695312 317.199219 231.949219 318.09375 235.433594 C 320.949219 233.605469 322.996094 230.464844 324.320312 226.914062 C 326.289062 221.625 326.652344 215.488281 325.714844 211.257812 C 324.664062 206.582031 322.058594 202.566406 318.316406 199.023438 " fill-opacity="1" fill-rule="nonzero"/></g><path fill="#ffffff" d="M 323.832031 245.78125 C 323.640625 241.953125 323.4375 238.007812 323.53125 234.09375 C 322.183594 235.828125 320.570312 237.277344 318.671875 238.292969 C 318.902344 240.464844 318.648438 242.628906 317.988281 244.6875 C 317.09375 247.484375 315.4375 250.082031 313.203125 252.203125 C 310.945312 254.339844 308.09375 256.003906 304.816406 256.898438 C 302.648438 257.492188 300.589844 257.71875 298.652344 257.632812 C 298.703125 259.128906 299.132812 260.765625 299.859375 262.382812 C 300.894531 264.675781 302.519531 266.90625 304.539062 268.644531 C 306.527344 270.351562 308.878906 271.574219 311.398438 271.902344 C 313.238281 272.140625 315.1875 271.898438 317.164062 271.011719 C 324.925781 267.511719 324.410156 257.230469 323.832031 245.78125 " fill-opacity="1" fill-rule="nonzero"/><path fill="#ffffff" d="M 112.628906 68.886719 C 117.871094 62.46875 126.847656 50.265625 130.695312 37.894531 C 132.003906 33.679688 132.710938 29.449219 132.464844 25.429688 C 129.597656 23.496094 125.246094 22.660156 120.765625 22.636719 C 115.734375 22.613281 110.613281 23.613281 107.222656 25.246094 C 108.203125 28.441406 109.800781 34.433594 110.46875 41.683594 C 111.183594 49.390625 110.84375 58.53125 107.578125 67.289062 C 109.28125 67.554688 110.992188 68.082031 112.628906 68.886719 " fill-opacity="1" fill-rule="nonzero"/><path fill="#ffffff" d="M 119.230469 75.21875 C 125.976562 71.382812 136.507812 63.609375 145.789062 53.535156 C 152.679688 46.058594 158.855469 37.332031 162.253906 28.042969 C 161.546875 25.054688 160.519531 22.53125 159.253906 20.429688 C 156.964844 16.644531 153.875 14.261719 150.433594 13.039062 C 146.949219 11.800781 143.078125 11.734375 139.285156 12.585938 C 136.917969 13.113281 134.585938 14.007812 132.371094 15.199219 C 136.304688 22.242188 135.875 30.539062 133.335938 38.707031 C 129.421875 51.324219 120.453125 63.644531 115.050781 70.304688 L 115.101562 70.339844 C 117.019531 71.671875 118.394531 73.351562 119.230469 75.21875 " fill-opacity="1" fill-rule="nonzero"/><path fill="#ffffff" d="M 175.222656 31.304688 C 172.808594 29.613281 169.402344 28.691406 164.847656 29.019531 C 161.523438 38.113281 155.671875 46.640625 149.070312 54.039062 C 152.140625 54.992188 157.710938 54.792969 163.917969 54.566406 C 167.175781 54.453125 170.601562 54.320312 173.976562 54.359375 C 176.992188 51.972656 178.992188 48.292969 179.707031 44.460938 C 180.175781 41.925781 180.082031 39.335938 179.339844 37.015625 L 179.335938 37.015625 C 178.617188 34.753906 177.265625 32.742188 175.222656 31.304688 " fill-opacity="1" fill-rule="nonzero"/><path fill="#ffffff" d="M 259.898438 248.996094 C 262.976562 241.292969 266.546875 232.375 264.878906 224.15625 C 262.402344 223.488281 260.175781 222.523438 258.121094 221.359375 C 255.53125 219.886719 253.253906 218.109375 251.136719 216.214844 C 253.648438 227.5625 252.171875 236.449219 248.484375 242.996094 C 245.011719 252.863281 243.582031 260.570312 243.578125 266.554688 C 243.574219 273.378906 245.429688 277.898438 248.199219 280.796875 C 252.761719 285.574219 258.335938 286.765625 263.082031 285.550781 C 265.175781 285.019531 267.105469 284.023438 268.714844 282.671875 C 270.316406 281.320312 271.609375 279.609375 272.4375 277.636719 C 273.925781 274.082031 273.894531 269.652344 271.433594 264.902344 C 271.199219 265.710938 270.882812 266.4375 270.480469 267.085938 C 269.800781 268.191406 268.902344 269.0625 267.886719 269.6875 C 266.875 270.320312 265.753906 270.703125 264.613281 270.84375 C 262.882812 271.054688 261.09375 270.707031 259.609375 269.796875 C 253.167969 265.835938 256.214844 258.210938 259.898438 248.996094 " fill-opacity="1" fill-rule="nonzero"/><g clip-path="url(#f9d79fce71)"><path fill="#ffffff" d="M 60.734375 104.21875 C 60.417969 103.222656 60.15625 102.234375 59.949219 101.234375 L 59.945312 101.234375 L 59.9375 101.1875 C 59.882812 100.914062 59.832031 100.636719 59.78125 100.355469 C 58.71875 95.117188 56.683594 92.507812 54.613281 91.652344 C 53.574219 91.21875 52.515625 91.25 51.605469 91.628906 C 50.6875 92.007812 49.898438 92.742188 49.414062 93.6875 C 49 94.507812 48.8125 95.496094 48.964844 96.558594 C 49.304688 96.121094 49.695312 95.746094 50.125 95.449219 C 50.824219 94.964844 51.625 94.667969 52.414062 94.605469 C 53.261719 94.53125 54.113281 94.71875 54.851562 95.199219 C 56.128906 96.035156 57.011719 97.714844 56.808594 100.40625 C 56.71875 101.601562 56.449219 102.96875 56.140625 104.484375 C 55.527344 107.582031 54.777344 111.324219 55.457031 114.597656 C 56.851562 114.183594 58.359375 114.128906 59.882812 114.519531 C 63.121094 115.347656 65.824219 118.238281 67.636719 121.902344 C 67.816406 122.257812 67.976562 122.617188 68.136719 122.984375 C 67.058594 117.109375 64.917969 113.054688 62.992188 109.410156 L 62.675781 108.808594 C 61.878906 107.300781 61.238281 105.765625 60.734375 104.21875 " fill-opacity="1" fill-rule="nonzero"/></g><path fill="#ffffff" d="M 285.539062 209.527344 C 287.949219 216.234375 283.25 222.71875 282.191406 229.578125 C 281.191406 236.035156 282.433594 242.082031 286.898438 248.0625 C 288.796875 250.597656 291.144531 252.609375 293.914062 253.773438 C 296.84375 254.996094 300.25 255.285156 304.089844 254.234375 C 306.902344 253.464844 309.359375 252.035156 311.296875 250.195312 C 313.195312 248.390625 314.597656 246.199219 315.351562 243.847656 C 316.101562 241.519531 316.210938 239.027344 315.554688 236.613281 C 315.261719 235.546875 314.816406 234.488281 314.210938 233.464844 C 313.351562 237.523438 311.089844 240.265625 308.5 241.636719 C 306.980469 242.457031 305.34375 242.800781 303.792969 242.675781 C 302.195312 242.550781 300.675781 241.9375 299.464844 240.832031 C 297.226562 238.792969 296.03125 235.132812 297.285156 229.867188 C 298 226.867188 299.253906 223.65625 300.414062 220.683594 C 301.53125 217.820312 302.5625 215.183594 302.871094 213.320312 C 303.507812 209.503906 303.109375 205.851562 301.179688 203.027344 C 299.613281 200.734375 296.992188 198.9375 293.050781 197.992188 C 285.972656 200.421875 278.863281 199.351562 271.949219 197.433594 C 276.675781 200.734375 283.476562 203.789062 285.539062 209.527344 " fill-opacity="1" fill-rule="nonzero"/><path fill="#ffffff" d="M 276.703125 204.046875 L 276.558594 203.953125 C 273.464844 201.847656 266.421875 197.0625 263.839844 194.921875 C 254.585938 191.945312 245.90625 189.394531 238.722656 194.941406 C 244.070312 194.582031 249.359375 198.226562 254.757812 201.949219 C 261.027344 206.269531 267.460938 210.707031 273.796875 208 C 274.742188 207.597656 275.527344 207.015625 276.035156 206.21875 C 276.402344 205.636719 276.644531 204.917969 276.703125 204.046875 " fill-opacity="1" fill-rule="nonzero"/><path fill="#ffffff" d="M 235.621094 281.730469 C 238.949219 288.378906 241.972656 294.421875 237.753906 301.039062 C 242.628906 302.601562 245.914062 306.5 248.785156 310.921875 C 253.554688 298.855469 262.449219 298.527344 272.546875 298.144531 C 275.859375 298.019531 279.320312 297.890625 282.78125 297.285156 C 285.253906 296.859375 287.242188 295.988281 288.5 294.804688 C 289.058594 294.269531 289.46875 293.679688 289.703125 293.042969 C 289.929688 292.429688 289.988281 291.753906 289.863281 291.03125 C 289.648438 289.792969 288.894531 288.414062 287.503906 286.933594 C 286.292969 285.648438 284.941406 284.640625 283.792969 283.785156 C 281.953125 282.417969 280.539062 281.371094 280.355469 279.769531 C 280.316406 279.441406 280.488281 278.917969 280.707031 278.671875 C 282.058594 277.210938 283.128906 275.554688 283.464844 273.832031 C 283.722656 272.484375 283.53125 271.050781 282.628906 269.578125 L 281.777344 268.179688 L 283.296875 267.570312 C 284.929688 266.914062 286.984375 265.34375 289.039062 263.464844 C 291.257812 261.4375 293.449219 259.070312 295.113281 257.097656 C 294.332031 256.898438 293.574219 256.640625 292.839844 256.332031 C 289.597656 254.96875 286.855469 252.640625 284.679688 249.722656 C 282.542969 246.863281 280.941406 243.425781 279.949219 239.765625 C 278.519531 234.558594 278.320312 228.914062 279.5 223.917969 C 279.183594 224.050781 278.851562 224.175781 278.503906 224.292969 C 276.890625 224.839844 275.007812 225.148438 272.84375 225.15625 C 271.0625 225.160156 269.386719 225.027344 267.796875 224.777344 C 269.105469 233.433594 265.550781 242.3125 262.464844 250.023438 C 259.257812 258.050781 256.601562 264.691406 261.058594 267.429688 C 262.003906 268.011719 263.152344 268.230469 264.28125 268.089844 C 265.039062 267.996094 265.777344 267.742188 266.433594 267.335938 C 268.9375 265.789062 269.238281 262.609375 268.753906 259.941406 C 270.691406 259.628906 272.1875 260.667969 273.207031 262.382812 C 276.765625 268.382812 276.914062 274.113281 274.992188 278.695312 C 273.992188 281.085938 272.433594 283.152344 270.492188 284.785156 C 268.554688 286.414062 266.246094 287.605469 263.769531 288.238281 C 258.132812 289.683594 251.539062 288.296875 246.195312 282.707031 C 242.972656 279.332031 240.8125 274.1875 240.816406 266.554688 C 240.816406 261.847656 241.648438 256.171875 243.5625 249.339844 C 243.320312 249.574219 243.085938 249.796875 242.835938 250.011719 C 238.433594 253.914062 234.699219 253.886719 232.296875 260.042969 C 229 268.503906 232.460938 275.421875 235.621094 281.730469 " fill-opacity="1" fill-rule="nonzero"/><path fill="#ffffff" d="M 187.617188 172.957031 C 184.300781 172.011719 181.277344 170.394531 178.886719 168.019531 C 180.460938 179.109375 188.03125 189.363281 202.429688 190.339844 C 206.535156 190.617188 210.414062 189.9375 214.136719 188.585938 C 223.234375 185.285156 231.523438 177.957031 239.636719 170.675781 C 243.472656 167.234375 247.691406 164.972656 251.816406 163.980469 C 255.644531 163.058594 259.398438 163.222656 262.679688 164.535156 C 266 165.859375 268.824219 168.34375 270.765625 172.042969 C 272.105469 174.589844 273.019531 177.71875 273.386719 181.445312 C 276.222656 177.035156 276.902344 172.269531 275.933594 167.832031 C 275.191406 164.414062 273.476562 161.171875 271.015625 158.414062 C 268.53125 155.636719 265.308594 153.347656 261.578125 151.867188 C 254.078125 148.886719 244.5 149.144531 234.675781 155.089844 C 231.761719 156.847656 228.902344 158.875 226.003906 160.925781 C 219.609375 165.441406 213.042969 170.085938 205.257812 172.488281 C 199.589844 174.238281 193.171875 174.539062 187.617188 172.957031 " fill-opacity="1" fill-rule="nonzero"/><path fill="#ffffff" d="M 264.027344 182.28125 C 265.363281 184.953125 266.085938 188.445312 265.960938 192.703125 C 278.113281 196.628906 291.164062 200.679688 303.324219 187.75 C 303.589844 183.640625 304.34375 179.734375 305.289062 176.214844 C 306.28125 172.550781 307.484375 169.292969 308.582031 166.65625 C 314.503906 152.457031 312.5625 137.300781 307.039062 127.042969 C 305.039062 123.339844 302.589844 120.296875 299.882812 118.191406 C 297.265625 116.152344 294.417969 114.996094 291.535156 115 C 287.492188 115.003906 283.296875 117.289062 279.4375 122.609375 C 278.753906 123.546875 278.179688 124.554688 277.714844 125.613281 C 276.039062 129.433594 275.769531 133.882812 276.816406 138.03125 C 277.859375 142.164062 280.207031 145.984375 283.757812 148.5625 C 284.722656 149.265625 285.769531 149.875 286.90625 150.367188 C 285.707031 152.65625 282.816406 151.414062 281.230469 150.109375 C 277.628906 147.164062 275.234375 143.082031 274.128906 138.703125 C 272.933594 133.976562 273.25 128.886719 275.175781 124.492188 C 275.5625 123.625 276.007812 122.78125 276.519531 121.976562 C 271.503906 114.066406 268.527344 104.703125 265.589844 95.429688 C 262.101562 84.429688 258.652344 73.566406 251.964844 65.839844 C 248.894531 62.296875 245.261719 59.261719 241.285156 56.957031 C 237.4375 54.722656 233.277344 53.171875 229.015625 52.5 C 218.457031 50.835938 211.429688 54.21875 204.898438 57.359375 C 201.886719 58.804688 198.972656 60.207031 195.835938 61.097656 C 196.351562 61.757812 196.808594 62.476562 197.1875 63.257812 C 200.195312 61.570312 203.292969 60.363281 206.425781 59.605469 C 214.808594 57.589844 223.402344 58.835938 231.101562 62.8125 C 233.121094 63.859375 235.09375 65.097656 236.976562 66.515625 C 253.214844 78.738281 258.777344 99.402344 265.601562 124.75 C 268.773438 136.539062 272.222656 149.351562 277.148438 162.761719 C 277.800781 164.207031 278.308594 165.710938 278.648438 167.246094 C 280.53125 175.886719 277.101562 183.570312 270.71875 188.363281 C 270.847656 183.128906 270.835938 178.125 268.3125 173.335938 C 266.695312 170.25 264.371094 168.191406 261.652344 167.101562 C 258.90625 166.007812 255.734375 165.882812 252.464844 166.667969 C 248.777344 167.558594 244.96875 169.609375 241.484375 172.734375 C 233.164062 180.199219 224.65625 187.707031 215.082031 191.1875 C 206.691406 194.230469 197.605469 194.183594 187.320312 188.34375 L 187.449219 188.53125 C 190.996094 193.753906 195.378906 198.335938 200.207031 201.550781 C 204.957031 204.707031 210.128906 206.527344 215.351562 206.292969 C 226.644531 205.777344 230.644531 198.800781 236.273438 190.867188 C 241.816406 183.050781 249.140625 174.210938 256.773438 176.148438 C 259.835938 176.921875 262.386719 178.992188 264.027344 182.28125 " fill-opacity="1" fill-rule="nonzero"/><path fill="#ffffff" d="M 263.203125 191.820312 C 263.210938 188.414062 262.609375 185.636719 261.550781 183.515625 C 260.285156 180.992188 258.375 179.414062 256.097656 178.832031 C 250.523438 177.421875 244.449219 184.316406 239.535156 191.058594 C 246.714844 187.078125 254.726562 189.125 263.203125 191.820312 " fill-opacity="1" fill-rule="nonzero"/><path fill="#ffffff" d="M 175.484375 148.53125 C 175.726562 147.476562 176.035156 146.46875 176.429688 145.527344 C 175.546875 144.121094 174.933594 142.363281 174.667969 140.207031 C 174.570312 139.421875 174.511719 138.613281 174.5 137.785156 C 174.363281 129.207031 179.304688 122.289062 186.269531 117.285156 C 187.15625 116.648438 188.078125 116.046875 189.027344 115.46875 C 172.683594 115.703125 166.191406 122.613281 159.117188 130.148438 C 156.410156 133.027344 153.617188 135.996094 150.183594 138.757812 C 152.285156 141.621094 156.296875 144.664062 161.230469 146.644531 C 165.542969 148.382812 170.523438 149.285156 175.484375 148.53125 " fill-opacity="1" fill-rule="nonzero"/><path fill="#ffffff" d="M 194 171.1875 C 197.492188 171.355469 201.105469 170.871094 204.449219 169.84375 C 211.796875 167.578125 218.1875 163.058594 224.410156 158.65625 C 227.359375 156.570312 230.269531 154.511719 233.242188 152.714844 C 242.101562 147.351562 250.828125 146.289062 258.257812 147.957031 C 252.066406 133.027344 240.300781 133.742188 228.152344 137.828125 C 224.121094 139.183594 220.03125 140.90625 216.085938 142.570312 C 213.742188 143.554688 211.4375 144.527344 209.25 145.382812 C 203.113281 147.773438 195.230469 150.363281 188.585938 150.550781 C 184.601562 150.660156 181.050781 149.941406 178.519531 147.890625 C 175.261719 158.480469 182.050781 170.609375 194 171.1875 " fill-opacity="1" fill-rule="nonzero"/><path fill="#ffffff" d="M 255.546875 129.699219 C 255.375 132.09375 255.03125 134.605469 254.503906 137.234375 C 257.304688 139.820312 259.714844 143.609375 261.59375 148.917969 C 261.925781 149.039062 262.269531 149.167969 262.59375 149.300781 C 265.988281 150.644531 268.992188 152.582031 271.484375 154.929688 C 268.074219 144.601562 265.414062 134.71875 262.925781 125.46875 C 256.234375 100.625 250.785156 80.367188 235.320312 68.730469 C 233.570312 67.414062 231.726562 66.25 229.835938 65.273438 C 222.714844 61.59375 214.78125 60.441406 207.0625 62.296875 C 199.3125 64.160156 191.746094 69.074219 185.386719 77.523438 C 183.480469 80.058594 181.679688 82.917969 180.007812 86.117188 C 188.636719 95.492188 204.25 96.300781 218.035156 97.007812 C 220.429688 97.132812 222.769531 97.25 224.898438 97.40625 C 227.640625 97.597656 230.191406 97.949219 232.5625 98.445312 C 241.003906 100.21875 247.035156 103.878906 250.835938 109.203125 C 254.621094 114.515625 256.136719 121.414062 255.546875 129.699219 " fill-opacity="1" fill-rule="nonzero"/><path fill="#ffffff" d="M 252.050781 135.324219 C 252.40625 133.3125 252.648438 131.371094 252.777344 129.507812 C 253.324219 121.867188 251.980469 115.570312 248.582031 110.808594 C 245.191406 106.058594 239.71875 102.78125 232.003906 101.15625 C 229.765625 100.683594 227.332031 100.355469 224.699219 100.167969 C 222.433594 100.007812 220.1875 99.890625 217.894531 99.773438 C 204.601562 99.085938 189.679688 98.316406 180.097656 90.042969 C 180.035156 91.953125 179.742188 93.902344 179.222656 95.847656 C 178.992188 96.714844 178.710938 97.597656 178.382812 98.484375 C 176.636719 103.179688 174.34375 106.605469 171.734375 108.933594 C 168.546875 111.78125 164.890625 113 161.152344 112.917969 C 157.476562 112.835938 153.753906 111.492188 150.351562 109.191406 C 147.078125 106.984375 144.082031 103.886719 141.695312 100.183594 C 140.78125 98.769531 140.691406 96.394531 142.578125 96.21875 C 144.933594 100.695312 148.234375 104.417969 151.902344 106.898438 C 154.886719 108.910156 158.09375 110.085938 161.207031 110.15625 C 164.261719 110.222656 167.257812 109.214844 169.886719 106.863281 C 172.183594 104.820312 174.210938 101.761719 175.792969 97.515625 C 176.078125 96.742188 176.328125 95.945312 176.542969 95.144531 C 177.742188 90.667969 177.601562 86.203125 176.007812 82.449219 C 174.425781 78.738281 171.402344 75.691406 166.796875 73.984375 C 166.183594 73.753906 165.523438 73.542969 164.828125 73.359375 C 147.519531 68.75 137.445312 80.523438 127.769531 91.851562 C 122.9375 97.492188 118.203125 103.03125 112.660156 106.589844 C 113.355469 106.582031 114.058594 106.597656 114.75 106.617188 C 122.660156 106.886719 130.882812 109.023438 138.566406 112.449219 C 146.277344 115.882812 153.441406 120.621094 159.171875 126.050781 C 166.667969 118.238281 174.570312 111.679688 194.042969 112.820312 C 199.140625 110.492188 204.625 108.972656 209.691406 108.335938 C 211.265625 108.136719 212.828125 108.03125 214.351562 108.003906 C 221.414062 107.890625 229.230469 109.148438 235.347656 112.738281 C 239.378906 115.101562 242.671875 118.449219 244.550781 123.046875 C 245.46875 125.289062 245.082031 126.886719 242.949219 127.230469 C 241.707031 121.582031 238.328125 117.6875 233.953125 115.121094 C 228.320312 111.816406 221.023438 110.664062 214.394531 110.765625 C 213.027344 110.792969 211.5625 110.898438 210.03125 111.089844 C 202.640625 112.019531 194.3125 114.914062 187.882812 119.53125 C 181.597656 124.046875 177.144531 130.203125 177.261719 137.742188 C 177.273438 138.410156 177.324219 139.121094 177.417969 139.871094 C 178.195312 146.046875 182.78125 147.941406 188.507812 147.78125 C 194.75 147.609375 202.324219 145.109375 208.25 142.800781 C 210.453125 141.9375 212.707031 140.992188 215.011719 140.019531 C 219.015625 138.332031 223.164062 136.589844 227.273438 135.203125 C 236.28125 132.171875 245.105469 130.84375 252.050781 135.324219 " fill-opacity="1" fill-rule="nonzero"/><path fill="#ffffff" d="M 288.378906 112.609375 L 271.496094 104.515625 C 273.375 109.839844 275.507812 114.984375 278.28125 119.566406 C 281.472656 115.652344 284.910156 113.429688 288.378906 112.609375 " fill-opacity="1" fill-rule="nonzero"/><path fill="#ffffff" d="M 106.378906 189.777344 C 106.378906 190.996094 106.660156 192.148438 107.171875 193.175781 C 107.671875 194.179688 108.390625 195.066406 109.265625 195.761719 C 107.585938 195.898438 106.023438 195.921875 104.703125 195.890625 C 104.824219 193.503906 105.289062 191.183594 106.234375 189.238281 L 106.429688 188.859375 C 106.394531 189.15625 106.378906 189.46875 106.378906 189.777344 " fill-opacity="1" fill-rule="nonzero"/><path fill="#ffffff" d="M 116.835938 185.765625 C 117.480469 186.21875 118.007812 186.820312 118.375 187.523438 C 118.722656 188.183594 118.921875 188.953125 118.921875 189.777344 C 118.921875 190.5 118.765625 191.183594 118.488281 191.789062 C 118.203125 192.425781 117.78125 192.992188 117.261719 193.445312 C 116.820312 193.839844 116.308594 194.144531 115.757812 194.351562 C 114.695312 194.753906 113.503906 194.769531 112.425781 194.394531 C 111.933594 194.222656 111.480469 193.980469 111.078125 193.675781 C 110.484375 193.222656 109.992188 192.632812 109.652344 191.953125 C 109.332031 191.300781 109.148438 190.570312 109.148438 189.777344 C 109.148438 188.429688 109.695312 187.207031 110.582031 186.324219 C 111.464844 185.4375 112.6875 184.894531 114.03125 184.894531 C 114.554688 184.894531 115.042969 184.972656 115.503906 185.117188 C 115.992188 185.265625 116.433594 185.488281 116.835938 185.765625 " fill-opacity="1" fill-rule="nonzero"/><path fill="#ffffff" d="M 121.695312 189.777344 C 121.695312 188.511719 121.378906 187.3125 120.824219 186.242188 C 120.492188 185.601562 120.066406 185.011719 119.574219 184.492188 C 122.027344 184.882812 124.609375 185.519531 127.160156 186.160156 C 125.710938 188.878906 123.632812 190.851562 121.269531 192.28125 C 121.546875 191.492188 121.695312 190.648438 121.695312 189.777344 " fill-opacity="1" fill-rule="nonzero"/><path fill="#ffffff" d="M 172.429688 265.496094 C 172.839844 265.46875 173.253906 265.417969 173.65625 265.34375 C 176.996094 264.730469 179.984375 262.542969 180.6875 259.492188 C 181.886719 259.542969 183.601562 259.300781 184.964844 262.703125 C 185.851562 264.917969 186.328125 266.980469 186.367188 268.808594 C 186.421875 270.929688 185.886719 272.753906 184.738281 274.171875 C 183.59375 275.582031 181.871094 276.535156 179.546875 276.90625 C 178.574219 277.058594 177.484375 277.109375 176.273438 277.039062 C 177.273438 277.941406 178.3125 278.945312 179.382812 279.984375 C 185.332031 285.753906 192.589844 292.792969 199.675781 286.472656 L 199.675781 286.464844 C 200.800781 285.457031 201.589844 284.191406 202.03125 282.804688 C 202.519531 281.265625 202.582031 279.578125 202.207031 277.921875 C 201.835938 276.25 201.011719 274.605469 199.738281 273.175781 C 198.3125 271.578125 196.308594 270.25 193.71875 269.421875 C 190.699219 268.648438 190.105469 266.730469 190.75 264.085938 C 191.1875 262.28125 192.300781 260.175781 193.515625 257.878906 C 195.839844 253.476562 198.566406 248.308594 196.765625 244.675781 C 195.515625 242.175781 192.832031 241.035156 189.964844 239.8125 C 186.390625 238.292969 182.566406 236.671875 180.089844 232.386719 C 179.390625 232.847656 178.679688 233.269531 177.976562 233.6875 C 175.195312 235.339844 172.765625 236.785156 173.773438 239.421875 C 174.023438 240.082031 174.40625 240.808594 174.824219 241.605469 C 177.253906 246.214844 180.769531 252.902344 172.429688 265.496094 " fill-opacity="1" fill-rule="nonzero"/><path fill="#ffffff" d="M 164.046875 265.296875 C 160.707031 262.121094 158.875 256.25 160.984375 246.871094 C 160.761719 246.78125 160.542969 246.710938 160.335938 246.664062 C 159.605469 246.496094 158.984375 246.582031 158.449219 246.835938 C 155.515625 248.253906 153.882812 251.082031 152.332031 253.785156 C 149.832031 258.132812 147.492188 262.199219 141.050781 261.570312 C 144.5 265.648438 148.871094 269.863281 156.328125 270.410156 C 160.066406 270.683594 163.136719 271.167969 165.6875 271.769531 C 166.925781 272.0625 168.046875 272.394531 169.066406 272.742188 C 173.394531 274.148438 176.722656 274.554688 179.125 274.171875 C 180.726562 273.921875 181.875 273.308594 182.589844 272.425781 C 183.308594 271.539062 183.640625 270.328125 183.605469 268.855469 C 183.566406 267.183594 183.058594 265.214844 182.117188 263.054688 C 180.394531 265.667969 177.398438 267.464844 174.15625 268.0625 C 172.417969 268.382812 170.601562 268.355469 168.871094 267.929688 C 167.117188 267.492188 165.460938 266.636719 164.046875 265.296875 " fill-opacity="1" fill-rule="nonzero"/><path fill="#ffffff" d="M 163.488281 248.414062 C 161.941406 256.113281 163.355469 260.820312 165.957031 263.296875 C 166.929688 264.21875 168.082031 264.828125 169.296875 265.175781 C 174.117188 258.324219 175.15625 253.402344 174.753906 249.664062 C 174.203125 250.265625 173.511719 250.671875 172.734375 250.914062 C 171.613281 251.269531 170.332031 251.238281 169.046875 250.980469 C 166.984375 250.554688 164.847656 249.480469 163.488281 248.414062 " fill-opacity="1" fill-rule="nonzero"/><path fill="#ffffff" d="M 85.164062 78.328125 C 86.335938 79.671875 87.796875 81.03125 89.3125 82.433594 C 89.457031 78.941406 90.503906 75.96875 92.152344 73.589844 C 93.425781 71.761719 95.050781 70.296875 96.910156 69.21875 C 97.636719 68.792969 98.398438 68.433594 99.1875 68.132812 C 96.113281 66.355469 91.621094 63.824219 88.324219 62.355469 C 80.339844 69.632812 81.5 74.15625 85.164062 78.328125 " fill-opacity="1" fill-rule="nonzero"/><path fill="#ffffff" d="M 92.152344 85.105469 C 92.96875 85.898438 93.769531 86.71875 94.53125 87.574219 C 94.789062 85.03125 95.765625 82.621094 97.246094 80.640625 C 98.472656 79 100.039062 77.644531 101.832031 76.734375 C 103.648438 75.8125 105.675781 75.355469 107.792969 75.527344 C 110.980469 75.789062 114.328125 77.476562 117.355469 81.164062 C 117.53125 79.914062 117.453125 78.679688 117.125 77.511719 C 116.597656 75.636719 115.398438 73.921875 113.515625 72.613281 C 110.300781 70.382812 106.664062 69.554688 103.308594 69.957031 C 101.523438 70.171875 99.816406 70.730469 98.300781 71.613281 C 96.789062 72.484375 95.46875 73.683594 94.425781 75.175781 C 92.683594 77.679688 91.765625 81.027344 92.152344 85.105469 " fill-opacity="1" fill-rule="nonzero"/><path fill="#ffffff" d="M 98.785156 104.066406 C 98.046875 105.960938 96.9375 107.660156 95.667969 109.144531 C 96.535156 108.882812 97.414062 108.636719 98.292969 108.414062 C 100.382812 107.878906 102.507812 107.464844 104.644531 107.164062 C 112.769531 105.125 119.128906 97.6875 125.664062 90.046875 C 135.902344 78.074219 146.546875 65.628906 165.53125 70.683594 C 166.292969 70.886719 167.039062 71.121094 167.761719 71.386719 C 173.144531 73.394531 176.691406 76.984375 178.550781 81.363281 C 178.6875 81.675781 178.8125 82 178.929688 82.324219 C 180.269531 79.984375 181.691406 77.839844 183.179688 75.867188 C 186.738281 71.132812 190.671875 67.441406 194.8125 64.710938 C 190.980469 56.351562 176.253906 56.886719 164.015625 57.335938 C 156.867188 57.589844 150.519531 57.820312 147.0625 56.226562 C 137.519531 66.398438 126.792969 74.195312 120.054688 77.933594 C 120.429688 80.167969 120.140625 82.527344 119.1875 84.828125 L 118.175781 87.28125 L 116.746094 85.042969 C 113.847656 80.507812 110.582031 78.539062 107.574219 78.289062 C 105.980469 78.160156 104.453125 78.511719 103.078125 79.207031 C 101.683594 79.914062 100.449219 80.988281 99.464844 82.300781 C 97.496094 84.949219 96.617188 88.523438 97.699219 91.945312 C 100.226562 96.484375 100.140625 100.578125 98.785156 104.066406 " fill-opacity="1" fill-rule="nonzero"/><path fill="#ffffff" d="M 88.007812 112.105469 C 88.671875 111.683594 89.414062 111.152344 90.207031 110.535156 C 92.519531 108.710938 95.003906 106.167969 96.210938 103.0625 C 97.375 100.066406 97.339844 96.460938 94.746094 92.386719 C 94.40625 91.859375 94.011719 91.300781 93.546875 90.710938 C 91.835938 88.535156 89.707031 86.570312 87.648438 84.671875 C 86.019531 83.167969 84.4375 81.699219 83.082031 80.148438 C 79.21875 75.746094 77.453125 71.121094 82.320312 64.730469 C 75.609375 68.40625 69.707031 74.222656 66.042969 81 C 62.898438 86.820312 61.410156 93.335938 62.492188 99.789062 C 62.5625 100.113281 62.617188 100.433594 62.679688 100.765625 C 62.859375 101.640625 63.09375 102.503906 63.367188 103.371094 C 63.820312 104.757812 64.398438 106.144531 65.128906 107.519531 L 65.445312 108.121094 C 67.890625 112.75 70.664062 118.007812 71.414062 126.542969 C 72.640625 124.71875 73.992188 122.945312 75.46875 121.292969 C 77.777344 118.703125 80.398438 116.398438 83.34375 114.617188 C 84.847656 113.703125 86.40625 112.863281 88.007812 112.105469 " fill-opacity="1" fill-rule="nonzero"/><path fill="#ffffff" d="M 59.378906 193.054688 C 59.679688 193.304688 59.980469 193.566406 60.296875 193.839844 C 61.660156 195.035156 63.28125 196.445312 66.339844 196.925781 C 66.941406 195.769531 67.574219 194.652344 68.230469 193.566406 C 69.910156 190.789062 71.746094 188.265625 73.664062 186.25 C 73.613281 185.601562 73.511719 184.9375 73.359375 184.25 C 73.226562 183.65625 73.058594 183.054688 72.863281 182.433594 C 70.199219 183 66.789062 184.507812 63.988281 186.742188 C 61.824219 188.472656 60.058594 190.621094 59.378906 193.054688 " fill-opacity="1" fill-rule="nonzero"/><path fill="#ffffff" d="M 58.03125 159.519531 C 59.324219 160.671875 61.464844 160.769531 62.09375 159.203125 C 63.289062 156.21875 63.734375 152.5 64.203125 148.539062 C 64.484375 146.167969 63.65625 142.808594 61.464844 141.539062 C 60.730469 141.113281 59.898438 140.867188 59.027344 140.867188 C 58.0625 140.867188 57.039062 141.167969 56.019531 141.851562 C 54.929688 142.585938 54.09375 143.617188 53.484375 144.8125 C 52.777344 146.195312 52.378906 147.800781 52.242188 149.417969 C 51.921875 153.347656 52.894531 155.5625 54.273438 156.511719 C 55.054688 157.050781 55.992188 157.175781 56.867188 156.96875 C 57.777344 156.757812 58.617188 156.199219 59.164062 155.386719 C 60.019531 154.109375 60.15625 152.160156 58.773438 149.820312 C 60.582031 148.75 62.101562 149.773438 62.46875 151.789062 C 62.828125 153.800781 62.378906 155.5625 61.460938 156.925781 C 60.621094 158.175781 59.390625 159.074219 58.03125 159.519531 " fill-opacity="1" fill-rule="nonzero"/><path fill="#ffffff" d="M 106.234375 189.238281 C 105.289062 191.183594 104.824219 193.503906 104.703125 195.890625 C 106.023438 195.921875 107.585938 195.898438 109.265625 195.761719 C 108.390625 195.066406 107.671875 194.179688 107.171875 193.175781 C 106.660156 192.148438 106.378906 190.996094 106.378906 189.777344 C 106.378906 189.46875 106.394531 189.15625 106.429688 188.859375 L 106.234375 189.238281 " fill-opacity="1" fill-rule="evenodd"/><path fill="#ffffff" d="M 109.148438 189.777344 C 109.148438 190.570312 109.332031 191.300781 109.652344 191.953125 C 109.992188 192.632812 110.484375 193.222656 111.078125 193.675781 C 111.480469 193.980469 111.933594 194.222656 112.425781 194.394531 C 113.503906 194.769531 114.695312 194.753906 115.757812 194.351562 C 116.308594 194.144531 116.820312 193.839844 117.261719 193.445312 C 117.78125 192.992188 118.203125 192.425781 118.488281 191.789062 C 118.765625 191.183594 118.921875 190.5 118.921875 189.777344 C 118.921875 188.953125 118.722656 188.183594 118.375 187.523438 C 118.007812 186.820312 117.480469 186.21875 116.835938 185.765625 C 116.433594 185.488281 115.992188 185.265625 115.503906 185.117188 C 115.042969 184.972656 114.554688 184.894531 114.03125 184.894531 C 112.6875 184.894531 111.464844 185.4375 110.582031 186.324219 C 109.695312 187.207031 109.148438 188.429688 109.148438 189.777344 " fill-opacity="1" fill-rule="evenodd"/><path fill="#ffffff" d="M 120.824219 186.242188 C 121.378906 187.3125 121.695312 188.511719 121.695312 189.777344 C 121.695312 190.648438 121.546875 191.492188 121.269531 192.28125 C 123.632812 190.851562 125.710938 188.878906 127.160156 186.160156 C 124.609375 185.519531 122.027344 184.882812 119.574219 184.492188 C 120.066406 185.011719 120.492188 185.601562 120.824219 186.242188 " fill-opacity="1" fill-rule="evenodd"/><path fill="#ffffff" d="M 64.664062 160.234375 C 64.085938 161.675781 63.0625 162.847656 61.953125 164.121094 C 60.921875 165.304688 59.804688 166.585938 59.050781 168.179688 C 58.355469 169.652344 58.257812 171.335938 58.167969 173.054688 C 58.074219 174.796875 57.976562 176.5625 57.324219 178.390625 C 57.011719 179.277344 56.511719 180.019531 55.96875 180.816406 C 55.496094 181.527344 54.988281 182.28125 54.664062 183.101562 C 53.929688 184.929688 53.972656 186.71875 54.601562 188.277344 C 55.082031 189.476562 55.910156 190.542969 56.996094 191.421875 C 57.984375 188.75 59.9375 186.4375 62.265625 184.574219 C 65.867188 181.699219 70.429688 179.878906 73.617188 179.5 L 74.699219 179.371094 L 75.082031 180.394531 C 75.492188 181.507812 75.820312 182.59375 76.058594 183.65625 C 76.289062 184.710938 76.433594 185.746094 76.464844 186.730469 L 76.488281 187.328125 L 76.066406 187.75 C 74.160156 189.664062 72.304688 192.179688 70.605469 194.996094 C 68.714844 198.117188 67.023438 201.589844 65.640625 205.046875 C 64.539062 207.796875 62.644531 213.429688 60.949219 219.484375 C 59.6875 223.992188 58.542969 228.707031 57.929688 232.609375 L 57.929688 232.617188 C 57.6875 234.117188 57.644531 235.496094 57.769531 236.757812 C 58.035156 239.46875 59.078125 241.625 60.621094 243.183594 C 62.171875 244.746094 64.238281 245.734375 66.542969 246.105469 C 67.648438 246.277344 68.8125 246.308594 70 246.191406 C 72.691406 245.925781 75.234375 244.582031 77.582031 243.339844 C 83.363281 240.277344 83.886719 240.632812 90.097656 241.484375 C 98.957031 242.695312 103.078125 235.988281 98.476562 229.203125 C 96.875 226.835938 94.382812 224.898438 91.65625 223.785156 C 91.179688 223.585938 90.65625 223.414062 90.113281 223.253906 C 91.070312 220.730469 94.054688 221.625 96.296875 223.1875 C 98.054688 224.414062 99.605469 225.9375 100.765625 227.648438 C 103.6875 231.964844 103.863281 237.558594 100.550781 241.609375 C 103.554688 242.441406 106.417969 244.109375 109.503906 245.914062 C 113.230469 248.09375 117.3125 250.476562 122.207031 251.648438 C 123.492188 251.957031 125.019531 252.082031 126.519531 252.207031 C 129.066406 252.417969 131.566406 252.625 133.523438 253.75 C 135.25 254.75 136.734375 256.351562 138.277344 258.195312 C 145.429688 260.242188 147.59375 256.484375 149.933594 252.410156 C 151.699219 249.339844 153.546875 246.128906 157.257812 244.34375 C 158.34375 243.824219 159.558594 243.648438 160.953125 243.964844 C 162.207031 244.25 163.597656 244.953125 165.140625 246.191406 C 166.207031 247.046875 167.929688 247.925781 169.597656 248.269531 C 170.453125 248.441406 171.269531 248.472656 171.914062 248.269531 C 172.421875 248.109375 172.835938 247.773438 173.078125 247.199219 C 173.3125 246.632812 173.417969 245.851562 173.34375 244.808594 C 173.019531 244.121094 172.683594 243.484375 172.375 242.890625 C 171.910156 242.003906 171.480469 241.199219 171.179688 240.40625 C 169.34375 235.601562 172.714844 233.589844 176.566406 231.300781 C 179.382812 229.625 182.535156 227.753906 183.132812 224.328125 C 185.933594 224.808594 185.65625 226.605469 184.375 228.488281 C 183.804688 229.332031 183.105469 230.070312 182.339844 230.726562 C 184.386719 234.433594 187.832031 235.898438 191.046875 237.269531 C 194.402344 238.695312 197.542969 240.027344 199.246094 243.445312 C 201.679688 248.339844 198.597656 254.191406 195.964844 259.167969 C 195.402344 260.242188 194.855469 261.269531 194.40625 262.214844 C 192.636719 265.960938 196.3125 266.429688 199.210938 266.648438 C 205.859375 267.152344 211.394531 269.972656 215.449219 274.027344 C 218.429688 277.015625 220.605469 280.671875 221.8125 284.554688 C 223.035156 288.460938 223.289062 292.609375 222.425781 296.558594 C 221.878906 299.0625 220.886719 301.476562 219.417969 303.710938 C 223.054688 302.0625 226.894531 300.78125 231.117188 300.394531 C 232.4375 300.273438 233.667969 300.285156 234.816406 300.414062 C 239.023438 294.699219 236.238281 289.128906 233.148438 282.96875 C 229.363281 275.394531 225.164062 267.023438 230.992188 256.238281 C 229.695312 256.566406 228.394531 256.808594 227.085938 256.953125 C 221.5 257.582031 215.972656 256.539062 211.707031 253.917969 C 206.25 250.574219 202.84375 244.722656 203.910156 236.589844 C 203.539062 236.492188 203.167969 236.378906 202.8125 236.253906 C 201.011719 235.636719 199.382812 234.695312 198.015625 233.476562 C 196.640625 232.246094 195.546875 230.734375 194.828125 228.984375 C 194.070312 227.101562 193.734375 224.953125 193.960938 222.59375 C 194.132812 220.730469 194.898438 217.664062 197.480469 216.96875 C 197.90625 220.222656 200.539062 221.460938 202.519531 221.390625 C 203.808594 221.347656 205.089844 220.878906 206.09375 220.058594 C 207.074219 219.257812 207.789062 218.121094 207.984375 216.71875 C 208.371094 213.878906 206.707031 209.957031 201.164062 205.375 C 200.324219 204.910156 199.492188 204.402344 198.679688 203.855469 C 193.546875 200.445312 188.902344 195.589844 185.160156 190.082031 C 178.050781 179.632812 173.601562 164.023438 175.007812 151.382812 C 169.820312 151.996094 164.667969 151.015625 160.203125 149.214844 C 154.117188 146.765625 149.234375 142.757812 147.132812 139.144531 L 146.515625 138.097656 L 147.488281 137.355469 C 151.226562 134.503906 154.210938 131.324219 157.097656 128.246094 L 157.269531 128.0625 C 151.757812 122.832031 144.863281 118.28125 137.4375 114.972656 C 130.066406 111.691406 122.199219 109.640625 114.667969 109.382812 C 109.488281 109.207031 104.144531 109.785156 98.976562 111.097656 C 93.949219 112.378906 89.113281 114.34375 84.777344 116.976562 C 82.085938 118.609375 79.667969 120.734375 77.527344 123.132812 C 75.0625 125.894531 72.949219 129.039062 71.195312 132.238281 C 68.316406 137.472656 67.609375 143.402344 66.960938 148.867188 C 66.464844 153 66 156.890625 64.664062 160.234375 Z M 98.332031 166.917969 C 102.832031 164.609375 107.421875 162.246094 113.117188 160.785156 C 128.425781 156.847656 137.570312 161.546875 148.039062 166.929688 C 152.515625 169.230469 157.246094 171.660156 162.800781 173.546875 C 162.417969 174.675781 162.007812 176.320312 158.28125 174.828125 C 154.078125 173.144531 150.347656 171.230469 146.769531 169.386719 C 136.792969 164.261719 128.085938 159.789062 113.800781 163.464844 C 108.4375 164.839844 103.972656 167.132812 99.601562 169.378906 L 99.59375 169.378906 C 96.136719 171.160156 92.726562 172.910156 88.9375 174.199219 C 84.769531 175.609375 84.429688 174.578125 83.578125 172.796875 C 89.070312 171.683594 93.648438 169.328125 98.332031 166.917969 Z M 105.5625 174.863281 C 113.078125 171.789062 121.730469 174.667969 130.453125 177.5625 C 139.898438 180.707031 149.429688 183.871094 156.796875 178.898438 C 157.628906 179.558594 158.691406 181.527344 154.929688 183.003906 C 151.75 184.25 148.382812 184.488281 144.917969 184.136719 C 142.527344 191.816406 137.792969 198.503906 130.320312 202.601562 C 124.503906 205.78125 117.039062 207.371094 107.761719 206.585938 C 106.148438 206.453125 103.328125 205.511719 103.792969 203.324219 C 114.488281 204.988281 122.792969 203.566406 129 200.167969 C 134.117188 197.367188 137.824219 193.203125 140.277344 188.300781 C 137.179688 188.480469 133.621094 187.75 129.914062 186.847656 C 127.171875 192.5 122.25 195.527344 117.167969 197.097656 C 111.910156 198.722656 106.492188 198.773438 103.210938 198.605469 L 101.894531 198.539062 L 101.894531 197.222656 C 101.894531 194.003906 102.414062 190.742188 103.742188 188.023438 C 104.914062 185.625 106.699219 183.65625 109.28125 182.5 C 114.574219 180.136719 121.527344 181.890625 128.230469 183.574219 C 131.34375 184.355469 140.722656 186.910156 142.136719 183.734375 C 138.027344 182.996094 133.796875 181.585938 129.585938 180.1875 C 121.347656 177.453125 113.175781 174.738281 106.605469 177.417969 C 101.78125 179.390625 99.167969 183.867188 97.777344 188.734375 C 96.324219 193.800781 96.179688 199.277344 96.253906 202.960938 C 93.402344 203.011719 93.441406 200.683594 93.53125 198.546875 C 93.671875 195.296875 94.082031 191.550781 95.109375 187.976562 C 96.707031 182.390625 99.785156 177.222656 105.5625 174.863281 " fill-opacity="1" fill-rule="evenodd"/></svg>