<svg xmlns="http://www.w3.org/2000/svg" xmlns:xlink="http://www.w3.org/1999/xlink" width="500" zoomAndPan="magnify" viewBox="0 0 375 374.999991" height="500" preserveAspectRatio="xMidYMid meet" version="1.0"><defs><clipPath id="b9cbe5836d"><path d="M 41.226562 188 L 73 188 L 73 232 L 41.226562 232 Z M 41.226562 188 " clip-rule="nonzero"/></clipPath><clipPath id="51f3f73684"><path d="M 108 47.261719 L 142 47.261719 L 142 89 L 108 89 Z M 108 47.261719 " clip-rule="nonzero"/></clipPath><clipPath id="81db148efa"><path d="M 61 73 L 210 73 L 210 327.761719 L 61 327.761719 Z M 61 73 " clip-rule="nonzero"/></clipPath><clipPath id="e2eeeb701d"><path d="M 302 188 L 333.726562 188 L 333.726562 232 L 302 232 Z M 302 188 " clip-rule="nonzero"/></clipPath><clipPath id="ddcfcdaef9"><path d="M 233 47.261719 L 267 47.261719 L 267 89 L 233 89 Z M 233 47.261719 " clip-rule="nonzero"/></clipPath><clipPath id="91b88c3c56"><path d="M 165 73 L 314 73 L 314 327.761719 L 165 327.761719 Z M 165 73 " clip-rule="nonzero"/></clipPath></defs><path fill="#ffffff" d="M 134.859375 297.914062 C 133.734375 298.140625 132.59375 298.351562 131.433594 298.546875 C 130.847656 298.640625 130.265625 298.730469 129.683594 298.824219 C 129.09375 298.914062 128.503906 298.996094 127.921875 299.050781 C 126.75 299.171875 125.5625 299.277344 124.363281 299.367188 C 123.761719 299.40625 123.160156 299.449219 122.554688 299.488281 C 121.949219 299.527344 121.335938 299.5625 120.742188 299.566406 C 118.625 299.605469 116.4375 299.617188 114.203125 299.566406 C 112.007812 299.449219 109.765625 299.269531 107.488281 299 C 105.234375 298.691406 102.988281 298.238281 100.710938 297.691406 C 100.425781 297.617188 100.144531 297.546875 99.859375 297.476562 C 99.582031 297.390625 99.304688 297.308594 99.027344 297.226562 C 98.472656 297.054688 97.917969 296.878906 97.363281 296.691406 C 96.253906 296.316406 95.144531 295.910156 94.039062 295.464844 C 93.296875 295.179688 92.589844 294.828125 91.878906 294.472656 C 90.621094 293.832031 88.980469 292.949219 87.636719 291.828125 C 86.328125 290.675781 85.335938 289.273438 85.328125 287.722656 C 85.320312 285.742188 86.089844 284.679688 87.277344 284.195312 C 88.464844 283.710938 90.066406 283.800781 91.761719 284.167969 C 92.613281 284.347656 93.472656 284.609375 94.347656 284.878906 C 95.230469 285.140625 96.097656 285.4375 96.917969 285.734375 C 97.738281 286.035156 98.503906 286.339844 99.1875 286.609375 C 99.867188 286.886719 100.460938 287.132812 100.953125 287.300781 C 108.246094 290.058594 115.488281 292.710938 122.710938 294.8125 L 123.804688 295.148438 C 124.167969 295.261719 124.546875 295.347656 124.917969 295.449219 C 125.660156 295.644531 126.398438 295.839844 127.136719 296.035156 C 127.871094 296.230469 128.601562 296.425781 129.335938 296.621094 C 129.699219 296.722656 130.066406 296.8125 130.4375 296.894531 L 131.550781 297.144531 C 132.363281 297.332031 134.050781 298.078125 134.859375 297.914062 " fill-opacity="1" fill-rule="nonzero"/><path fill="#ffffff" d="M 134.859375 297.914062 C 134.140625 295.726562 133.425781 293.558594 132.714844 291.402344 C 132.054688 289.207031 131.417969 287.046875 130.816406 284.933594 C 130.542969 284.015625 130.316406 283.039062 130.082031 282.085938 C 129.851562 281.140625 129.625 280.191406 129.394531 279.238281 L 129.058594 277.828125 C 128.945312 277.363281 128.835938 276.894531 128.738281 276.414062 C 128.535156 275.464844 128.328125 274.519531 128.125 273.578125 C 127.699219 271.714844 127.277344 269.878906 126.867188 268.078125 C 126.441406 266.269531 125.941406 264.578125 125.460938 262.847656 C 125.296875 262.28125 125.117188 261.722656 124.925781 261.179688 C 124.753906 260.695312 124.550781 260.148438 124.300781 259.601562 C 124.066406 259.046875 123.800781 258.472656 123.46875 257.984375 C 122.8125 256.992188 121.894531 256.3125 120.605469 256.402344 C 118.976562 256.496094 117.863281 257.160156 117.15625 258.1875 C 116.800781 258.703125 116.546875 259.304688 116.375 259.96875 C 116.207031 260.628906 116.105469 261.371094 116.105469 262.105469 C 116.09375 263.578125 116.34375 265.175781 116.664062 266.621094 C 116.96875 268.089844 117.429688 269.308594 117.6875 270.152344 C 119.71875 276.53125 123.023438 282.726562 127.144531 288.492188 C 127.550781 289.105469 127.992188 289.671875 128.433594 290.25 C 128.878906 290.832031 129.328125 291.410156 129.773438 291.988281 C 130.234375 292.570312 130.691406 293.152344 131.148438 293.730469 C 131.617188 294.308594 132.113281 294.84375 132.601562 295.40625 C 133.140625 296.015625 134.597656 297.117188 134.859375 297.914062 " fill-opacity="1" fill-rule="nonzero"/><path fill="#ffffff" d="M 166.785156 308.773438 C 165.761719 309.296875 164.71875 309.808594 163.652344 310.304688 C 163.117188 310.550781 162.578125 310.796875 162.042969 311.042969 C 161.5 311.289062 160.949219 311.527344 160.40625 311.734375 C 159.3125 312.164062 158.195312 312.585938 157.066406 312.992188 C 156.492188 313.195312 155.925781 313.394531 155.355469 313.597656 C 154.78125 313.796875 154.203125 313.996094 153.625 314.160156 C 151.597656 314.765625 149.496094 315.363281 147.328125 315.914062 C 145.183594 316.394531 142.976562 316.820312 140.707031 317.171875 C 138.453125 317.484375 136.171875 317.644531 133.832031 317.730469 C 133.535156 317.738281 133.242188 317.746094 132.953125 317.753906 C 132.660156 317.746094 132.371094 317.742188 132.082031 317.738281 C 131.503906 317.722656 130.917969 317.699219 130.335938 317.667969 C 129.164062 317.605469 127.988281 317.511719 126.804688 317.378906 C 126.011719 317.300781 125.238281 317.15625 124.457031 317 C 123.074219 316.722656 121.257812 316.3125 119.664062 315.59375 C 118.089844 314.839844 116.761719 313.753906 116.335938 312.261719 C 115.796875 310.355469 116.253906 309.125 117.265625 308.339844 C 118.277344 307.554688 119.847656 307.210938 121.578125 307.109375 C 122.445312 307.050781 123.34375 307.074219 124.261719 307.097656 C 125.179688 307.113281 126.097656 307.167969 126.964844 307.234375 C 127.835938 307.304688 128.65625 307.386719 129.386719 307.46875 C 130.113281 307.550781 130.753906 307.628906 131.269531 307.65625 C 139.039062 308.355469 146.726562 308.964844 154.246094 309.050781 L 155.394531 309.078125 C 155.773438 309.089844 156.164062 309.074219 156.546875 309.070312 C 157.3125 309.058594 158.078125 309.050781 158.839844 309.039062 C 159.597656 309.03125 160.355469 309.023438 161.113281 309.015625 C 161.492188 309.015625 161.871094 309.003906 162.25 308.980469 L 163.390625 308.921875 C 164.222656 308.882812 166.050781 309.152344 166.785156 308.773438 " fill-opacity="1" fill-rule="nonzero"/><path fill="#ffffff" d="M 166.785156 308.773438 C 165.503906 306.863281 164.234375 304.964844 162.96875 303.078125 C 161.742188 301.140625 160.550781 299.230469 159.402344 297.359375 C 158.894531 296.550781 158.414062 295.664062 157.929688 294.8125 C 157.457031 293.964844 156.980469 293.109375 156.503906 292.253906 L 155.800781 290.988281 C 155.570312 290.570312 155.335938 290.148438 155.113281 289.710938 C 154.660156 288.851562 154.207031 287.996094 153.761719 287.144531 C 152.847656 285.464844 151.949219 283.804688 151.070312 282.183594 C 150.175781 280.554688 149.242188 279.058594 148.316406 277.523438 C 148.003906 277.019531 147.679688 276.53125 147.347656 276.058594 C 147.054688 275.640625 146.710938 275.164062 146.324219 274.707031 C 145.949219 274.234375 145.539062 273.753906 145.085938 273.371094 C 144.1875 272.59375 143.125 272.183594 141.90625 272.617188 C 140.363281 273.144531 139.46875 274.085938 139.058594 275.265625 C 138.855469 275.855469 138.773438 276.503906 138.789062 277.191406 C 138.804688 277.871094 138.90625 278.613281 139.101562 279.316406 C 139.488281 280.742188 140.15625 282.210938 140.855469 283.519531 C 141.542969 284.851562 142.308594 285.902344 142.789062 286.644531 C 146.457031 292.246094 151.304688 297.324219 156.824219 301.769531 C 157.378906 302.253906 157.957031 302.679688 158.535156 303.121094 C 159.121094 303.558594 159.707031 303.996094 160.292969 304.433594 C 160.890625 304.871094 161.488281 305.308594 162.085938 305.742188 C 162.695312 306.171875 163.3125 306.558594 163.933594 306.964844 C 164.617188 307.410156 166.316406 308.078125 166.785156 308.773438 " fill-opacity="1" fill-rule="nonzero"/><path fill="#ffffff" d="M 109.296875 281.566406 C 108.140625 281.527344 106.976562 281.46875 105.792969 281.386719 C 104.617188 281.304688 103.472656 281.152344 102.292969 281.003906 C 101.117188 280.851562 99.9375 280.679688 98.742188 280.492188 C 97.550781 280.300781 96.394531 280.042969 95.207031 279.792969 C 93.128906 279.34375 90.96875 278.875 88.871094 278.242188 C 87.8125 277.933594 86.746094 277.609375 85.671875 277.265625 C 85.136719 277.089844 84.589844 276.917969 84.0625 276.726562 C 83.535156 276.527344 83.011719 276.328125 82.484375 276.117188 C 78.246094 274.476562 74.082031 272.335938 70.269531 269.542969 C 69.636719 269.070312 69.015625 268.582031 68.402344 268.074219 C 67.859375 267.621094 67.234375 267.089844 66.617188 266.492188 C 65.996094 265.902344 65.425781 265.214844 64.917969 264.507812 C 63.910156 263.085938 63.246094 261.511719 63.59375 260.007812 C 64.078125 258.0625 65.082031 257.207031 66.339844 257.019531 C 66.96875 256.925781 67.660156 257 68.386719 257.191406 C 69.132812 257.375 69.914062 257.671875 70.703125 258.042969 C 71.492188 258.414062 72.292969 258.855469 73.070312 259.328125 C 73.457031 259.5625 73.839844 259.808594 74.214844 260.054688 C 74.589844 260.304688 74.957031 260.550781 75.328125 260.785156 C 76.796875 261.738281 78.066406 262.652344 78.90625 263.230469 C 85.371094 267.597656 91.742188 271.898438 98.246094 275.65625 L 100.234375 276.804688 C 100.566406 276.992188 100.886719 277.191406 101.222656 277.371094 L 102.238281 277.910156 C 103.574219 278.628906 104.910156 279.34375 106.242188 280.058594 C 106.988281 280.429688 108.46875 281.539062 109.296875 281.566406 " fill-opacity="1" fill-rule="nonzero"/><path fill="#ffffff" d="M 109.296875 281.566406 C 109.109375 279.257812 108.898438 277.023438 108.789062 274.722656 C 108.726562 273.59375 108.664062 272.46875 108.601562 271.34375 C 108.574219 270.789062 108.546875 270.234375 108.519531 269.683594 C 108.496094 269.125 108.492188 268.558594 108.476562 268 C 108.4375 266.03125 108.425781 264.078125 108.425781 262.148438 C 108.46875 260.171875 108.515625 258.230469 108.535156 256.332031 C 108.628906 252.484375 108.65625 248.785156 108.476562 245.242188 C 108.4375 244.65625 108.386719 244.078125 108.320312 243.503906 C 108.234375 242.464844 108.101562 241.132812 107.671875 240.03125 C 107.460938 239.476562 107.144531 238.996094 106.78125 238.59375 C 106.402344 238.195312 105.914062 237.914062 105.277344 237.804688 C 102.019531 237.234375 100.320312 239.382812 99.558594 242.296875 C 99.371094 243.019531 99.214844 243.804688 99.144531 244.5625 C 99.074219 245.324219 99.042969 246.089844 99.039062 246.828125 C 99.035156 248.292969 99.113281 249.648438 99.179688 250.519531 C 99.65625 257.214844 101.46875 263.957031 104.070312 270.570312 C 104.339844 271.25 104.609375 271.929688 104.878906 272.609375 L 105.085938 273.121094 L 105.3125 273.617188 L 105.769531 274.613281 C 106.382812 275.9375 107.019531 277.28125 107.679688 278.625 C 108.0625 279.339844 109.226562 280.738281 109.296875 281.566406 " fill-opacity="1" fill-rule="nonzero"/><path fill="#ffffff" d="M 88.050781 259.246094 L 87.203125 259.015625 L 86.378906 258.757812 C 85.828125 258.574219 85.273438 258.394531 84.722656 258.214844 C 83.617188 257.839844 82.503906 257.445312 81.386719 257.027344 C 80.25 256.621094 79.191406 256.140625 78.089844 255.667969 C 76.996094 255.1875 75.894531 254.6875 74.792969 254.167969 C 73.804688 253.71875 72.882812 253.214844 71.914062 252.714844 C 70.957031 252.207031 69.992188 251.6875 69.019531 251.144531 C 68.535156 250.875 68.046875 250.597656 67.5625 250.316406 C 67.089844 250.019531 66.621094 249.726562 66.152344 249.429688 C 65.207031 248.828125 64.265625 248.207031 63.328125 247.558594 C 62.859375 247.234375 62.390625 246.902344 61.921875 246.566406 C 61.453125 246.230469 61.019531 245.871094 60.566406 245.515625 C 59.675781 244.800781 58.792969 244.054688 57.921875 243.285156 C 56.144531 241.757812 54.570312 240.046875 53.027344 238.238281 C 52.519531 237.632812 52.007812 237.015625 51.535156 236.371094 C 50.722656 235.222656 49.6875 233.671875 49.019531 232.054688 C 48.328125 230.445312 48.140625 228.722656 48.84375 227.339844 C 49.761719 225.570312 50.941406 224.984375 52.210938 225.101562 C 53.484375 225.222656 54.855469 226.050781 56.183594 227.160156 C 56.832031 227.722656 57.523438 228.335938 58.179688 228.980469 C 58.835938 229.621094 59.464844 230.289062 60.046875 230.933594 C 60.628906 231.578125 61.164062 232.203125 61.644531 232.761719 C 62.140625 233.3125 62.578125 233.792969 62.921875 234.175781 C 68.144531 239.976562 73.304688 245.675781 78.71875 250.878906 C 80.992188 252.96875 83.164062 255.070312 85.484375 257.023438 C 85.796875 257.300781 86.234375 257.800781 86.695312 258.261719 C 86.925781 258.492188 87.15625 258.714844 87.382812 258.890625 C 87.621094 259.0625 87.847656 259.191406 88.050781 259.246094 " fill-opacity="1" fill-rule="nonzero"/><path fill="#ffffff" d="M 88.050781 259.246094 C 88.800781 254.667969 89.550781 250.214844 90.511719 245.859375 C 90.71875 244.90625 90.914062 243.964844 91.144531 243.011719 C 91.386719 242.058594 91.628906 241.105469 91.871094 240.152344 C 92.359375 238.257812 92.816406 236.410156 93.347656 234.539062 C 93.597656 233.609375 93.84375 232.691406 94.070312 231.785156 C 94.183594 231.328125 94.296875 230.878906 94.40625 230.429688 C 94.507812 229.980469 94.644531 229.519531 94.753906 229.070312 C 94.984375 228.167969 95.199219 227.277344 95.390625 226.394531 C 95.484375 225.957031 95.574219 225.515625 95.660156 225.082031 C 95.699219 224.863281 95.738281 224.648438 95.777344 224.433594 C 95.824219 224.214844 95.871094 223.996094 95.914062 223.777344 C 96.035156 223.191406 96.136719 222.613281 96.222656 222.042969 C 96.296875 221.53125 96.375 220.949219 96.410156 220.347656 C 96.449219 219.75 96.4375 219.136719 96.390625 218.539062 C 96.269531 217.359375 95.800781 216.324219 94.601562 215.816406 C 94.21875 215.65625 93.84375 215.539062 93.492188 215.464844 C 93.148438 215.386719 92.8125 215.351562 92.492188 215.355469 C 91.847656 215.363281 91.246094 215.53125 90.695312 215.820312 C 90.144531 216.113281 89.628906 216.535156 89.175781 217.042969 C 88.730469 217.546875 88.335938 218.144531 87.984375 218.800781 C 87.28125 220.105469 86.757812 221.636719 86.363281 223.074219 C 86.023438 224.492188 85.816406 225.804688 85.664062 226.671875 C 84.527344 233.273438 84.652344 240.273438 85.59375 247.320312 C 85.808594 248.746094 86.042969 250.1875 86.292969 251.644531 C 86.359375 252.007812 86.417969 252.375 86.488281 252.738281 L 86.726562 253.8125 C 86.890625 254.535156 87.058594 255.253906 87.222656 255.976562 C 87.417969 256.765625 88.148438 258.445312 88.050781 259.246094 " fill-opacity="1" fill-rule="nonzero"/><g clip-path="url(#b9cbe5836d)"><path fill="#ffffff" d="M 72.199219 231.117188 C 71.203125 230.535156 70.171875 229.9375 69.203125 229.296875 C 68.234375 228.65625 67.269531 227.988281 66.300781 227.296875 C 65.339844 226.605469 64.351562 225.902344 63.414062 225.160156 C 62.488281 224.414062 61.5625 223.648438 60.636719 222.863281 C 59.824219 222.171875 58.996094 221.464844 58.179688 220.738281 C 57.390625 220 56.597656 219.246094 55.804688 218.46875 C 55.011719 217.695312 54.21875 216.898438 53.4375 216.082031 C 52.65625 215.265625 51.9375 214.410156 51.199219 213.539062 C 50.464844 212.667969 49.746094 211.773438 49.035156 210.851562 L 48.507812 210.160156 L 48.015625 209.449219 C 47.6875 208.972656 47.367188 208.492188 47.050781 208.003906 C 45.789062 206.050781 44.558594 204.007812 43.609375 201.839844 C 43.28125 201.117188 42.964844 200.382812 42.667969 199.636719 C 42.410156 198.972656 42.101562 198.203125 41.863281 197.375 C 41.632812 196.546875 41.4375 195.664062 41.335938 194.789062 C 41.234375 193.914062 41.230469 193.050781 41.375 192.257812 C 41.523438 191.46875 41.8125 190.75 42.355469 190.171875 C 43.722656 188.691406 45.015625 188.429688 46.207031 188.878906 C 47.402344 189.328125 48.464844 190.488281 49.519531 191.90625 C 50.550781 193.328125 51.472656 195.015625 52.242188 196.570312 C 53.070312 198.121094 53.757812 199.539062 54.21875 200.453125 C 57.789062 207.425781 61.339844 214.261719 65.273438 220.667969 C 66.097656 221.96875 66.878906 223.273438 67.707031 224.550781 C 68.550781 225.816406 69.398438 227.078125 70.242188 228.335938 C 70.671875 229.035156 71.484375 230.699219 72.199219 231.117188 " fill-opacity="1" fill-rule="nonzero"/></g><path fill="#ffffff" d="M 72.199219 231.117188 C 72.652344 230.066406 73.109375 229.015625 73.5625 227.972656 C 74.042969 226.929688 74.523438 225.886719 75.003906 224.851562 C 75.476562 223.828125 75.953125 222.808594 76.425781 221.792969 C 76.65625 221.292969 76.90625 220.789062 77.164062 220.285156 C 77.417969 219.785156 77.671875 219.285156 77.925781 218.785156 C 78.371094 217.925781 78.820312 217.058594 79.273438 216.1875 C 79.726562 215.328125 80.171875 214.476562 80.667969 213.617188 C 81.636719 211.910156 82.597656 210.226562 83.507812 208.574219 C 84.488281 206.910156 85.429688 205.273438 86.285156 203.660156 C 86.695312 202.859375 87.175781 202.050781 87.589844 201.25 C 88.011719 200.449219 88.410156 199.65625 88.777344 198.867188 C 89.019531 198.332031 89.257812 197.804688 89.496094 197.28125 C 89.917969 196.339844 90.4375 195.121094 90.582031 193.964844 C 90.621094 193.675781 90.632812 193.390625 90.617188 193.109375 C 90.613281 192.828125 90.582031 192.554688 90.511719 192.296875 C 90.375 191.773438 90.078125 191.296875 89.574219 190.898438 C 86.984375 188.855469 84.46875 189.894531 82.398438 192.066406 C 81.882812 192.601562 81.390625 193.207031 80.933594 193.835938 C 80.488281 194.464844 80.109375 195.117188 79.75 195.757812 C 79.039062 197.03125 78.480469 198.25 78.097656 199.046875 C 75.320312 205.117188 73.671875 211.90625 72.816406 218.957031 C 72.734375 219.683594 72.652344 220.40625 72.574219 221.132812 C 72.5 221.859375 72.410156 222.597656 72.382812 223.324219 C 72.300781 224.78125 72.234375 226.261719 72.1875 227.753906 C 72.179688 227.960938 72.191406 228.226562 72.210938 228.523438 C 72.238281 228.816406 72.269531 229.136719 72.300781 229.460938 C 72.351562 230.101562 72.363281 230.734375 72.199219 231.117188 " fill-opacity="1" fill-rule="nonzero"/><path fill="#ffffff" d="M 64.117188 201.25 C 62.503906 199.625 60.914062 197.902344 59.34375 196.085938 C 57.855469 194.265625 56.398438 192.355469 54.957031 190.371094 C 53.757812 188.621094 52.566406 186.796875 51.386719 184.898438 C 50.777344 183.945312 50.265625 182.972656 49.726562 181.984375 C 49.195312 180.992188 48.675781 179.980469 48.171875 178.949219 C 47.917969 178.433594 47.671875 177.914062 47.425781 177.386719 C 47.203125 176.863281 46.984375 176.332031 46.773438 175.800781 C 46.34375 174.730469 45.9375 173.640625 45.558594 172.53125 C 44.753906 170.3125 44.238281 168.035156 43.785156 165.6875 C 43.640625 164.902344 43.511719 164.109375 43.402344 163.308594 C 43.261719 161.90625 43.121094 160.054688 43.339844 158.316406 C 43.4375 157.449219 43.667969 156.617188 44.023438 155.894531 C 44.378906 155.171875 44.859375 154.558594 45.511719 154.132812 C 47.171875 153.046875 48.484375 153.113281 49.535156 153.847656 C 50.589844 154.578125 51.378906 155.976562 51.992188 157.597656 C 52.144531 158.003906 52.289062 158.421875 52.421875 158.851562 C 52.554688 159.28125 52.699219 159.71875 52.824219 160.160156 C 53.078125 161.042969 53.296875 161.929688 53.488281 162.78125 C 53.679688 163.628906 53.824219 164.433594 53.984375 165.160156 C 54.144531 165.886719 54.289062 166.519531 54.398438 167.027344 C 56.082031 174.675781 57.757812 182.199219 60.007812 189.398438 C 60.203125 190.132812 60.480469 190.863281 60.714844 191.589844 C 60.957031 192.316406 61.195312 193.042969 61.4375 193.765625 C 61.679688 194.492188 61.902344 195.210938 62.152344 195.929688 C 62.417969 196.640625 62.683594 197.351562 62.949219 198.0625 C 63.242188 198.84375 63.535156 200.667969 64.117188 201.25 " fill-opacity="1" fill-rule="nonzero"/><path fill="#ffffff" d="M 64.117188 201.25 C 65.554688 199.445312 66.976562 197.652344 68.390625 195.867188 C 69.074219 194.992188 69.84375 194.117188 70.5625 193.257812 C 71.292969 192.410156 72.015625 191.566406 72.742188 190.722656 C 73.976562 189.257812 75.382812 187.820312 76.707031 186.410156 C 77.371094 185.710938 78.035156 185.011719 78.695312 184.3125 C 79.363281 183.621094 80.066406 182.933594 80.730469 182.253906 C 81.402344 181.570312 82.0625 180.894531 82.703125 180.222656 C 83.019531 179.882812 83.335938 179.546875 83.652344 179.210938 C 83.980469 178.875 84.308594 178.542969 84.632812 178.210938 C 85.273438 177.542969 85.898438 176.878906 86.492188 176.210938 C 86.792969 175.875 87.082031 175.542969 87.367188 175.210938 L 87.792969 174.707031 C 87.9375 174.542969 88.085938 174.375 88.234375 174.210938 C 88.625 173.765625 89 173.316406 89.355469 172.863281 C 89.671875 172.460938 90.027344 172 90.355469 171.5 C 90.6875 171.003906 90.960938 170.472656 91.214844 169.925781 C 91.691406 168.839844 91.792969 167.707031 91 166.671875 C 90.007812 165.351562 88.863281 164.785156 87.609375 164.75 C 86.363281 164.710938 85.011719 165.207031 83.773438 166 C 82.519531 166.792969 81.300781 167.867188 80.265625 168.925781 C 79.273438 169.984375 78.445312 171.019531 77.886719 171.695312 C 73.648438 176.855469 70.324219 183.003906 67.722656 189.621094 C 67.226562 190.96875 66.742188 192.34375 66.261719 193.738281 C 66.035156 194.4375 65.769531 195.140625 65.574219 195.847656 C 65.375 196.558594 65.179688 197.269531 64.980469 197.980469 C 64.765625 198.769531 64.640625 200.589844 64.117188 201.25 " fill-opacity="1" fill-rule="nonzero"/><path fill="#ffffff" d="M 64.003906 168.730469 C 63.425781 167.730469 62.820312 166.703125 62.292969 165.664062 C 61.769531 164.625 61.257812 163.566406 60.753906 162.488281 C 59.71875 160.328125 58.878906 158.117188 58.019531 155.835938 C 57.835938 155.332031 57.640625 154.824219 57.464844 154.316406 C 57.300781 153.804688 57.132812 153.292969 56.960938 152.78125 C 56.628906 151.746094 56.300781 150.695312 55.984375 149.628906 C 55.65625 148.558594 55.394531 147.484375 55.136719 146.390625 C 54.878906 145.296875 54.636719 144.191406 54.414062 143.066406 C 54.296875 142.503906 54.207031 141.941406 54.125 141.378906 C 54.039062 140.8125 53.960938 140.246094 53.890625 139.675781 C 53.746094 138.53125 53.625 137.375 53.535156 136.207031 C 53.476562 135.050781 53.445312 133.882812 53.449219 132.707031 C 53.460938 131.53125 53.46875 130.332031 53.589844 129.160156 C 53.664062 128.371094 53.753906 127.582031 53.871094 126.789062 C 53.972656 126.085938 54.097656 125.269531 54.285156 124.429688 C 54.484375 123.59375 54.75 122.734375 55.089844 121.925781 C 55.773438 120.308594 56.753906 118.898438 58.261719 118.425781 C 60.164062 117.808594 61.417969 118.21875 62.238281 119.195312 C 62.648438 119.679688 62.949219 120.3125 63.171875 121.039062 C 63.390625 121.765625 63.515625 122.574219 63.625 123.453125 C 63.828125 125.195312 63.789062 127.113281 63.710938 128.851562 C 63.671875 130.605469 63.554688 132.171875 63.503906 133.191406 C 63.164062 141.007812 62.855469 148.699219 63.128906 156.21875 C 63.199219 157.75 63.269531 159.277344 63.339844 160.800781 C 63.449219 162.316406 63.5625 163.828125 63.671875 165.339844 C 63.703125 166.164062 63.585938 168.011719 64.003906 168.730469 " fill-opacity="1" fill-rule="nonzero"/><path fill="#ffffff" d="M 64.003906 168.730469 C 64.917969 168.042969 65.832031 167.355469 66.738281 166.667969 C 67.671875 166 68.601562 165.332031 69.53125 164.667969 C 70.449219 164.015625 71.363281 163.363281 72.277344 162.714844 C 73.210938 162.089844 74.140625 161.464844 75.070312 160.84375 C 75.882812 160.3125 76.695312 159.78125 77.511719 159.246094 C 78.347656 158.734375 79.1875 158.222656 80.023438 157.707031 C 80.851562 157.203125 81.679688 156.699219 82.503906 156.199219 C 83.320312 155.699219 84.179688 155.21875 85 154.730469 C 85.824219 154.242188 86.632812 153.757812 87.429688 153.269531 C 88.234375 152.78125 89.035156 152.300781 89.828125 151.824219 C 90.617188 151.339844 91.382812 150.851562 92.121094 150.355469 C 92.882812 149.867188 93.640625 149.378906 94.359375 148.875 C 94.84375 148.539062 95.3125 148.195312 95.761719 147.84375 C 96.152344 147.527344 96.640625 147.179688 97.097656 146.785156 C 97.554688 146.390625 97.996094 145.957031 98.351562 145.488281 C 99.035156 144.542969 99.476562 143.503906 98.980469 142.308594 C 97.734375 139.242188 95.03125 138.914062 92.164062 139.789062 C 91.449219 140.003906 90.71875 140.289062 90.019531 140.613281 C 89.332031 140.949219 88.667969 141.324219 88.039062 141.703125 C 86.792969 142.464844 85.667969 143.234375 84.988281 143.757812 C 79.550781 147.660156 74.757812 152.753906 70.535156 158.460938 C 69.6875 159.632812 68.839844 160.824219 68.003906 162.042969 C 67.214844 163.273438 66.429688 164.523438 65.648438 165.796875 C 65.542969 165.972656 65.421875 166.210938 65.292969 166.480469 C 65.171875 166.75 65.039062 167.042969 64.910156 167.339844 C 64.636719 167.921875 64.332031 168.480469 64.003906 168.730469 " fill-opacity="1" fill-rule="nonzero"/><path fill="#ffffff" d="M 71.824219 138.585938 C 71.480469 137.460938 71.222656 136.347656 70.957031 135.203125 C 70.695312 134.066406 70.449219 132.90625 70.21875 131.734375 C 70.011719 130.570312 69.835938 129.398438 69.667969 128.207031 C 69.585938 127.609375 69.507812 127.007812 69.429688 126.410156 L 69.316406 125.503906 L 69.234375 124.605469 C 68.835938 120.367188 68.621094 115.886719 68.9375 111.339844 C 69.019531 110.207031 69.125 109.0625 69.253906 107.910156 C 69.382812 106.757812 69.59375 105.632812 69.804688 104.484375 C 70.023438 103.34375 70.257812 102.1875 70.5625 101.050781 C 70.871094 99.921875 71.21875 98.792969 71.597656 97.667969 C 71.859375 96.921875 72.117188 96.15625 72.441406 95.429688 C 73.003906 94.132812 73.789062 92.4375 74.828125 91.023438 C 75.898438 89.636719 77.230469 88.546875 78.777344 88.4375 C 80.75 88.292969 81.878906 89.015625 82.421875 90.15625 C 82.980469 91.3125 82.992188 92.921875 82.734375 94.644531 C 82.609375 95.507812 82.40625 96.390625 82.1875 97.277344 C 81.980469 98.175781 81.738281 99.0625 81.488281 99.898438 C 81.238281 100.734375 80.984375 101.519531 80.75 102.214844 C 80.527344 102.917969 80.34375 103.546875 80.195312 104.039062 C 77.925781 111.523438 75.730469 118.910156 74.105469 126.253906 C 73.742188 127.738281 73.476562 129.257812 73.175781 130.75 C 73.03125 131.5 72.871094 132.234375 72.742188 132.984375 C 72.613281 133.734375 72.492188 134.480469 72.367188 135.230469 C 72.230469 136.050781 71.566406 137.773438 71.824219 138.585938 " fill-opacity="1" fill-rule="nonzero"/><path fill="#ffffff" d="M 71.824219 138.585938 C 72.867188 138.132812 73.953125 137.707031 75.019531 137.277344 C 76.082031 136.855469 77.136719 136.4375 78.191406 136.015625 C 79.222656 135.59375 80.308594 135.207031 81.363281 134.820312 C 82.410156 134.441406 83.457031 134.0625 84.503906 133.683594 C 86.339844 133.042969 88.242188 132.464844 90.078125 131.882812 C 90.992188 131.589844 91.949219 131.324219 92.875 131.054688 C 93.800781 130.78125 94.722656 130.511719 95.636719 130.242188 C 96.53125 129.960938 97.472656 129.710938 98.371094 129.445312 C 99.277344 129.179688 100.167969 128.910156 101.035156 128.628906 C 102.796875 128.082031 104.539062 127.535156 106.152344 126.894531 C 106.710938 126.699219 107.261719 126.488281 107.792969 126.265625 C 108.269531 126.070312 108.808594 125.835938 109.339844 125.5625 C 109.605469 125.425781 109.871094 125.273438 110.125 125.113281 C 110.390625 124.960938 110.644531 124.796875 110.878906 124.617188 C 111.824219 123.90625 112.441406 122.957031 112.273438 121.679688 C 112.066406 120.0625 111.332031 118.992188 110.265625 118.347656 C 109.203125 117.707031 107.785156 117.480469 106.296875 117.546875 C 104.820312 117.621094 103.246094 117.96875 101.820312 118.378906 C 100.417969 118.800781 99.199219 119.3125 98.371094 119.625 C 92.132812 122.054688 86.222656 125.785156 80.710938 130.261719 C 80.425781 130.488281 80.132812 130.714844 79.859375 130.945312 L 79.035156 131.660156 C 78.484375 132.144531 77.9375 132.628906 77.386719 133.109375 C 76.265625 134.082031 75.226562 135.113281 74.171875 136.160156 C 73.59375 136.738281 72.5625 138.253906 71.824219 138.585938 " fill-opacity="1" fill-rule="nonzero"/><path fill="#ffffff" d="M 86.367188 112.070312 C 86.339844 110.917969 86.328125 109.757812 86.34375 108.578125 C 86.355469 107.988281 86.363281 107.394531 86.375 106.804688 C 86.414062 106.21875 86.445312 105.632812 86.480469 105.042969 C 86.558594 103.867188 86.660156 102.675781 86.773438 101.472656 C 86.890625 100.269531 87.070312 99.09375 87.242188 97.890625 C 87.398438 96.835938 87.554688 95.757812 87.746094 94.6875 C 87.949219 93.621094 88.167969 92.546875 88.398438 91.464844 C 88.847656 89.273438 89.449219 87.125 90.132812 84.945312 C 90.304688 84.398438 90.480469 83.851562 90.664062 83.308594 C 90.859375 82.773438 91.0625 82.238281 91.269531 81.703125 C 91.6875 80.632812 92.132812 79.5625 92.609375 78.492188 C 93.078125 77.421875 93.628906 76.40625 94.183594 75.367188 C 94.75 74.34375 95.332031 73.300781 95.980469 72.3125 C 96.417969 71.65625 96.871094 71.003906 97.347656 70.363281 C 97.769531 69.792969 98.269531 69.140625 98.828125 68.488281 C 99.390625 67.835938 100.039062 67.21875 100.71875 66.664062 C 102.085938 65.570312 103.605469 64.789062 105.160156 65.089844 C 107.125 65.445312 108.035156 66.398438 108.296875 67.648438 C 108.429688 68.273438 108.394531 68.972656 108.25 69.710938 C 108.097656 70.453125 107.832031 71.234375 107.511719 72.054688 C 106.867188 73.6875 105.921875 75.34375 105.039062 76.847656 C 104.171875 78.371094 103.328125 79.691406 102.796875 80.558594 C 98.789062 87.261719 94.90625 93.921875 91.5625 100.660156 C 90.183594 103.402344 88.917969 106.179688 87.699219 108.941406 C 87.375 109.710938 86.34375 111.242188 86.367188 112.070312 " fill-opacity="1" fill-rule="nonzero"/><path fill="#ffffff" d="M 86.367188 112.070312 C 87.511719 111.90625 88.652344 111.742188 89.789062 111.578125 C 90.921875 111.417969 92.023438 111.246094 93.167969 111.117188 C 94.292969 110.984375 95.414062 110.851562 96.535156 110.71875 C 97.085938 110.660156 97.640625 110.597656 98.191406 110.535156 C 98.742188 110.476562 99.308594 110.433594 99.863281 110.382812 C 100.832031 110.308594 101.808594 110.230469 102.785156 110.152344 L 104.238281 110.050781 C 104.722656 110.015625 105.21875 110 105.707031 109.976562 C 106.679688 109.929688 107.652344 109.886719 108.621094 109.839844 C 109.097656 109.816406 109.578125 109.792969 110.054688 109.769531 C 110.539062 109.753906 111.019531 109.734375 111.5 109.71875 C 112.460938 109.683594 113.410156 109.644531 114.34375 109.597656 C 114.8125 109.570312 115.277344 109.542969 115.738281 109.515625 C 116.207031 109.496094 116.675781 109.472656 117.136719 109.453125 C 118.992188 109.355469 120.761719 109.179688 122.535156 109.003906 C 123.121094 108.9375 123.699219 108.859375 124.265625 108.761719 C 124.515625 108.71875 124.785156 108.671875 125.0625 108.617188 C 125.347656 108.566406 125.644531 108.515625 125.941406 108.449219 C 126.53125 108.320312 127.128906 108.148438 127.664062 107.90625 C 128.726562 107.398438 129.597656 106.675781 129.734375 105.394531 C 130.09375 102.105469 127.863281 100.535156 124.917969 99.949219 C 124.1875 99.804688 123.402344 99.699219 122.640625 99.667969 C 121.875 99.636719 121.109375 99.648438 120.375 99.6875 C 119.640625 99.722656 118.9375 99.78125 118.3125 99.84375 C 117.679688 99.90625 117.148438 100 116.714844 100.054688 C 110.070312 100.921875 103.4375 103.128906 97.011719 106.144531 C 96.351562 106.460938 95.695312 106.773438 95.035156 107.089844 C 94.367188 107.402344 93.742188 107.761719 93.089844 108.105469 C 92.445312 108.457031 91.796875 108.8125 91.148438 109.164062 L 90.175781 109.707031 L 89.226562 110.28125 C 88.53125 110.707031 87.195312 111.949219 86.367188 112.070312 " fill-opacity="1" fill-rule="nonzero"/><g clip-path="url(#51f3f73684)"><path fill="#ffffff" d="M 108.757812 88.265625 C 109.828125 83.785156 111.328125 79.226562 113.269531 74.800781 C 113.691406 73.824219 114.128906 72.832031 114.582031 71.835938 C 115.050781 70.859375 115.539062 69.878906 116.046875 68.894531 C 116.558594 67.914062 117.070312 66.902344 117.636719 65.9375 C 118.203125 64.972656 118.789062 64.007812 119.402344 63.042969 C 119.707031 62.5625 120.019531 62.082031 120.339844 61.601562 C 120.660156 61.121094 120.996094 60.667969 121.335938 60.199219 C 122.015625 59.277344 122.722656 58.359375 123.460938 57.449219 C 124.1875 56.527344 124.980469 55.691406 125.789062 54.832031 C 126.601562 53.988281 127.4375 53.144531 128.316406 52.34375 C 128.90625 51.820312 129.515625 51.3125 130.140625 50.816406 C 131.253906 49.9375 132.742188 48.792969 134.359375 48.109375 C 135.160156 47.757812 135.984375 47.496094 136.78125 47.402344 C 137.179688 47.355469 137.570312 47.351562 137.953125 47.398438 C 138.332031 47.453125 138.707031 47.566406 139.0625 47.730469 C 140.871094 48.589844 141.503906 49.746094 141.433594 51.015625 C 141.363281 52.300781 140.574219 53.65625 139.53125 55.074219 C 139.007812 55.777344 138.410156 56.472656 137.789062 57.140625 C 137.167969 57.808594 136.515625 58.4375 135.902344 59.070312 C 134.667969 60.3125 133.511719 61.367188 132.769531 62.070312 C 127.171875 67.523438 121.699219 72.949219 116.730469 78.59375 C 115.722656 79.753906 114.699219 80.875 113.738281 82.070312 L 112.285156 83.824219 L 111.5625 84.699219 L 110.863281 85.59375 C 110.347656 86.253906 108.953125 87.460938 108.757812 88.265625 " fill-opacity="1" fill-rule="nonzero"/></g><path fill="#ffffff" d="M 119.476562 80.550781 C 119.867188 80.113281 120.277344 79.703125 120.6875 79.289062 L 121.933594 78.054688 L 123.203125 76.824219 C 123.628906 76.417969 124.074219 76.039062 124.515625 75.644531 C 125.402344 74.867188 126.296875 74.085938 127.207031 73.324219 C 128.136719 72.589844 129.074219 71.855469 130.019531 71.128906 C 130.847656 70.472656 131.710938 69.871094 132.582031 69.257812 C 133.453125 68.648438 134.328125 68.019531 135.230469 67.425781 C 136.136719 66.851562 137.054688 66.277344 137.984375 65.714844 C 138.453125 65.4375 138.914062 65.144531 139.390625 64.882812 L 140.832031 64.113281 C 141.796875 63.609375 142.769531 63.105469 143.761719 62.644531 C 144.761719 62.203125 145.769531 61.78125 146.785156 61.382812 C 147.292969 61.183594 147.800781 60.984375 148.316406 60.804688 C 148.832031 60.632812 149.351562 60.472656 149.875 60.316406 C 150.917969 60.003906 151.964844 59.714844 153.019531 59.464844 C 153.730469 59.320312 154.441406 59.191406 155.15625 59.085938 C 157.679688 58.652344 161.828125 58.410156 163.160156 60.933594 C 164.019531 62.554688 163.910156 63.875 163.242188 64.945312 C 162.578125 66.019531 161.351562 66.835938 159.914062 67.480469 C 158.488281 68.179688 156.84375 68.683594 155.335938 69.101562 C 153.835938 69.554688 152.457031 69.878906 151.554688 70.109375 C 144.726562 71.96875 137.820312 73.835938 130.972656 76.179688 L 128.867188 76.898438 L 126.785156 77.675781 L 124.6875 78.449219 C 123.992188 78.71875 123.308594 79.007812 122.613281 79.285156 C 122.230469 79.4375 121.59375 79.597656 120.972656 79.796875 C 120.664062 79.898438 120.359375 80.003906 120.097656 80.125 C 119.835938 80.253906 119.621094 80.398438 119.476562 80.550781 " fill-opacity="1" fill-rule="nonzero"/><path fill="#ffffff" d="M 108.757812 88.265625 C 111.074219 88.550781 113.332031 88.800781 115.578125 89.105469 C 116.699219 89.269531 117.816406 89.433594 118.933594 89.597656 C 120.042969 89.765625 121.128906 89.917969 122.234375 90.128906 C 123.191406 90.304688 124.15625 90.484375 125.121094 90.664062 C 126.082031 90.851562 127.023438 91.023438 127.988281 91.242188 C 128.941406 91.449219 129.890625 91.660156 130.839844 91.867188 C 131.785156 92.074219 132.707031 92.261719 133.652344 92.488281 C 137.394531 93.335938 141.003906 94.117188 144.5 94.644531 C 145.082031 94.734375 145.660156 94.808594 146.230469 94.863281 C 147.238281 94.941406 148.574219 95.109375 149.734375 94.914062 C 150.316406 94.824219 150.851562 94.628906 151.3125 94.335938 C 151.773438 94.046875 152.144531 93.625 152.375 93.023438 C 153.574219 89.949219 151.824219 87.851562 149.132812 86.515625 C 147.785156 85.824219 146.253906 85.40625 144.8125 85.089844 C 144.09375 84.933594 143.398438 84.808594 142.777344 84.707031 C 142.160156 84.617188 141.617188 84.558594 141.183594 84.503906 C 134.546875 83.625 127.566406 84.042969 120.578125 85.300781 C 119.859375 85.433594 119.140625 85.566406 118.421875 85.695312 C 117.703125 85.839844 117 86.015625 116.285156 86.179688 C 114.863281 86.523438 113.398438 86.851562 111.988281 87.285156 C 111.207031 87.515625 109.589844 88.363281 108.757812 88.265625 " fill-opacity="1" fill-rule="nonzero"/><g clip-path="url(#81db148efa)"><path fill="#ffffff" d="M 131.179688 73.753906 C 131.097656 73.59375 131.042969 73.441406 130.992188 73.285156 C 124.273438 76.683594 117.84375 80.660156 111.816406 85.183594 C 105.808594 89.734375 100.199219 94.8125 95.070312 100.34375 C 94.410156 101.019531 93.804688 101.742188 93.183594 102.449219 L 91.316406 104.578125 L 89.53125 106.773438 C 88.945312 107.511719 88.332031 108.230469 87.777344 108.996094 C 86.652344 110.511719 85.480469 111.992188 84.433594 113.5625 L 82.824219 115.890625 C 82.300781 116.679688 81.804688 117.480469 81.296875 118.277344 C 77.253906 124.652344 73.753906 131.386719 70.953125 138.410156 C 65.324219 152.441406 62.15625 167.472656 61.875 182.640625 C 61.570312 197.800781 64.125 213.003906 69.265625 227.269531 C 74.394531 241.542969 82.082031 254.890625 91.832031 266.53125 C 101.574219 278.179688 113.390625 288.121094 126.628906 295.664062 C 133.242188 299.4375 140.207031 302.609375 147.410156 305.121094 C 151.011719 306.398438 154.65625 307.4375 158.386719 308.414062 C 162.113281 309.3125 165.710938 310.027344 169.277344 310.796875 C 176.386719 312.328125 183.371094 313.980469 189.839844 316.414062 C 191.464844 317.007812 193.015625 317.691406 194.539062 318.402344 C 196.046875 319.125 197.480469 319.917969 198.832031 320.769531 C 201.492188 322.5 203.769531 324.523438 205.066406 326.789062 C 205.175781 326.984375 205.367188 327.128906 205.542969 327.253906 C 205.726562 327.375 205.953125 327.464844 206.210938 327.511719 C 206.71875 327.609375 207.34375 327.570312 207.929688 327.328125 C 208.515625 327.082031 208.945312 326.65625 209.148438 326.121094 C 209.253906 325.859375 209.300781 325.566406 209.285156 325.273438 C 209.28125 324.972656 209.15625 324.699219 209 324.429688 C 208.0625 322.894531 206.90625 321.484375 205.558594 320.273438 C 204.226562 319.050781 202.765625 317.964844 201.226562 316.996094 C 199.679688 316.042969 198.074219 315.179688 196.421875 314.410156 C 194.761719 313.660156 193.078125 312.945312 191.359375 312.335938 C 184.484375 309.839844 177.3125 308.238281 170.125 306.769531 C 166.53125 306.03125 162.921875 305.355469 159.320312 304.527344 C 155.734375 303.625 152.171875 302.65625 148.675781 301.453125 C 141.675781 299.097656 134.886719 296.089844 128.425781 292.496094 C 115.5 285.308594 103.890625 275.757812 94.265625 264.496094 C 84.632812 253.242188 76.980469 240.28125 71.808594 226.363281 C 66.628906 212.457031 63.960938 197.585938 64.097656 182.703125 C 64.214844 167.8125 67.171875 152.976562 72.570312 139.089844 C 75.257812 132.136719 78.636719 125.453125 82.5625 119.113281 C 83.054688 118.324219 83.539062 117.527344 84.046875 116.742188 L 85.613281 114.421875 C 86.632812 112.859375 87.773438 111.382812 88.867188 109.871094 C 89.40625 109.109375 90.003906 108.390625 90.582031 107.660156 L 92.320312 105.46875 L 94.144531 103.34375 C 94.753906 102.636719 95.34375 101.914062 95.992188 101.238281 C 101.007812 95.710938 106.507812 90.617188 112.417969 86.042969 C 118.34375 81.488281 124.683594 77.472656 131.320312 74.027344 L 131.179688 73.753906 " fill-opacity="1" fill-rule="nonzero"/></g><path fill="#ffffff" d="M 240.128906 297.914062 C 241.253906 298.140625 242.398438 298.351562 243.558594 298.546875 C 244.140625 298.640625 244.726562 298.730469 245.308594 298.824219 C 245.898438 298.914062 246.488281 298.996094 247.070312 299.050781 C 248.242188 299.171875 249.425781 299.277344 250.625 299.367188 C 251.230469 299.40625 251.832031 299.449219 252.433594 299.488281 C 253.042969 299.527344 253.652344 299.5625 254.25 299.566406 C 256.367188 299.605469 258.550781 299.617188 260.789062 299.566406 C 262.984375 299.449219 265.226562 299.269531 267.503906 299 C 269.757812 298.691406 272.003906 298.238281 274.277344 297.691406 C 274.566406 297.617188 274.847656 297.546875 275.132812 297.476562 C 275.410156 297.390625 275.6875 297.308594 275.964844 297.226562 C 276.519531 297.054688 277.074219 296.878906 277.628906 296.691406 C 278.738281 296.316406 279.847656 295.910156 280.949219 295.464844 C 281.695312 295.179688 282.402344 294.828125 283.113281 294.472656 C 284.367188 293.832031 286.011719 292.949219 287.351562 291.828125 C 288.664062 290.675781 289.65625 289.273438 289.664062 287.722656 C 289.671875 285.742188 288.898438 284.679688 287.714844 284.195312 C 286.527344 283.710938 284.925781 283.800781 283.230469 284.167969 C 282.378906 284.347656 281.519531 284.609375 280.640625 284.878906 C 279.761719 285.140625 278.890625 285.4375 278.074219 285.734375 C 277.253906 286.035156 276.484375 286.339844 275.804688 286.609375 C 275.125 286.886719 274.53125 287.132812 274.039062 287.300781 C 266.746094 290.058594 259.5 292.710938 252.28125 294.8125 L 251.183594 295.148438 C 250.820312 295.261719 250.441406 295.347656 250.070312 295.449219 C 249.332031 295.644531 248.59375 295.839844 247.855469 296.035156 C 247.121094 296.230469 246.386719 296.425781 245.65625 296.621094 C 245.292969 296.722656 244.925781 296.8125 244.550781 296.894531 L 243.441406 297.144531 C 242.625 297.332031 240.9375 298.078125 240.128906 297.914062 " fill-opacity="1" fill-rule="nonzero"/><path fill="#ffffff" d="M 240.128906 297.914062 C 240.851562 295.726562 241.566406 293.558594 242.277344 291.402344 C 242.9375 289.207031 243.574219 287.046875 244.175781 284.933594 C 244.449219 284.015625 244.671875 283.039062 244.910156 282.085938 C 245.136719 281.140625 245.367188 280.191406 245.59375 279.238281 L 245.929688 277.828125 C 246.042969 277.363281 246.152344 276.894531 246.253906 276.414062 C 246.457031 275.464844 246.664062 274.519531 246.867188 273.578125 C 247.292969 271.714844 247.714844 269.878906 248.125 268.078125 C 248.550781 266.269531 249.050781 264.578125 249.527344 262.847656 C 249.695312 262.28125 249.875 261.722656 250.066406 261.179688 C 250.238281 260.695312 250.441406 260.148438 250.6875 259.601562 C 250.925781 259.046875 251.1875 258.472656 251.523438 257.984375 C 252.179688 256.992188 253.09375 256.3125 254.382812 256.402344 C 256.015625 256.496094 257.128906 257.160156 257.835938 258.1875 C 258.191406 258.703125 258.445312 259.304688 258.617188 259.96875 C 258.78125 260.628906 258.886719 261.371094 258.882812 262.105469 C 258.898438 263.578125 258.648438 265.175781 258.324219 266.621094 C 258.023438 268.089844 257.5625 269.308594 257.304688 270.152344 C 255.269531 276.53125 251.96875 282.726562 247.84375 288.492188 C 247.4375 289.105469 246.996094 289.671875 246.558594 290.25 C 246.109375 290.832031 245.664062 291.410156 245.21875 291.988281 C 244.757812 292.570312 244.300781 293.152344 243.839844 293.730469 C 243.375 294.308594 242.878906 294.84375 242.390625 295.40625 C 241.851562 296.015625 240.394531 297.117188 240.128906 297.914062 " fill-opacity="1" fill-rule="nonzero"/><path fill="#ffffff" d="M 208.207031 308.773438 C 209.226562 309.296875 210.273438 309.808594 211.335938 310.304688 C 211.875 310.550781 212.414062 310.796875 212.949219 311.042969 C 213.492188 311.289062 214.039062 311.527344 214.585938 311.734375 C 215.679688 312.164062 216.792969 312.585938 217.925781 312.992188 C 218.496094 313.195312 219.066406 313.394531 219.636719 313.597656 C 220.210938 313.796875 220.789062 313.996094 221.363281 314.160156 C 223.394531 314.765625 225.492188 315.363281 227.660156 315.914062 C 229.804688 316.394531 232.015625 316.820312 234.285156 317.171875 C 236.535156 317.484375 238.820312 317.644531 241.160156 317.730469 C 241.453125 317.738281 241.746094 317.746094 242.039062 317.753906 C 242.328125 317.746094 242.621094 317.742188 242.90625 317.738281 C 243.488281 317.722656 244.070312 317.699219 244.65625 317.667969 C 245.824219 317.605469 247.003906 317.511719 248.183594 317.378906 C 248.980469 317.300781 249.75 317.15625 250.53125 317 C 251.914062 316.722656 253.734375 316.3125 255.328125 315.59375 C 256.898438 314.839844 258.230469 313.753906 258.65625 312.261719 C 259.195312 310.355469 258.738281 309.125 257.726562 308.339844 C 256.710938 307.554688 255.144531 307.210938 253.414062 307.109375 C 252.542969 307.050781 251.644531 307.074219 250.730469 307.097656 C 249.808594 307.113281 248.894531 307.167969 248.023438 307.234375 C 247.15625 307.304688 246.335938 307.386719 245.605469 307.46875 C 244.875 307.550781 244.238281 307.628906 243.71875 307.65625 C 235.953125 308.355469 228.265625 308.964844 220.742188 309.050781 L 219.597656 309.078125 C 219.214844 309.089844 218.828125 309.074219 218.445312 309.070312 C 217.679688 309.058594 216.914062 309.050781 216.152344 309.039062 C 215.390625 309.03125 214.632812 309.023438 213.875 309.015625 C 213.5 309.015625 213.121094 309.003906 212.738281 308.980469 L 211.601562 308.921875 C 210.769531 308.882812 208.941406 309.152344 208.207031 308.773438 " fill-opacity="1" fill-rule="nonzero"/><path fill="#ffffff" d="M 208.207031 308.773438 C 209.484375 306.863281 210.757812 304.964844 212.023438 303.078125 C 213.246094 301.140625 214.441406 299.230469 215.585938 297.359375 C 216.09375 296.550781 216.578125 295.664062 217.058594 294.8125 C 217.535156 293.964844 218.011719 293.109375 218.484375 292.253906 L 219.1875 290.988281 C 219.421875 290.570312 219.652344 290.148438 219.878906 289.710938 C 220.332031 288.851562 220.78125 287.996094 221.230469 287.144531 C 222.140625 285.464844 223.039062 283.804688 223.921875 282.183594 C 224.8125 280.554688 225.75 279.058594 226.675781 277.523438 C 226.988281 277.019531 227.3125 276.53125 227.640625 276.058594 C 227.9375 275.640625 228.28125 275.164062 228.664062 274.707031 C 229.042969 274.234375 229.449219 273.753906 229.902344 273.371094 C 230.800781 272.59375 231.867188 272.183594 233.085938 272.617188 C 234.628906 273.144531 235.523438 274.085938 235.929688 275.265625 C 236.132812 275.855469 236.214844 276.503906 236.203125 277.191406 C 236.1875 277.871094 236.085938 278.613281 235.886719 279.316406 C 235.503906 280.742188 234.835938 282.210938 234.136719 283.519531 C 233.449219 284.851562 232.683594 285.902344 232.203125 286.644531 C 228.53125 292.246094 223.6875 297.324219 218.167969 301.769531 C 217.609375 302.253906 217.035156 302.679688 216.453125 303.121094 C 215.867188 303.558594 215.285156 303.996094 214.699219 304.433594 C 214.097656 304.871094 213.5 305.308594 212.902344 305.742188 C 212.296875 306.171875 211.675781 306.558594 211.054688 306.964844 C 210.371094 307.410156 208.675781 308.078125 208.207031 308.773438 " fill-opacity="1" fill-rule="nonzero"/><path fill="#ffffff" d="M 265.695312 281.566406 C 266.847656 281.527344 268.015625 281.46875 269.195312 281.386719 C 270.371094 281.304688 271.519531 281.152344 272.699219 281.003906 C 273.871094 280.851562 275.054688 280.679688 276.25 280.492188 C 277.441406 280.300781 278.59375 280.042969 279.785156 279.792969 C 281.863281 279.34375 284.023438 278.875 286.117188 278.242188 C 287.175781 277.933594 288.246094 277.609375 289.320312 277.265625 C 289.855469 277.089844 290.398438 276.917969 290.929688 276.726562 C 291.453125 276.527344 291.980469 276.328125 292.507812 276.117188 C 296.746094 274.476562 300.90625 272.335938 304.722656 269.542969 C 305.351562 269.070312 305.976562 268.582031 306.589844 268.074219 C 307.132812 267.621094 307.753906 267.089844 308.375 266.492188 C 308.996094 265.902344 309.566406 265.214844 310.074219 264.507812 C 311.082031 263.085938 311.746094 261.511719 311.398438 260.007812 C 310.914062 258.0625 309.90625 257.207031 308.652344 257.019531 C 308.019531 256.925781 307.332031 257 306.601562 257.191406 C 305.859375 257.375 305.078125 257.671875 304.289062 258.042969 C 303.496094 258.414062 302.699219 258.855469 301.921875 259.328125 C 301.53125 259.5625 301.148438 259.808594 300.773438 260.054688 C 300.402344 260.304688 300.035156 260.550781 299.660156 260.785156 C 298.195312 261.738281 296.921875 262.652344 296.085938 263.230469 C 289.621094 267.597656 283.25 271.898438 276.742188 275.65625 L 274.757812 276.804688 C 274.425781 276.992188 274.101562 277.191406 273.769531 277.371094 L 272.753906 277.910156 C 271.414062 278.628906 270.082031 279.34375 268.746094 280.058594 C 268 280.429688 266.523438 281.539062 265.695312 281.566406 " fill-opacity="1" fill-rule="nonzero"/><path fill="#ffffff" d="M 265.695312 281.566406 C 265.882812 279.257812 266.09375 277.023438 266.203125 274.722656 C 266.265625 273.59375 266.328125 272.46875 266.390625 271.34375 C 266.417969 270.789062 266.445312 270.234375 266.472656 269.683594 C 266.492188 269.125 266.5 268.558594 266.515625 268 C 266.554688 266.03125 266.566406 264.078125 266.566406 262.148438 C 266.523438 260.171875 266.476562 258.230469 266.457031 256.332031 C 266.363281 252.484375 266.332031 248.785156 266.515625 245.242188 C 266.550781 244.65625 266.605469 244.078125 266.671875 243.503906 C 266.757812 242.464844 266.886719 241.132812 267.320312 240.03125 C 267.527344 239.476562 267.84375 238.996094 268.210938 238.59375 C 268.589844 238.195312 269.078125 237.914062 269.714844 237.804688 C 272.972656 237.234375 274.667969 239.382812 275.433594 242.296875 C 275.621094 243.019531 275.777344 243.804688 275.847656 244.5625 C 275.917969 245.324219 275.949219 246.089844 275.953125 246.828125 C 275.957031 248.292969 275.878906 249.648438 275.8125 250.519531 C 275.335938 257.214844 273.519531 263.957031 270.921875 270.570312 C 270.652344 271.25 270.382812 271.929688 270.113281 272.609375 L 269.902344 273.121094 L 269.679688 273.617188 L 269.222656 274.613281 C 268.605469 275.9375 267.972656 277.28125 267.3125 278.625 C 266.925781 279.339844 265.761719 280.738281 265.695312 281.566406 " fill-opacity="1" fill-rule="nonzero"/><path fill="#ffffff" d="M 286.941406 259.246094 L 287.785156 259.015625 L 288.609375 258.757812 C 289.164062 258.574219 289.714844 258.394531 290.265625 258.214844 C 291.375 257.839844 292.488281 257.445312 293.605469 257.027344 C 294.738281 256.621094 295.796875 256.140625 296.902344 255.667969 C 297.996094 255.1875 299.09375 254.6875 300.199219 254.167969 C 301.183594 253.71875 302.109375 253.214844 303.074219 252.714844 C 304.035156 252.207031 305 251.6875 305.96875 251.144531 C 306.457031 250.875 306.945312 250.597656 307.425781 250.316406 C 307.898438 250.019531 308.371094 249.726562 308.839844 249.429688 C 309.78125 248.828125 310.726562 248.207031 311.664062 247.558594 C 312.132812 247.234375 312.601562 246.902344 313.070312 246.566406 C 313.539062 246.230469 313.972656 245.871094 314.421875 245.515625 C 315.316406 244.800781 316.199219 244.054688 317.070312 243.285156 C 318.847656 241.757812 320.421875 240.046875 321.964844 238.238281 C 322.472656 237.632812 322.984375 237.015625 323.457031 236.371094 C 324.269531 235.222656 325.304688 233.671875 325.972656 232.054688 C 326.664062 230.445312 326.851562 228.722656 326.144531 227.339844 C 325.230469 225.570312 324.050781 224.984375 322.78125 225.101562 C 321.507812 225.222656 320.136719 226.050781 318.808594 227.160156 C 318.160156 227.722656 317.464844 228.335938 316.8125 228.980469 C 316.15625 229.621094 315.527344 230.289062 314.945312 230.933594 C 314.359375 231.578125 313.828125 232.203125 313.347656 232.761719 C 312.851562 233.3125 312.414062 233.792969 312.070312 234.175781 C 306.847656 239.976562 301.6875 245.675781 296.273438 250.878906 C 294 252.96875 291.828125 255.070312 289.507812 257.023438 C 289.191406 257.300781 288.753906 257.800781 288.296875 258.261719 C 288.066406 258.492188 287.832031 258.714844 287.605469 258.890625 C 287.371094 259.0625 287.144531 259.191406 286.941406 259.246094 " fill-opacity="1" fill-rule="nonzero"/><path fill="#ffffff" d="M 286.941406 259.246094 C 286.191406 254.667969 285.441406 250.214844 284.480469 245.859375 C 284.273438 244.90625 284.078125 243.964844 283.847656 243.011719 C 283.605469 242.058594 283.359375 241.105469 283.117188 240.152344 C 282.628906 238.257812 282.175781 236.410156 281.644531 234.539062 C 281.394531 233.609375 281.148438 232.691406 280.917969 231.785156 C 280.808594 231.328125 280.695312 230.878906 280.585938 230.429688 C 280.480469 229.980469 280.347656 229.519531 280.238281 229.070312 C 280.003906 228.167969 279.792969 227.277344 279.601562 226.394531 C 279.507812 225.957031 279.414062 225.515625 279.332031 225.082031 C 279.292969 224.863281 279.253906 224.648438 279.210938 224.433594 C 279.167969 224.214844 279.121094 223.996094 279.074219 223.777344 C 278.957031 223.191406 278.855469 222.613281 278.769531 222.042969 C 278.695312 221.53125 278.617188 220.949219 278.578125 220.347656 C 278.542969 219.75 278.554688 219.136719 278.601562 218.539062 C 278.722656 217.359375 279.1875 216.324219 280.390625 215.816406 C 280.773438 215.65625 281.144531 215.539062 281.496094 215.464844 C 281.84375 215.386719 282.175781 215.351562 282.5 215.355469 C 283.144531 215.363281 283.746094 215.53125 284.296875 215.820312 C 284.847656 216.113281 285.359375 216.535156 285.816406 217.042969 C 286.257812 217.546875 286.65625 218.144531 287.007812 218.800781 C 287.710938 220.105469 288.234375 221.636719 288.628906 223.074219 C 288.96875 224.492188 289.171875 225.804688 289.328125 226.671875 C 290.464844 233.273438 290.339844 240.273438 289.398438 247.320312 C 289.183594 248.746094 288.949219 250.1875 288.699219 251.644531 C 288.632812 252.007812 288.574219 252.375 288.503906 252.738281 L 288.265625 253.8125 C 288.101562 254.535156 287.933594 255.253906 287.769531 255.976562 C 287.574219 256.765625 286.839844 258.445312 286.941406 259.246094 " fill-opacity="1" fill-rule="nonzero"/><g clip-path="url(#e2eeeb701d)"><path fill="#ffffff" d="M 302.792969 231.117188 C 303.789062 230.535156 304.816406 229.9375 305.789062 229.296875 C 306.757812 228.65625 307.722656 227.988281 308.691406 227.296875 C 309.648438 226.605469 310.640625 225.902344 311.574219 225.160156 C 312.5 224.414062 313.429688 223.648438 314.355469 222.863281 C 315.167969 222.171875 315.996094 221.464844 316.8125 220.738281 C 317.601562 220 318.394531 219.246094 319.1875 218.46875 C 319.980469 217.695312 320.769531 216.898438 321.554688 216.082031 C 322.335938 215.265625 323.054688 214.410156 323.792969 213.539062 C 324.523438 212.667969 325.246094 211.773438 325.957031 210.851562 L 326.484375 210.160156 L 326.976562 209.449219 C 327.300781 208.972656 327.625 208.492188 327.941406 208.003906 C 329.199219 206.050781 330.429688 204.007812 331.382812 201.839844 C 331.710938 201.117188 332.027344 200.382812 332.324219 199.636719 C 332.582031 198.972656 332.890625 198.203125 333.128906 197.375 C 333.359375 196.546875 333.554688 195.664062 333.65625 194.789062 C 333.753906 193.914062 333.761719 193.050781 333.617188 192.257812 C 333.46875 191.46875 333.179688 190.75 332.632812 190.171875 C 331.269531 188.691406 329.976562 188.429688 328.785156 188.878906 C 327.589844 189.328125 326.527344 190.488281 325.472656 191.90625 C 324.441406 193.328125 323.519531 195.015625 322.75 196.570312 C 321.921875 198.121094 321.234375 199.539062 320.773438 200.453125 C 317.203125 207.425781 313.652344 214.261719 309.71875 220.667969 C 308.894531 221.96875 308.113281 223.273438 307.285156 224.550781 C 306.4375 225.816406 305.59375 227.078125 304.75 228.335938 C 304.316406 229.035156 303.507812 230.699219 302.792969 231.117188 " fill-opacity="1" fill-rule="nonzero"/></g><path fill="#ffffff" d="M 302.792969 231.117188 C 302.335938 230.066406 301.882812 229.015625 301.429688 227.972656 C 300.949219 226.929688 300.46875 225.886719 299.988281 224.851562 C 299.511719 223.828125 299.039062 222.808594 298.5625 221.792969 C 298.335938 221.292969 298.082031 220.789062 297.824219 220.285156 C 297.570312 219.785156 297.320312 219.285156 297.066406 218.785156 C 296.621094 217.925781 296.167969 217.058594 295.71875 216.1875 C 295.265625 215.328125 294.820312 214.476562 294.320312 213.617188 C 293.351562 211.910156 292.394531 210.226562 291.480469 208.574219 C 290.5 206.910156 289.5625 205.273438 288.703125 203.660156 C 288.292969 202.859375 287.816406 202.050781 287.402344 201.25 C 286.980469 200.449219 286.582031 199.65625 286.210938 198.867188 C 285.972656 198.332031 285.734375 197.804688 285.496094 197.28125 C 285.070312 196.339844 284.554688 195.121094 284.410156 193.964844 C 284.371094 193.675781 284.359375 193.390625 284.375 193.109375 C 284.378906 192.828125 284.40625 192.554688 284.480469 192.296875 C 284.617188 191.773438 284.910156 191.296875 285.417969 190.898438 C 288.007812 188.855469 290.523438 189.894531 292.59375 192.066406 C 293.109375 192.601562 293.601562 193.207031 294.058594 193.835938 C 294.503906 194.464844 294.882812 195.117188 295.242188 195.757812 C 295.949219 197.03125 296.511719 198.25 296.890625 199.046875 C 299.667969 205.117188 301.320312 211.90625 302.175781 218.957031 C 302.257812 219.683594 302.335938 220.40625 302.417969 221.132812 C 302.492188 221.859375 302.578125 222.597656 302.605469 223.324219 C 302.6875 224.78125 302.753906 226.261719 302.804688 227.753906 C 302.8125 227.960938 302.800781 228.226562 302.78125 228.523438 C 302.753906 228.816406 302.722656 229.136719 302.691406 229.460938 C 302.640625 230.101562 302.628906 230.734375 302.792969 231.117188 " fill-opacity="1" fill-rule="nonzero"/><path fill="#ffffff" d="M 310.875 201.25 C 312.488281 199.625 314.078125 197.902344 315.648438 196.085938 C 317.136719 194.265625 318.589844 192.355469 320.035156 190.371094 C 321.234375 188.621094 322.425781 186.796875 323.605469 184.898438 C 324.214844 183.945312 324.726562 182.972656 325.265625 181.984375 C 325.792969 180.992188 326.3125 179.980469 326.820312 178.949219 C 327.070312 178.433594 327.320312 177.914062 327.566406 177.386719 C 327.789062 176.863281 328.003906 176.332031 328.21875 175.800781 C 328.644531 174.730469 329.050781 173.640625 329.433594 172.53125 C 330.238281 170.3125 330.75 168.035156 331.207031 165.6875 C 331.351562 164.902344 331.480469 164.109375 331.585938 163.308594 C 331.730469 161.90625 331.867188 160.054688 331.652344 158.316406 C 331.554688 157.449219 331.324219 156.617188 330.96875 155.894531 C 330.613281 155.171875 330.128906 154.558594 329.480469 154.132812 C 327.816406 153.046875 326.503906 153.113281 325.453125 153.847656 C 324.402344 154.578125 323.609375 155.976562 323 157.597656 C 322.84375 158.003906 322.703125 158.421875 322.570312 158.851562 C 322.433594 159.28125 322.292969 159.71875 322.167969 160.160156 C 321.914062 161.042969 321.695312 161.929688 321.503906 162.78125 C 321.3125 163.628906 321.167969 164.433594 321.007812 165.160156 C 320.847656 165.886719 320.703125 166.519531 320.59375 167.027344 C 318.90625 174.675781 317.230469 182.199219 314.984375 189.398438 C 314.785156 190.132812 314.507812 190.863281 314.277344 191.589844 C 314.035156 192.316406 313.792969 193.042969 313.554688 193.765625 C 313.3125 194.492188 313.085938 195.210938 312.835938 195.929688 C 312.570312 196.640625 312.308594 197.351562 312.039062 198.0625 C 311.75 198.84375 311.453125 200.667969 310.875 201.25 " fill-opacity="1" fill-rule="nonzero"/><path fill="#ffffff" d="M 310.875 201.25 C 309.4375 199.445312 308.015625 197.652344 306.597656 195.867188 C 305.917969 194.992188 305.148438 194.117188 304.425781 193.257812 C 303.699219 192.410156 302.976562 191.566406 302.25 190.722656 C 301.015625 189.257812 299.609375 187.820312 298.285156 186.410156 C 297.621094 185.710938 296.957031 185.011719 296.296875 184.3125 C 295.628906 183.621094 294.925781 182.933594 294.257812 182.253906 C 293.589844 181.570312 292.929688 180.894531 292.289062 180.222656 C 291.96875 179.882812 291.652344 179.546875 291.339844 179.210938 C 291.011719 178.875 290.683594 178.542969 290.359375 178.210938 C 289.714844 177.542969 289.09375 176.878906 288.5 176.210938 C 288.199219 175.875 287.910156 175.542969 287.625 175.210938 L 287.199219 174.707031 C 287.050781 174.542969 286.902344 174.375 286.757812 174.210938 C 286.367188 173.765625 285.992188 173.316406 285.636719 172.863281 C 285.320312 172.460938 284.964844 172 284.636719 171.5 C 284.304688 171.003906 284.03125 170.472656 283.777344 169.925781 C 283.296875 168.839844 283.195312 167.707031 283.992188 166.671875 C 284.984375 165.351562 286.128906 164.785156 287.382812 164.75 C 288.628906 164.710938 289.976562 165.207031 291.21875 166 C 292.46875 166.792969 293.691406 167.867188 294.726562 168.925781 C 295.714844 169.984375 296.546875 171.019531 297.105469 171.695312 C 301.339844 176.855469 304.667969 183.003906 307.265625 189.621094 C 307.765625 190.96875 308.25 192.34375 308.726562 193.738281 C 308.957031 194.4375 309.222656 195.140625 309.414062 195.847656 C 309.613281 196.558594 309.8125 197.269531 310.011719 197.980469 C 310.226562 198.769531 310.351562 200.589844 310.875 201.25 " fill-opacity="1" fill-rule="nonzero"/><path fill="#ffffff" d="M 310.988281 168.730469 C 311.566406 167.730469 312.171875 166.703125 312.695312 165.664062 C 313.222656 164.625 313.734375 163.566406 314.238281 162.488281 C 315.273438 160.328125 316.113281 158.117188 316.972656 155.835938 C 317.15625 155.332031 317.351562 154.824219 317.523438 154.316406 C 317.691406 153.804688 317.859375 153.292969 318.027344 152.78125 C 318.363281 151.746094 318.6875 150.695312 319.003906 149.628906 C 319.335938 148.558594 319.597656 147.484375 319.855469 146.390625 C 320.113281 145.296875 320.355469 144.191406 320.578125 143.066406 C 320.695312 142.503906 320.785156 141.941406 320.867188 141.378906 C 320.949219 140.8125 321.027344 140.246094 321.101562 139.675781 C 321.246094 138.53125 321.367188 137.375 321.457031 136.207031 C 321.515625 135.050781 321.546875 133.882812 321.542969 132.707031 C 321.53125 131.53125 321.523438 130.332031 321.398438 129.160156 C 321.328125 128.371094 321.238281 127.582031 321.121094 126.789062 C 321.019531 126.085938 320.890625 125.269531 320.707031 124.429688 C 320.507812 123.59375 320.238281 122.734375 319.898438 121.925781 C 319.21875 120.308594 318.238281 118.898438 316.730469 118.425781 C 314.824219 117.808594 313.574219 118.21875 312.753906 119.195312 C 312.339844 119.679688 312.039062 120.3125 311.820312 121.039062 C 311.597656 121.765625 311.476562 122.574219 311.363281 123.453125 C 311.164062 125.195312 311.199219 127.113281 311.277344 128.851562 C 311.320312 130.605469 311.433594 132.171875 311.488281 133.191406 C 311.824219 141.007812 312.132812 148.699219 311.863281 156.21875 C 311.792969 157.75 311.722656 159.277344 311.652344 160.800781 C 311.539062 162.316406 311.429688 163.828125 311.316406 165.339844 C 311.285156 166.164062 311.402344 168.011719 310.988281 168.730469 " fill-opacity="1" fill-rule="nonzero"/><path fill="#ffffff" d="M 310.988281 168.730469 C 310.070312 168.042969 309.160156 167.355469 308.25 166.667969 C 307.316406 166 306.386719 165.332031 305.460938 164.667969 C 304.542969 164.015625 303.628906 163.363281 302.714844 162.714844 C 301.78125 162.089844 300.847656 161.464844 299.921875 160.84375 C 299.109375 160.3125 298.296875 159.78125 297.480469 159.246094 C 296.644531 158.734375 295.804688 158.222656 294.96875 157.707031 C 294.140625 157.203125 293.3125 156.699219 292.488281 156.199219 C 291.671875 155.699219 290.8125 155.21875 289.992188 154.730469 C 289.167969 154.242188 288.355469 153.757812 287.5625 153.269531 C 286.753906 152.78125 285.953125 152.300781 285.160156 151.824219 C 284.375 151.339844 283.609375 150.851562 282.867188 150.355469 C 282.109375 149.867188 281.347656 149.378906 280.628906 148.875 C 280.148438 148.539062 279.679688 148.195312 279.230469 147.84375 C 278.839844 147.527344 278.351562 147.179688 277.894531 146.785156 C 277.4375 146.390625 276.996094 145.957031 276.640625 145.488281 C 275.953125 144.542969 275.511719 143.503906 276.011719 142.308594 C 277.257812 139.242188 279.960938 138.914062 282.828125 139.789062 C 283.542969 140.003906 284.269531 140.289062 284.972656 140.613281 C 285.65625 140.949219 286.324219 141.324219 286.953125 141.703125 C 288.199219 142.464844 289.320312 143.234375 290.003906 143.757812 C 295.441406 147.660156 300.230469 152.753906 304.457031 158.460938 C 305.304688 159.632812 306.152344 160.824219 306.988281 162.042969 C 307.777344 163.273438 308.5625 164.523438 309.34375 165.796875 C 309.449219 165.972656 309.570312 166.210938 309.699219 166.480469 C 309.820312 166.75 309.949219 167.042969 310.082031 167.339844 C 310.351562 167.921875 310.65625 168.480469 310.988281 168.730469 " fill-opacity="1" fill-rule="nonzero"/><path fill="#ffffff" d="M 303.167969 138.585938 C 303.511719 137.460938 303.769531 136.347656 304.035156 135.203125 C 304.296875 134.066406 304.542969 132.90625 304.773438 131.734375 C 304.980469 130.570312 305.152344 129.398438 305.324219 128.207031 C 305.402344 127.609375 305.484375 127.007812 305.5625 126.410156 L 305.671875 125.503906 L 305.757812 124.605469 C 306.15625 120.367188 306.371094 115.886719 306.054688 111.339844 C 305.972656 110.207031 305.867188 109.0625 305.738281 107.910156 C 305.609375 106.757812 305.398438 105.632812 305.1875 104.484375 C 304.964844 103.34375 304.730469 102.1875 304.429688 101.050781 C 304.117188 99.921875 303.773438 98.792969 303.390625 97.667969 C 303.132812 96.921875 302.875 96.15625 302.550781 95.429688 C 301.988281 94.132812 301.203125 92.4375 300.164062 91.023438 C 299.089844 89.636719 297.761719 88.546875 296.210938 88.4375 C 294.238281 88.292969 293.113281 89.015625 292.566406 90.15625 C 292.011719 91.3125 292 92.921875 292.253906 94.644531 C 292.382812 95.507812 292.585938 96.390625 292.804688 97.277344 C 293.011719 98.175781 293.253906 99.0625 293.503906 99.898438 C 293.753906 100.734375 294.007812 101.519531 294.238281 102.214844 C 294.464844 102.917969 294.648438 103.546875 294.796875 104.039062 C 297.0625 111.523438 299.261719 118.910156 300.886719 126.253906 C 301.25 127.738281 301.511719 129.257812 301.816406 130.75 C 301.960938 131.5 302.121094 132.234375 302.25 132.984375 C 302.375 133.734375 302.5 134.480469 302.625 135.230469 C 302.757812 136.050781 303.425781 137.773438 303.167969 138.585938 " fill-opacity="1" fill-rule="nonzero"/><path fill="#ffffff" d="M 303.167969 138.585938 C 302.121094 138.132812 301.035156 137.707031 299.972656 137.277344 C 298.910156 136.855469 297.855469 136.4375 296.800781 136.015625 C 295.765625 135.59375 294.679688 135.207031 293.628906 134.820312 C 292.582031 134.441406 291.535156 134.0625 290.488281 133.683594 C 288.652344 133.042969 286.75 132.464844 284.914062 131.882812 C 284 131.589844 283.042969 131.324219 282.117188 131.054688 C 281.191406 130.78125 280.269531 130.511719 279.355469 130.242188 C 278.457031 129.960938 277.519531 129.710938 276.621094 129.445312 C 275.714844 129.179688 274.824219 128.910156 273.957031 128.628906 C 272.195312 128.082031 270.453125 127.535156 268.839844 126.894531 C 268.28125 126.699219 267.730469 126.488281 267.195312 126.265625 C 266.722656 126.070312 266.183594 125.835938 265.652344 125.5625 C 265.382812 125.425781 265.121094 125.273438 264.867188 125.113281 C 264.601562 124.960938 264.347656 124.796875 264.113281 124.617188 C 263.167969 123.90625 262.546875 122.957031 262.714844 121.679688 C 262.921875 120.0625 263.660156 118.992188 264.726562 118.347656 C 265.789062 117.707031 267.207031 117.480469 268.695312 117.546875 C 270.167969 117.621094 271.746094 117.96875 273.171875 118.378906 C 274.574219 118.800781 275.792969 119.3125 276.621094 119.625 C 282.855469 122.054688 288.765625 125.785156 294.28125 130.261719 C 294.5625 130.488281 294.855469 130.714844 295.132812 130.945312 L 295.953125 131.660156 C 296.503906 132.144531 297.054688 132.628906 297.605469 133.109375 C 298.722656 134.082031 299.765625 135.113281 300.820312 136.160156 C 301.398438 136.738281 302.425781 138.253906 303.167969 138.585938 " fill-opacity="1" fill-rule="nonzero"/><path fill="#ffffff" d="M 288.625 112.070312 C 288.652344 110.917969 288.660156 109.757812 288.648438 108.578125 C 288.636719 107.988281 288.625 107.394531 288.613281 106.804688 C 288.578125 106.21875 288.542969 105.632812 288.511719 105.042969 C 288.429688 103.867188 288.332031 102.675781 288.214844 101.472656 C 288.101562 100.269531 287.921875 99.09375 287.75 97.890625 C 287.59375 96.835938 287.433594 95.757812 287.246094 94.6875 C 287.042969 93.621094 286.824219 92.546875 286.589844 91.464844 C 286.140625 89.273438 285.542969 87.125 284.859375 84.945312 C 284.6875 84.398438 284.511719 83.851562 284.328125 83.308594 C 284.132812 82.773438 283.929688 82.238281 283.722656 81.703125 C 283.304688 80.632812 282.859375 79.5625 282.382812 78.492188 C 281.914062 77.421875 281.363281 76.40625 280.808594 75.367188 C 280.242188 74.34375 279.660156 73.300781 279.011719 72.3125 C 278.574219 71.65625 278.121094 71.003906 277.644531 70.363281 C 277.21875 69.792969 276.722656 69.140625 276.160156 68.488281 C 275.601562 67.835938 274.949219 67.21875 274.273438 66.664062 C 272.90625 65.570312 271.386719 64.789062 269.832031 65.089844 C 267.863281 65.445312 266.953125 66.398438 266.691406 67.648438 C 266.5625 68.273438 266.59375 68.972656 266.742188 69.710938 C 266.894531 70.453125 267.160156 71.234375 267.480469 72.054688 C 268.121094 73.6875 269.070312 75.34375 269.949219 76.847656 C 270.816406 78.371094 271.664062 79.691406 272.191406 80.558594 C 276.199219 87.261719 280.085938 93.921875 283.429688 100.660156 C 284.804688 103.402344 286.074219 106.179688 287.292969 108.941406 C 287.613281 109.710938 288.644531 111.242188 288.625 112.070312 " fill-opacity="1" fill-rule="nonzero"/><path fill="#ffffff" d="M 288.625 112.070312 C 287.480469 111.90625 286.339844 111.742188 285.203125 111.578125 C 284.070312 111.417969 282.96875 111.246094 281.824219 111.117188 C 280.699219 110.984375 279.574219 110.851562 278.457031 110.71875 C 277.902344 110.660156 277.351562 110.597656 276.800781 110.535156 C 276.246094 110.476562 275.683594 110.433594 275.128906 110.382812 C 274.160156 110.308594 273.183594 110.230469 272.203125 110.152344 L 270.753906 110.050781 C 270.269531 110.015625 269.769531 110 269.28125 109.976562 C 268.3125 109.929688 267.339844 109.886719 266.371094 109.839844 C 265.890625 109.816406 265.414062 109.792969 264.9375 109.769531 C 264.453125 109.753906 263.96875 109.734375 263.488281 109.71875 C 262.527344 109.683594 261.578125 109.644531 260.644531 109.597656 C 260.179688 109.570312 259.714844 109.542969 259.253906 109.515625 C 258.785156 109.496094 258.316406 109.472656 257.851562 109.453125 C 256 109.355469 254.230469 109.179688 252.457031 109.003906 C 251.871094 108.9375 251.292969 108.859375 250.726562 108.761719 C 250.472656 108.71875 250.207031 108.671875 249.925781 108.617188 C 249.644531 108.566406 249.347656 108.515625 249.050781 108.449219 C 248.457031 108.320312 247.863281 108.148438 247.324219 107.90625 C 246.265625 107.398438 245.394531 106.675781 245.257812 105.394531 C 244.894531 102.105469 247.125 100.535156 250.070312 99.949219 C 250.800781 99.804688 251.585938 99.699219 252.351562 99.667969 C 253.113281 99.636719 253.882812 99.648438 254.617188 99.6875 C 255.351562 99.722656 256.054688 99.78125 256.679688 99.84375 C 257.308594 99.90625 257.84375 100 258.277344 100.054688 C 264.917969 100.921875 271.550781 103.128906 277.980469 106.144531 C 278.640625 106.460938 279.296875 106.773438 279.957031 107.089844 C 280.625 107.402344 281.246094 107.761719 281.898438 108.105469 C 282.546875 108.457031 283.195312 108.8125 283.84375 109.164062 L 284.816406 109.707031 L 285.765625 110.28125 C 286.460938 110.707031 287.796875 111.949219 288.625 112.070312 " fill-opacity="1" fill-rule="nonzero"/><g clip-path="url(#ddcfcdaef9)"><path fill="#ffffff" d="M 266.230469 88.265625 C 265.160156 83.785156 263.664062 79.226562 261.722656 74.800781 C 261.296875 73.824219 260.859375 72.832031 260.40625 71.835938 C 259.9375 70.859375 259.449219 69.878906 258.945312 68.894531 C 258.433594 67.914062 257.917969 66.902344 257.355469 65.9375 C 256.789062 64.972656 256.199219 64.007812 255.589844 63.042969 C 255.28125 62.5625 254.96875 62.082031 254.652344 61.601562 C 254.332031 61.121094 253.992188 60.667969 253.65625 60.199219 C 252.976562 59.277344 252.265625 58.359375 251.53125 57.449219 C 250.804688 56.527344 250.007812 55.691406 249.203125 54.832031 C 248.390625 53.988281 247.554688 53.144531 246.675781 52.34375 C 246.085938 51.820312 245.476562 51.3125 244.847656 50.816406 C 243.734375 49.9375 242.246094 48.792969 240.632812 48.109375 C 239.832031 47.757812 239.007812 47.496094 238.210938 47.402344 C 237.8125 47.355469 237.421875 47.351562 237.039062 47.398438 C 236.65625 47.453125 236.285156 47.566406 235.929688 47.730469 C 234.121094 48.589844 233.488281 49.746094 233.558594 51.015625 C 233.628906 52.300781 234.417969 53.65625 235.460938 55.074219 C 235.984375 55.777344 236.578125 56.472656 237.203125 57.140625 C 237.824219 57.808594 238.476562 58.4375 239.089844 59.070312 C 240.324219 60.3125 241.480469 61.367188 242.222656 62.070312 C 247.820312 67.523438 253.292969 72.949219 258.261719 78.59375 C 259.269531 79.753906 260.292969 80.875 261.25 82.070312 L 262.707031 83.824219 L 263.429688 84.699219 L 264.128906 85.59375 C 264.644531 86.253906 266.035156 87.460938 266.230469 88.265625 " fill-opacity="1" fill-rule="nonzero"/></g><path fill="#ffffff" d="M 255.515625 80.550781 C 255.125 80.113281 254.714844 79.703125 254.304688 79.289062 L 253.054688 78.054688 L 251.789062 76.824219 C 251.363281 76.417969 250.917969 76.039062 250.476562 75.644531 C 249.589844 74.867188 248.695312 74.085938 247.78125 73.324219 C 246.855469 72.589844 245.917969 71.855469 244.96875 71.128906 C 244.144531 70.472656 243.277344 69.871094 242.410156 69.257812 C 241.535156 68.648438 240.664062 68.019531 239.761719 67.425781 C 238.855469 66.851562 237.933594 66.277344 237.007812 65.714844 C 236.539062 65.4375 236.078125 65.144531 235.601562 64.882812 L 234.160156 64.113281 C 233.191406 63.609375 232.21875 63.105469 231.230469 62.644531 C 230.230469 62.203125 229.222656 61.78125 228.207031 61.382812 C 227.699219 61.183594 227.191406 60.984375 226.675781 60.804688 C 226.15625 60.632812 225.636719 60.472656 225.117188 60.316406 C 224.074219 60.003906 223.023438 59.714844 221.96875 59.464844 C 221.261719 59.320312 220.550781 59.191406 219.835938 59.085938 C 217.308594 58.652344 213.164062 58.410156 211.828125 60.933594 C 210.96875 62.554688 211.082031 63.875 211.746094 64.945312 C 212.414062 66.019531 213.640625 66.835938 215.078125 67.480469 C 216.5 68.179688 218.144531 68.683594 219.65625 69.101562 C 221.15625 69.554688 222.535156 69.878906 223.433594 70.109375 C 230.265625 71.96875 237.167969 73.835938 244.019531 76.179688 L 246.125 76.898438 L 248.203125 77.675781 L 250.304688 78.449219 C 250.996094 78.71875 251.683594 79.007812 252.378906 79.285156 C 252.757812 79.4375 253.398438 79.597656 254.019531 79.796875 C 254.328125 79.898438 254.632812 80.003906 254.894531 80.125 C 255.15625 80.253906 255.371094 80.398438 255.515625 80.550781 " fill-opacity="1" fill-rule="nonzero"/><path fill="#ffffff" d="M 266.230469 88.265625 C 263.917969 88.550781 261.660156 88.800781 259.414062 89.105469 C 258.292969 89.269531 257.171875 89.433594 256.058594 89.597656 C 254.949219 89.765625 253.863281 89.917969 252.757812 90.128906 C 251.800781 90.304688 250.835938 90.484375 249.871094 90.664062 C 248.910156 90.851562 247.96875 91.023438 247.003906 91.242188 C 246.050781 91.449219 245.097656 91.660156 244.152344 91.867188 C 243.207031 92.074219 242.28125 92.261719 241.335938 92.488281 C 237.597656 93.335938 233.984375 94.117188 230.492188 94.644531 C 229.910156 94.734375 229.332031 94.808594 228.761719 94.863281 C 227.753906 94.941406 226.414062 95.109375 225.257812 94.914062 C 224.675781 94.824219 224.136719 94.628906 223.679688 94.335938 C 223.21875 94.046875 222.847656 93.625 222.617188 93.023438 C 221.417969 89.949219 223.167969 87.851562 225.859375 86.515625 C 227.207031 85.824219 228.738281 85.40625 230.179688 85.089844 C 230.898438 84.933594 231.589844 84.808594 232.214844 84.707031 C 232.832031 84.617188 233.375 84.558594 233.808594 84.503906 C 240.445312 83.625 247.425781 84.042969 254.414062 85.300781 C 255.132812 85.433594 255.851562 85.566406 256.570312 85.695312 C 257.289062 85.839844 257.992188 86.015625 258.707031 86.179688 C 260.128906 86.523438 261.59375 86.851562 263.003906 87.285156 C 263.785156 87.515625 265.398438 88.363281 266.230469 88.265625 " fill-opacity="1" fill-rule="nonzero"/><g clip-path="url(#91b88c3c56)"><path fill="#ffffff" d="M 243.8125 73.753906 C 243.890625 73.59375 243.949219 73.441406 244 73.285156 C 250.71875 76.683594 257.148438 80.660156 263.171875 85.183594 C 269.179688 89.734375 274.792969 94.8125 279.921875 100.34375 C 280.578125 101.019531 281.183594 101.742188 281.808594 102.449219 L 283.671875 104.578125 L 285.457031 106.773438 C 286.046875 107.511719 286.660156 108.230469 287.214844 108.996094 C 288.339844 110.511719 289.507812 111.992188 290.558594 113.5625 L 292.167969 115.890625 C 292.6875 116.679688 293.1875 117.480469 293.695312 118.277344 C 297.738281 124.652344 301.238281 131.386719 304.039062 138.410156 C 309.667969 152.441406 312.835938 167.472656 313.117188 182.640625 C 313.421875 197.800781 310.863281 213.003906 305.726562 227.269531 C 300.59375 241.542969 292.90625 254.890625 283.160156 266.53125 C 273.417969 278.179688 261.597656 288.121094 248.363281 295.664062 C 241.746094 299.4375 234.78125 302.609375 227.582031 305.121094 C 223.976562 306.398438 220.332031 307.4375 216.605469 308.414062 C 212.878906 309.3125 209.277344 310.027344 205.714844 310.796875 C 198.605469 312.328125 191.621094 313.980469 185.152344 316.414062 C 183.527344 317.007812 181.972656 317.691406 180.453125 318.402344 C 178.945312 319.125 177.511719 319.917969 176.15625 320.769531 C 173.5 322.5 171.21875 324.523438 169.925781 326.789062 C 169.816406 326.984375 169.625 327.128906 169.449219 327.253906 C 169.265625 327.375 169.035156 327.464844 168.78125 327.511719 C 168.273438 327.609375 167.648438 327.570312 167.0625 327.328125 C 166.476562 327.082031 166.046875 326.65625 165.839844 326.121094 C 165.738281 325.859375 165.691406 325.566406 165.707031 325.273438 C 165.710938 324.972656 165.832031 324.699219 165.988281 324.429688 C 166.925781 322.894531 168.085938 321.484375 169.429688 320.273438 C 170.765625 319.050781 172.226562 317.964844 173.761719 316.996094 C 175.3125 316.042969 176.917969 315.179688 178.570312 314.410156 C 180.230469 313.660156 181.910156 312.945312 183.632812 312.335938 C 190.507812 309.839844 197.679688 308.238281 204.863281 306.769531 C 208.460938 306.03125 212.070312 305.355469 215.671875 304.527344 C 219.257812 303.625 222.820312 302.65625 226.316406 301.453125 C 233.316406 299.097656 240.101562 296.089844 246.566406 292.496094 C 259.492188 285.308594 271.101562 275.757812 280.726562 264.496094 C 290.355469 253.242188 298.011719 240.28125 303.183594 226.363281 C 308.363281 212.457031 311.027344 197.585938 310.894531 182.703125 C 310.777344 167.8125 307.820312 152.976562 302.421875 139.089844 C 299.734375 132.136719 296.355469 125.453125 292.429688 119.113281 C 291.933594 118.324219 291.449219 117.527344 290.945312 116.742188 L 289.378906 114.421875 C 288.359375 112.859375 287.21875 111.382812 286.125 109.871094 C 285.582031 109.109375 284.988281 108.390625 284.410156 107.660156 L 282.671875 105.46875 L 280.847656 103.34375 C 280.238281 102.636719 279.644531 101.914062 279 101.238281 C 273.984375 95.710938 268.480469 90.617188 262.574219 86.042969 C 256.648438 81.488281 250.308594 77.472656 243.671875 74.027344 L 243.8125 73.753906 " fill-opacity="1" fill-rule="nonzero"/></g></svg>